<svg version="1.1" xmlns="http://www.w3.org/2000/svg" viewBox="0 0 1598.0883620741843 1806.2352582952722" width="1598.0883620741843" height="1806.2352582952722">
  <!-- svg-source:excalidraw -->
  
  <defs>
    <style class="style-fonts">
      @font-face {
        font-family: "Virgil";
        src: url("https://excalidraw.com/Virgil.woff2");
      }
      @font-face {
        font-family: "Cascadia";
        src: url("https://excalidraw.com/Cascadia.woff2");
      }
      @font-face {
        font-family: "Assistant";
        src: url("https://excalidraw.com/Assistant-Regular.woff2");
      }
    </style>
    
  </defs>
  <g stroke-linecap="round" transform="translate(10 10) rotate(0 783.7519887256444 428.394214527027)"><path d="M32 0 C401.13 0.97, 766.59 0.74, 1535.5 0 C1556.99 3.31, 1565.55 8.32, 1567.5 32 C1563.32 256.52, 1564.59 481.6, 1567.5 824.79 C1568.47 844.6, 1554.27 858.53, 1535.5 856.79 C967.57 849.03, 399.74 849.92, 32 856.79 C13.03 855.45, 0.46 848.99, 0 824.79 C5.04 640.65, 5.49 457.08, 0 32 C-0.48 10.95, 9.03 2.74, 32 0" stroke="none" stroke-width="0" fill="#e9ecef"></path><path d="M32 0 C343.9 -0.25, 656.4 0.32, 1535.5 0 M32 0 C580.92 -2.38, 1129.5 -2.25, 1535.5 0 M1535.5 0 C1555.96 1.47, 1565.72 9.3, 1567.5 32 M1535.5 0 C1554.79 0.43, 1568.2 11.54, 1567.5 32 M1567.5 32 C1566.88 255.7, 1567.4 479.65, 1567.5 824.79 M1567.5 32 C1567.74 246.21, 1568.15 460.39, 1567.5 824.79 M1567.5 824.79 C1567.48 846.48, 1558.83 857.93, 1535.5 856.79 M1567.5 824.79 C1565.79 848.06, 1558.49 858.13, 1535.5 856.79 M1535.5 856.79 C981.04 861.37, 427.06 860.56, 32 856.79 M1535.5 856.79 C937.13 853.43, 338.65 853.4, 32 856.79 M32 856.79 C12.59 856.81, -0.02 847.77, 0 824.79 M32 856.79 C10.79 858.42, 1.47 847.28, 0 824.79 M0 824.79 C0.18 624.56, 0.28 424.25, 0 32 M0 824.79 C3.45 534.62, 2.8 245.11, 0 32 M0 32 C1.3 11.8, 11.35 -0.26, 32 0 M0 32 C-1.66 12.03, 12.5 -1.1, 32 0" stroke="#e9ecef" stroke-width="2" fill="none"></path></g><g stroke-linecap="round" transform="translate(90.2909380253277 507.1603423473423) rotate(0 128.87890625 126.60921563512909)"><path d="M32 0 C102.49 -1.19, 172.38 -1.23, 225.76 0 M32 0 C85.73 -0.69, 140.75 -0.72, 225.76 0 M225.76 0 C245.51 1.4, 259.03 12.47, 257.76 32 M225.76 0 C248.95 0.33, 255.73 9.08, 257.76 32 M257.76 32 C257.84 97.4, 254.8 159.51, 257.76 221.22 M257.76 32 C257.18 95.03, 256.35 160.18, 257.76 221.22 M257.76 221.22 C259.06 241.93, 246.78 254.04, 225.76 253.22 M257.76 221.22 C259.6 240.36, 245.08 253.3, 225.76 253.22 M225.76 253.22 C154.51 256.03, 80.42 254.2, 32 253.22 M225.76 253.22 C166.44 251.87, 105.41 252.83, 32 253.22 M32 253.22 C8.73 253.91, -0.08 241.14, 0 221.22 M32 253.22 C9.86 252.36, 0.57 242.63, 0 221.22 M0 221.22 C2 178.11, 2.54 139.98, 0 32 M0 221.22 C0.49 161.64, 1.94 103.26, 0 32 M0 32 C1.99 10.74, 12.07 -1.27, 32 0 M0 32 C-0.92 10.02, 12.24 1.66, 32 0" stroke="#1e1e1e" stroke-width="2" fill="none"></path></g><g transform="translate(135.76898219418433 518.6529642983663) rotate(0 81.73991394042969 12.5)"><text x="0" y="0" font-family="Virgil, Segoe UI Emoji" font-size="20px" fill="#1e1e1e" text-anchor="start" style="white-space: pre;" direction="ltr" dominant-baseline="text-before-edge">TimelockProposal</text></g><g stroke-linecap="round" transform="translate(108.41559499766208 557.1799472454072) rotate(0 110.06790170847339 28)"><path d="M14 0 C54.7 0.98, 97.31 0.15, 206.14 0 M14 0 C79.26 -0.08, 146.73 0.12, 206.14 0 M206.14 0 C217.09 0.29, 218.37 3.29, 220.14 14 M206.14 0 C216.32 -1.81, 219.18 6.47, 220.14 14 M220.14 14 C220.69 24.13, 221.03 35.38, 220.14 42 M220.14 14 C220.55 19.46, 219.74 25.94, 220.14 42 M220.14 42 C221.73 49.43, 213.72 56.07, 206.14 56 M220.14 42 C221.93 50.9, 217.51 58.29, 206.14 56 M206.14 56 C138.21 54.57, 69.59 56.2, 14 56 M206.14 56 C166.74 56.27, 129.24 55.21, 14 56 M14 56 C3.97 55.25, 0.5 51.4, 0 42 M14 56 C2.79 54.3, -0.03 52.02, 0 42 M0 42 C0.08 35.03, -0.59 29.17, 0 14 M0 42 C0.74 35.27, 0.45 27.83, 0 14 M0 14 C-0.8 4.11, 6.04 1.44, 14 0 M0 14 C-1.92 4.93, 3.04 -0.1, 14 0" stroke="#1e1e1e" stroke-width="2" fill="none"></path></g><g transform="translate(124.73349670613547 575.5799472454072) rotate(0 93.75 9.600000000000023)"><text x="93.75" y="0" font-family="Cascadia, Segoe UI Emoji" font-size="16px" fill="#1e1e1e" text-anchor="middle" style="white-space: pre;" direction="ltr" dominant-baseline="text-before-edge">getScheduleCaldata()</text></g><g stroke-linecap="round" transform="translate(107.3356599157122 625.1239281800764) rotate(0 110.25914519805673 24.56778971354163)"><path d="M12.28 0 C64.95 0.99, 116.67 -0.07, 208.23 0 M12.28 0 C85.62 -1.62, 156.45 -2.46, 208.23 0 M208.23 0 C217.16 -1.57, 219.68 5.67, 220.52 12.28 M208.23 0 C218.32 -1.69, 220.54 4.97, 220.52 12.28 M220.52 12.28 C218.77 17.23, 221.14 26.9, 220.52 36.85 M220.52 12.28 C221.28 17.94, 219.6 25.53, 220.52 36.85 M220.52 36.85 C222.08 44.66, 218.2 51.13, 208.23 49.14 M220.52 36.85 C221.77 46.36, 215.58 49.33, 208.23 49.14 M208.23 49.14 C154.57 48.42, 104.82 48.08, 12.28 49.14 M208.23 49.14 C142.36 47.38, 77.43 47.78, 12.28 49.14 M12.28 49.14 C2.46 47.66, -0.03 45.64, 0 36.85 M12.28 49.14 C2.02 50.45, 1.57 45.31, 0 36.85 M0 36.85 C-1.11 32.64, 0.13 26.79, 0 12.28 M0 36.85 C-0.57 29.11, 0.51 22.65, 0 12.28 M0 12.28 C-1.67 4.33, 2.68 -0.09, 12.28 0 M0 12.28 C-1.91 5.89, 3.07 -0.4, 12.28 0" stroke="#1e1e1e" stroke-width="2" fill="none"></path></g><g transform="translate(123.84480511376893 640.091717893618) rotate(0 93.75 9.600000000000023)"><text x="93.75" y="0" font-family="Cascadia, Segoe UI Emoji" font-size="16px" fill="#1e1e1e" text-anchor="middle" style="white-space: pre;" direction="ltr" dominant-baseline="text-before-edge">getExecuteCalldata()</text></g><g stroke-linecap="round" transform="translate(107.68192809830629 689.8615700821366) rotate(0 109.23375457305671 24.327718098958314)"><path d="M12.16 0 C66.79 2.81, 120.41 3.15, 206.3 0 M206.3 0 C214.7 -1.76, 217.09 4.79, 218.47 12.16 M218.47 12.16 C220.02 16.08, 218.39 23.7, 218.47 36.49 M218.47 36.49 C217.89 45.7, 214.36 46.77, 206.3 48.66 M206.3 48.66 C164.07 49.61, 123.9 51.52, 12.16 48.66 M12.16 48.66 C2.15 46.9, 0.07 46.16, 0 36.49 M0 36.49 C0.87 30.8, -0.95 22.98, 0 12.16 M0 12.16 C-0.73 3.7, 4.96 -2, 12.16 0" stroke="#1e1e1e" stroke-width="2.5" fill="none" stroke-dasharray="8 10"></path></g><g transform="translate(132.54068267136302 704.589288181095) rotate(0 84.375 9.600000000000023)"><text x="84.375" y="0" font-family="Cascadia, Segoe UI Emoji" font-size="16px" fill="#1e1e1e" text-anchor="middle" style="white-space: pre;" direction="ltr" dominant-baseline="text-before-edge">_simulateActions()</text></g><g stroke-linecap="round" transform="translate(543.0919004435932 535.0431653111974) rotate(0 128.87890625 99.95454569130885)"><path d="M32 0 C77.57 -1.01, 124.18 1.16, 225.76 0 M32 0 C93.04 -2.17, 154.09 -0.68, 225.76 0 M225.76 0 C246.12 0.82, 259.42 10.1, 257.76 32 M225.76 0 C247.6 1.51, 257.79 10.41, 257.76 32 M257.76 32 C259.91 72.82, 259.38 114.23, 257.76 167.91 M257.76 32 C255.96 64.74, 255.89 98.19, 257.76 167.91 M257.76 167.91 C257.14 188.35, 245.35 201.15, 225.76 199.91 M257.76 167.91 C256.35 187.79, 246.38 200.67, 225.76 199.91 M225.76 199.91 C173.45 200.96, 123.51 199.48, 32 199.91 M225.76 199.91 C174.63 201.4, 123.78 200.8, 32 199.91 M32 199.91 C9.12 200.6, -0.84 187.29, 0 167.91 M32 199.91 C8.48 198.68, 0.18 191.03, 0 167.91 M0 167.91 C0.38 121.11, 3.11 71.91, 0 32 M0 167.91 C0.2 135.21, -1.38 104.59, 0 32 M0 32 C-0.42 12.25, 10.91 -1.62, 32 0 M0 32 C1.95 8.47, 10.56 1.62, 32 0" stroke="#1e1e1e" stroke-width="2" fill="none"></path></g><g transform="translate(588.5699446124498 546.5357872622214) rotate(0 78.08991241455078 12.5)"><text x="0" y="0" font-family="Virgil, Segoe UI Emoji" font-size="20px" fill="#1e1e1e" text-anchor="start" style="white-space: pre;" direction="ltr" dominant-baseline="text-before-edge">MultisigProposal</text></g><g stroke-linecap="round" transform="translate(561.2165574159276 585.0627702092623) rotate(0 110.06790170847336 28)"><path d="M14 0 C72.65 2.13, 130.3 0.57, 206.14 0 M14 0 C86.42 2.18, 157.14 1.84, 206.14 0 M206.14 0 C217.13 -0.57, 220.58 5.98, 220.14 14 M206.14 0 C215.5 -0.26, 220.14 6.85, 220.14 14 M220.14 14 C220.59 23.84, 219.1 30.42, 220.14 42 M220.14 14 C219.43 20.19, 219.69 25.2, 220.14 42 M220.14 42 C218.4 52.58, 214.24 54.74, 206.14 56 M220.14 42 C219.43 52.1, 214.75 58.25, 206.14 56 M206.14 56 C145.64 55.63, 80.46 55.44, 14 56 M206.14 56 C131.18 54.64, 55.34 55.85, 14 56 M14 56 C3.83 54.05, -1.9 50.27, 0 42 M14 56 C4.84 57.79, 1.09 49.13, 0 42 M0 42 C1.94 31.44, -1.18 25.13, 0 14 M0 42 C-0.92 31.74, -0.47 21.52, 0 14 M0 14 C0.25 3.04, 6.36 -1.91, 14 0 M0 14 C-0.11 6.28, 4.01 -0.99, 14 0" stroke="#1e1e1e" stroke-width="2" fill="none"></path></g><g transform="translate(610.346959124401 603.4627702092623) rotate(0 60.9375 9.600000000000023)"><text x="60.9375" y="0" font-family="Cascadia, Segoe UI Emoji" font-size="16px" fill="#1e1e1e" text-anchor="middle" style="white-space: pre;" direction="ltr" dominant-baseline="text-before-edge">getCalldata()</text></g><g stroke-linecap="round" transform="translate(561.7890428603218 656.9371013793251) rotate(0 109.2337545730567 24.327718098958314)"><path d="M12.16 0 C83.53 0.96, 150.46 1.58, 206.3 0 M206.3 0 C215.92 -0.97, 219.29 5.72, 218.47 12.16 M218.47 12.16 C218.55 18.55, 218.52 27.28, 218.47 36.49 M218.47 36.49 C219.02 45.47, 214.45 48.99, 206.3 48.66 M206.3 48.66 C139.73 45.81, 76.5 45.66, 12.16 48.66 M12.16 48.66 C4.79 48.03, -0.89 42.86, 0 36.49 M0 36.49 C-0.47 28.35, -0.47 20.83, 0 12.16 M0 12.16 C0.5 3.86, 4.62 1.98, 12.16 0" stroke="#1e1e1e" stroke-width="2.5" fill="none" stroke-dasharray="8 10"></path></g><g transform="translate(586.6477974333785 671.6648194782834) rotate(0 84.375 9.600000000000023)"><text x="84.375" y="0" font-family="Cascadia, Segoe UI Emoji" font-size="16px" fill="#1e1e1e" text-anchor="middle" style="white-space: pre;" direction="ltr" dominant-baseline="text-before-edge">_simulateActions()</text></g><g stroke-linecap="round" transform="translate(348.10843798584307 76.31791099606278) rotate(0 100.55859375 158.66186523437497)"><path d="M32 0 C66.54 0.15, 98.59 -1.23, 169.12 0 M32 0 C86.09 -0.05, 139.26 -1.31, 169.12 0 M169.12 0 C191.17 0.39, 202.64 10, 201.12 32 M169.12 0 C190.51 -0.08, 201.06 11.85, 201.12 32 M201.12 32 C200.25 114.87, 199.27 196.88, 201.12 285.32 M201.12 32 C202.3 132.12, 203.25 232.81, 201.12 285.32 M201.12 285.32 C200.81 305.51, 190.38 317.46, 169.12 317.32 M201.12 285.32 C199.5 307.76, 190.11 318.74, 169.12 317.32 M169.12 317.32 C133.04 317.77, 98.65 317.21, 32 317.32 M169.12 317.32 C133.32 316.01, 97.05 315.48, 32 317.32 M32 317.32 C12.07 318.59, 1.8 308.27, 0 285.32 M32 317.32 C11 315.3, -1.58 307.51, 0 285.32 M0 285.32 C2.2 228.04, 0.87 173.75, 0 32 M0 285.32 C-1.9 215.99, -0.94 148.57, 0 32 M0 32 C-0.62 10.36, 11.49 1.6, 32 0 M0 32 C-2.19 8.65, 10.75 1.79, 32 0" stroke="#1e1e1e" stroke-width="2" fill="none"></path></g><g transform="translate(412.10843798584307 91.04056724606278) rotate(0 41.64995574951172 12.5)"><text x="0" y="0" font-family="Virgil, Segoe UI Emoji" font-size="20px" fill="#1e1e1e" text-anchor="start" style="white-space: pre;" direction="ltr" dominant-baseline="text-before-edge">Proposal</text></g><g stroke-linecap="round" transform="translate(366.82750116643376 128.62736985610468) rotate(0 84.56741342722339 21.183142270806428)"><path d="M10.59 0 C62.47 -0.97, 112.23 2, 158.54 0 M10.59 0 C69.04 0.68, 127.53 0.15, 158.54 0 M158.54 0 C165.65 -0.07, 169.09 4.56, 169.13 10.59 M158.54 0 C166.17 -2.1, 170.18 4.95, 169.13 10.59 M169.13 10.59 C171.1 19.4, 170.74 23.9, 169.13 31.77 M169.13 10.59 C169.11 14.65, 169.23 19.92, 169.13 31.77 M169.13 31.77 C167.73 39.8, 165.31 43.6, 158.54 42.37 M169.13 31.77 C168 38.2, 166.05 40.38, 158.54 42.37 M158.54 42.37 C112.07 43.26, 65.48 42.96, 10.59 42.37 M158.54 42.37 C118.68 41.83, 78.32 42.01, 10.59 42.37 M10.59 42.37 C3.82 40.61, -1.38 39.57, 0 31.77 M10.59 42.37 C1.72 41.41, 1.81 40.74, 0 31.77 M0 31.77 C-0.58 28.08, -0.05 20.3, 0 10.59 M0 31.77 C-0.36 27.08, 0.36 23.49, 0 10.59 M0 10.59 C-1.91 1.78, 3.6 1.56, 10.59 0 M0 10.59 C-0.43 5.57, 5.82 1.25, 10.59 0" stroke="#1e1e1e" stroke-width="2" fill="none"></path></g><g transform="translate(423.2699145936572 140.2105121269111) rotate(0 28.125 9.599999999999994)"><text x="28.125" y="0" font-family="Cascadia, Segoe UI Emoji" font-size="16px" fill="#1e1e1e" text-anchor="middle" style="white-space: pre;" direction="ltr" dominant-baseline="text-before-edge">name()</text></g><g transform="translate(436.3455838966218 347.0177709687981) rotate(0 11.6689453125 16.099999999999994)"><text x="0" y="0" font-family="Helvetica, Segoe UI Emoji" font-size="28px" fill="#1e1e1e" text-anchor="start" style="white-space: pre;" direction="ltr" dominant-baseline="text-before-edge">...</text></g><g stroke-linecap="round" transform="translate(366.7887498964815 186.64494770840852) rotate(0 84.56741342722339 21.183142270806428)"><path d="M10.59 0 C46.28 0.1, 77.6 -0.42, 158.54 0 M10.59 0 C57.91 0.46, 105.16 1.01, 158.54 0 M158.54 0 C166.1 -1.83, 170.04 4.77, 169.13 10.59 M158.54 0 C166.54 0.04, 169.77 5.78, 169.13 10.59 M169.13 10.59 C167.68 19.86, 167.45 26.37, 169.13 31.77 M169.13 10.59 C168.42 16.21, 168.98 21.49, 169.13 31.77 M169.13 31.77 C168.15 38.28, 165.99 40.64, 158.54 42.37 M169.13 31.77 C169.35 36.81, 165.17 41.54, 158.54 42.37 M158.54 42.37 C105.02 43.83, 50.94 44.42, 10.59 42.37 M158.54 42.37 C104.9 42.68, 50.29 43.93, 10.59 42.37 M10.59 42.37 C1.96 41.53, 1.57 40.49, 0 31.77 M10.59 42.37 C1.84 42.39, 0.88 38.17, 0 31.77 M0 31.77 C-1.71 24.74, 1.31 16.11, 0 10.59 M0 31.77 C-1.04 24.87, -0.05 20.5, 0 10.59 M0 10.59 C-0.38 5.31, 5.52 1.09, 10.59 0 M0 10.59 C1.32 2.69, 3.73 -0.84, 10.59 0" stroke="#1e1e1e" stroke-width="2" fill="none"></path></g><g transform="translate(390.4186633237049 198.22808997921496) rotate(0 60.9375 9.599999999999994)"><text x="60.9375" y="0" font-family="Cascadia, Segoe UI Emoji" font-size="16px" fill="#1e1e1e" text-anchor="middle" style="white-space: pre;" direction="ltr" dominant-baseline="text-before-edge">description()</text></g><g stroke-linecap="round" transform="translate(366.0563280214816 246.32919250007515) rotate(0 84.56741342722339 21.183142270806442)"><path d="M10.59 0 C64.57 0.99, 117.09 -0.48, 158.54 0 M10.59 0 C54.7 -1.67, 98.76 -0.14, 158.54 0 M158.54 0 C166.42 0.03, 169.69 5.49, 169.13 10.59 M158.54 0 C167.44 1.84, 167.85 1.66, 169.13 10.59 M169.13 10.59 C167.79 18.17, 169.08 24.5, 169.13 31.77 M169.13 10.59 C168.61 17.69, 169.3 24.48, 169.13 31.77 M169.13 31.77 C169.32 37.07, 165.23 41.65, 158.54 42.37 M169.13 31.77 C170.48 37.06, 166.61 41.77, 158.54 42.37 M158.54 42.37 C109.41 45.21, 59.36 43.69, 10.59 42.37 M158.54 42.37 C126.4 42.5, 96.61 43.74, 10.59 42.37 M10.59 42.37 C2.06 42.39, 0.76 38.25, 0 31.77 M10.59 42.37 C4.8 42.31, -2.16 36.87, 0 31.77 M0 31.77 C-0.45 25.73, 1.46 16.13, 0 10.59 M0 31.77 C-0.2 28.16, 0.99 23.32, 0 10.59 M0 10.59 C1.14 2.8, 3.7 -0.73, 10.59 0 M0 10.59 C-0.41 4.57, 1.23 -1.85, 10.59 0" stroke="#1e1e1e" stroke-width="2" fill="none"></path></g><g transform="translate(427.186241448705 257.91233477088156) rotate(0 23.4375 9.600000000000009)"><text x="23.4375" y="0" font-family="Cascadia, Segoe UI Emoji" font-size="16px" fill="#1e1e1e" text-anchor="middle" style="white-space: pre;" direction="ltr" dominant-baseline="text-before-edge">run()</text></g><g stroke-linecap="round" transform="translate(366.47950510481485 306.5871677604919) rotate(0 84.56741342722339 21.183142270806428)"><path d="M10.59 0 C66.15 -0.08, 122.89 0.45, 158.54 0 M10.59 0 C41.88 -0.9, 72.63 0.06, 158.54 0 M158.54 0 C167.2 1.6, 168.02 1.9, 169.13 10.59 M158.54 0 C167.02 -2.13, 168.78 2.21, 169.13 10.59 M169.13 10.59 C170.11 16.57, 170.39 22.15, 169.13 31.77 M169.13 10.59 C169.27 15.48, 168.99 21.77, 169.13 31.77 M169.13 31.77 C170.3 37.29, 166.48 41.85, 158.54 42.37 M169.13 31.77 C170.07 37.02, 167.22 43.83, 158.54 42.37 M158.54 42.37 C99.06 41.2, 43.83 41.01, 10.59 42.37 M158.54 42.37 C119.59 43.6, 82.48 43.3, 10.59 42.37 M10.59 42.37 C4.63 42.32, -1.88 37.12, 0 31.77 M10.59 42.37 C4.09 43.86, -0.71 38.48, 0 31.77 M0 31.77 C-1.92 24.62, 1.39 16.94, 0 10.59 M0 31.77 C0.36 23.17, -0.13 14.94, 0 10.59 M0 10.59 C-0.36 4.43, 1.53 -1.6, 10.59 0 M0 10.59 C-0.09 1.3, 4.32 -0.09, 10.59 0" stroke="#1e1e1e" stroke-width="2" fill="none"></path></g><g transform="translate(390.10941853203826 318.17031003129836) rotate(0 60.9375 9.599999999999994)"><text x="60.9375" y="0" font-family="Cascadia, Segoe UI Emoji" font-size="16px" fill="#1e1e1e" text-anchor="middle" style="white-space: pre;" direction="ltr" dominant-baseline="text-before-edge">getCalldata()</text></g><g stroke-linecap="round" transform="translate(1121.5955535715732 477.00162535399136) rotate(0 100.55859375000006 132.09038534931744)"><path d="M32 0 C77.67 0.09, 124.2 0.74, 169.12 0 M32 0 C62.19 -0.34, 93.82 0.09, 169.12 0 M169.12 0 C191.24 1.8, 199.62 9.1, 201.12 32 M169.12 0 C191.35 -1.55, 199.72 12.16, 201.12 32 M201.12 32 C198.56 78.7, 200.47 124.62, 201.12 232.18 M201.12 32 C202.14 105.91, 200.67 179.56, 201.12 232.18 M201.12 232.18 C199.84 253.37, 189.28 262.31, 169.12 264.18 M201.12 232.18 C201.67 254.18, 191.21 266.24, 169.12 264.18 M169.12 264.18 C120.65 263, 73.14 263.77, 32 264.18 M169.12 264.18 C136.71 263.96, 103.08 264.15, 32 264.18 M32 264.18 C10.1 264.1, -1.99 254.53, 0 232.18 M32 264.18 C8.62 263, -0.59 255.23, 0 232.18 M0 232.18 C2.74 174.76, 2.84 113.74, 0 32 M0 232.18 C-0.32 167.68, -0.55 102.8, 0 32 M0 32 C1.75 9.17, 10.08 0.14, 32 0 M0 32 C0.91 8.98, 11.06 -0.17, 32 0" stroke="#1e1e1e" stroke-width="2" fill="none"></path></g><g transform="translate(1178.5373639164009 489.7217672361752) rotate(0 49.469947814941406 12.5)"><text x="0" y="0" font-family="Virgil, Segoe UI Emoji" font-size="20px" fill="#1e1e1e" text-anchor="start" style="white-space: pre;" direction="ltr" dominant-baseline="text-before-edge">Addresses</text></g><g stroke-linecap="round" transform="translate(1140.3146167521638 529.3110842140333) rotate(0 84.56741342722336 21.1831422708064)"><path d="M10.59 0 C56.17 0.7, 100.34 1.52, 158.54 0 M10.59 0 C51.12 0.81, 90.23 2.06, 158.54 0 M158.54 0 C164.11 -1.57, 169.92 2.18, 169.13 10.59 M158.54 0 C164.21 1.49, 167.54 2.3, 169.13 10.59 M169.13 10.59 C169.3 16.16, 170.3 21.33, 169.13 31.77 M169.13 10.59 C168.51 17.81, 168.67 24.27, 169.13 31.77 M169.13 31.77 C167.96 36.96, 166.09 42.95, 158.54 42.37 M169.13 31.77 C169.89 40.9, 166.92 40.3, 158.54 42.37 M158.54 42.37 C129.61 43.26, 95.62 44.24, 10.59 42.37 M158.54 42.37 C123.18 44.07, 87.37 43.23, 10.59 42.37 M10.59 42.37 C1.54 43.39, -1.78 37.81, 0 31.77 M10.59 42.37 C2.94 44.08, -0.11 36.82, 0 31.77 M0 31.77 C1.27 23.17, 0.35 15.76, 0 10.59 M0 31.77 C0.05 26.06, 0.79 18.45, 0 10.59 M0 10.59 C-0.59 3.67, 4.32 -1.47, 10.59 0 M0 10.59 C0.4 3.36, 4.83 0.48, 10.59 0" stroke="#1e1e1e" stroke-width="2" fill="none"></path></g><g transform="translate(1168.6320301793871 540.8942264848397) rotate(0 56.25 9.600000000000023)"><text x="56.25" y="0" font-family="Cascadia, Segoe UI Emoji" font-size="16px" fill="#1e1e1e" text-anchor="middle" style="white-space: pre;" direction="ltr" dominant-baseline="text-before-edge">getAddress()</text></g><g transform="translate(1210.986614712237 689.103245384198) rotate(0 11.6689453125 16.100000000000023)"><text x="0" y="0" font-family="Helvetica, Segoe UI Emoji" font-size="28px" fill="#1e1e1e" text-anchor="start" style="white-space: pre;" direction="ltr" dominant-baseline="text-before-edge">...</text></g><g stroke-linecap="round" transform="translate(1140.2758654822117 587.3286620663371) rotate(0 84.56741342722336 21.183142270806457)"><path d="M10.59 0 C60.64 -1.78, 110.41 0.58, 158.54 0 M10.59 0 C48.96 -2.11, 89.23 -2, 158.54 0 M158.54 0 C164.39 1.3, 167.75 2.46, 169.13 10.59 M158.54 0 C164.37 -2.04, 169.83 3.94, 169.13 10.59 M169.13 10.59 C169.77 18.99, 169.92 22.44, 169.13 31.77 M169.13 10.59 C168.41 16.74, 169.24 25.05, 169.13 31.77 M169.13 31.77 C169.79 40.63, 166.74 40.57, 158.54 42.37 M169.13 31.77 C167.03 39.4, 165.68 44.59, 158.54 42.37 M158.54 42.37 C106.73 45.03, 58.56 43.88, 10.59 42.37 M158.54 42.37 C101.29 42.82, 45.14 41.8, 10.59 42.37 M10.59 42.37 C3.02 43.86, -0.09 37.08, 0 31.77 M10.59 42.37 C5.73 43.85, 2.16 40.45, 0 31.77 M0 31.77 C-0.12 26.42, 0.94 19.81, 0 10.59 M0 31.77 C-0.48 24.28, 0.21 15.91, 0 10.59 M0 10.59 C0.35 3.39, 4.66 0.42, 10.59 0 M0 10.59 C0.46 2.4, 2.63 1.5, 10.59 0" stroke="#1e1e1e" stroke-width="2" fill="none"></path></g><g transform="translate(1168.593278909435 598.9118043371435) rotate(0 56.25 9.600000000000023)"><text x="56.25" y="0" font-family="Cascadia, Segoe UI Emoji" font-size="16px" fill="#1e1e1e" text-anchor="middle" style="white-space: pre;" direction="ltr" dominant-baseline="text-before-edge">addAddress()</text></g><g stroke-linecap="round" transform="translate(1139.5434436072117 647.0129068580037) rotate(0 84.56741342722336 21.1831422708064)"><path d="M10.59 0 C65.82 2.21, 123.49 1.18, 158.54 0 M10.59 0 C68.66 0.49, 125.33 1.81, 158.54 0 M158.54 0 C164.22 -1.07, 168.06 1.76, 169.13 10.59 M158.54 0 C166.3 0.41, 169.54 5.09, 169.13 10.59 M169.13 10.59 C169.83 15.67, 169.87 22.66, 169.13 31.77 M169.13 10.59 C169.25 17.09, 169.34 23.9, 169.13 31.77 M169.13 31.77 C170.28 37.04, 163.78 42.85, 158.54 42.37 M169.13 31.77 C169.21 41.06, 166.57 41.01, 158.54 42.37 M158.54 42.37 C101.87 43.5, 44.35 42.77, 10.59 42.37 M158.54 42.37 C113.84 42.61, 70.65 43.87, 10.59 42.37 M10.59 42.37 C3.44 40.61, 1.91 40.12, 0 31.77 M10.59 42.37 C5.69 43.98, -0.26 39.4, 0 31.77 M0 31.77 C1 24.9, 1.15 19.24, 0 10.59 M0 31.77 C0.46 26.28, 0.24 22.17, 0 10.59 M0 10.59 C1.13 3.95, 3.93 -0.98, 10.59 0 M0 10.59 C-0.9 5.03, 3.65 0.21, 10.59 0" stroke="#1e1e1e" stroke-width="2" fill="none"></path></g><g transform="translate(1153.798357034435 658.5960491288101) rotate(0 70.3125 9.600000000000023)"><text x="70.3125" y="0" font-family="Cascadia, Segoe UI Emoji" font-size="16px" fill="#1e1e1e" text-anchor="middle" style="white-space: pre;" direction="ltr" dominant-baseline="text-before-edge">changeAddress()</text></g><g stroke-linecap="round"><g transform="translate(447.34818806328826 396.072718885465) rotate(0 -118.64420572916669 54.508463541666686)"><path d="M-1.02 -0.01 C-40.58 18.26, -197.29 90.66, -236.72 108.97 M0.64 -1.06 C-39.08 17.46, -197.51 92.31, -237.37 110.49" stroke="#1e1e1e" stroke-width="2" fill="none"></path></g></g><mask></mask><g stroke-linecap="round"><g transform="translate(442.5583018302698 396.12968503129844) rotate(0 116.0502158436575 68.70500197671919)"><path d="M-1.05 1.06 C37.31 23.95, 192.33 113.71, 231.23 136.52 M0.6 0.57 C39.24 23.67, 194.96 115.05, 233.48 137.59" stroke="#1e1e1e" stroke-width="2" fill="none"></path></g></g><mask></mask><g stroke-linecap="round" transform="translate(954.068744929981 157.53495906606508) rotate(0 100.55859375000006 79.90329825429797)"><path d="M32 0 C84.36 0.84, 136.68 0.06, 169.12 0 M32 0 C66.16 0.31, 100.01 -0.66, 169.12 0 M169.12 0 C188.77 1.55, 202.88 12.27, 201.12 32 M169.12 0 C192.21 -2.09, 201.24 11.62, 201.12 32 M201.12 32 C203.27 60.67, 203.91 88.2, 201.12 127.81 M201.12 32 C202.31 55.9, 201.41 80.51, 201.12 127.81 M201.12 127.81 C199.61 149.14, 188.49 158.76, 169.12 159.81 M201.12 127.81 C200.93 147.72, 192.55 161.07, 169.12 159.81 M169.12 159.81 C129.85 159.49, 90.91 159.97, 32 159.81 M169.12 159.81 C118.45 159.78, 65.78 158.23, 32 159.81 M32 159.81 C11.28 161.67, 0.16 147.79, 0 127.81 M32 159.81 C11.67 160.78, 0.86 148.68, 0 127.81 M0 127.81 C-1.2 91.3, -0.79 56.46, 0 32 M0 127.81 C1.42 97.97, 1.01 67.9, 0 32 M0 32 C0.61 12.39, 11.89 1.2, 32 0 M0 32 C2.03 12.9, 11.73 2.28, 32 0" stroke="#1e1e1e" stroke-width="2" fill="none"></path></g><g transform="translate(1007.0913857742437 171.57510496911232) rotate(0 49.659942626953125 12.5)"><text x="0" y="0" font-family="Virgil, Segoe UI Emoji" font-size="20px" fill="#1e1e1e" text-anchor="start" style="white-space: pre;" direction="ltr" dominant-baseline="text-before-edge">TestSuite</text></g><g stroke-linecap="round" transform="translate(972.7878081105716 209.84441792610698) rotate(0 84.56741342722336 21.183142270806428)"><path d="M10.59 0 C64.13 -0.3, 119.89 -0.68, 158.54 0 M10.59 0 C61.06 1.53, 114.08 1.56, 158.54 0 M158.54 0 C167.13 -1.82, 169.24 4.36, 169.13 10.59 M158.54 0 C165.39 2.26, 169.64 4.93, 169.13 10.59 M169.13 10.59 C168.45 19.12, 169.96 26.15, 169.13 31.77 M169.13 10.59 C168.31 15.59, 168.09 20.07, 169.13 31.77 M169.13 31.77 C168.97 37.6, 167.43 43.47, 158.54 42.37 M169.13 31.77 C168.71 37.25, 165.87 41.6, 158.54 42.37 M158.54 42.37 C119.15 42.73, 75.93 43.47, 10.59 42.37 M158.54 42.37 C105.87 41.86, 52.66 40.25, 10.59 42.37 M10.59 42.37 C4.4 43.21, 0.75 38.43, 0 31.77 M10.59 42.37 C5.1 43.73, 1.74 38.11, 0 31.77 M0 31.77 C0.29 25.7, -0.65 23.53, 0 10.59 M0 31.77 C0.19 25.84, 0.5 18.78, 0 10.59 M0 10.59 C1.76 5.47, 4.45 1.99, 10.59 0 M0 10.59 C-1.32 1.93, 2.13 0.79, 10.59 0" stroke="#1e1e1e" stroke-width="2" fill="none"></path></g><g transform="translate(987.0427215377952 221.42756019691342) rotate(0 70.3125 9.599999999999994)"><text x="70.3125" y="0" font-family="Cascadia, Segoe UI Emoji" font-size="16px" fill="#1e1e1e" text-anchor="middle" style="white-space: pre;" direction="ltr" dominant-baseline="text-before-edge">testProposals()</text></g><g transform="translate(1042.1746766789795 267.15850094036375) rotate(0 11.6689453125 16.099999999999994)"><text x="0" y="0" font-family="Helvetica, Segoe UI Emoji" font-size="28px" fill="#1e1e1e" text-anchor="start" style="white-space: pre;" direction="ltr" dominant-baseline="text-before-edge">...</text></g><g stroke-linecap="round" transform="translate(1303.3811612806785 163.7743364173661) rotate(0 100.55859375 79.90329825429794)"><path d="M32 0 C88.58 -0.18, 139.76 -1.34, 169.12 0 M32 0 C71.73 -0.54, 112.24 0.45, 169.12 0 M169.12 0 C189.99 -1.47, 201.48 11.28, 201.12 32 M169.12 0 C190.98 1.62, 201.54 11.06, 201.12 32 M201.12 32 C200.01 56.68, 201.37 86.96, 201.12 127.81 M201.12 32 C202.15 57.16, 201 82.91, 201.12 127.81 M201.12 127.81 C200.57 147.69, 190.52 158.62, 169.12 159.81 M201.12 127.81 C201.2 150.56, 192.52 160.99, 169.12 159.81 M169.12 159.81 C124.35 159.72, 79.97 160.62, 32 159.81 M169.12 159.81 C135.4 160.54, 102.3 159.89, 32 159.81 M32 159.81 C12.11 160.39, 0.31 148.97, 0 127.81 M32 159.81 C12.7 160.73, -1.59 148.91, 0 127.81 M0 127.81 C-0.08 106.61, 0.72 86.47, 0 32 M0 127.81 C-0.75 98.94, 0.2 70.15, 0 32 M0 32 C-1.54 11.69, 9.24 0.6, 32 0 M0 32 C-1.76 11.42, 8.38 0.01, 32 0" stroke="#1e1e1e" stroke-width="2" fill="none"></path></g><g transform="translate(1357.864145493002 176.76974581167002) rotate(0 53.23993682861328 12.5)"><text x="0" y="0" font-family="Virgil, Segoe UI Emoji" font-size="20px" fill="#1e1e1e" text-anchor="start" style="white-space: pre;" direction="ltr" dominant-baseline="text-before-edge">ScriptSuite</text></g><g stroke-linecap="round" transform="translate(1322.1002244612691 216.083795277408) rotate(0 84.56741342722341 21.183142270806428)"><path d="M10.59 0 C54.03 2.53, 97.77 -0.45, 158.54 0 M10.59 0 C47.8 -1.51, 85.64 -0.46, 158.54 0 M158.54 0 C166.07 1.41, 169.5 3.87, 169.13 10.59 M158.54 0 C165.08 -1.58, 166.89 3.01, 169.13 10.59 M169.13 10.59 C168.61 15.69, 168.07 20.7, 169.13 31.77 M169.13 10.59 C168.76 14.94, 169.07 20.14, 169.13 31.77 M169.13 31.77 C169.2 40.07, 167.4 43.39, 158.54 42.37 M169.13 31.77 C169.61 37.97, 167.37 41.44, 158.54 42.37 M158.54 42.37 C121.55 41.14, 86.58 42.3, 10.59 42.37 M158.54 42.37 C102.72 42.91, 45.61 42.54, 10.59 42.37 M10.59 42.37 C5.3 43.17, -1.39 38.64, 0 31.77 M10.59 42.37 C1.6 41.39, 0.8 38.28, 0 31.77 M0 31.77 C0.03 26.83, 0.74 19.49, 0 10.59 M0 31.77 C-0.9 25.58, -0.85 18.67, 0 10.59 M0 10.59 C-1.53 4.19, 1.54 0.01, 10.59 0 M0 10.59 C1.85 3.04, 3.41 -1.4, 10.59 0" stroke="#1e1e1e" stroke-width="2" fill="none"></path></g><g transform="translate(1383.2301378884927 227.66693754821443) rotate(0 23.4375 9.599999999999994)"><text x="23.4375" y="0" font-family="Cascadia, Segoe UI Emoji" font-size="16px" fill="#1e1e1e" text-anchor="middle" style="white-space: pre;" direction="ltr" dominant-baseline="text-before-edge">run()</text></g><g transform="translate(1391.487093029677 273.39787829166477) rotate(0 11.6689453125 16.099999999999994)"><text x="0" y="0" font-family="Helvetica, Segoe UI Emoji" font-size="28px" fill="#1e1e1e" text-anchor="start" style="white-space: pre;" direction="ltr" dominant-baseline="text-before-edge">...</text></g><g stroke-linecap="round"><g transform="translate(855.1153462515807 102.41374466704337) rotate(0 -0.00908430232561841 345.59411337209343)"><path d="M0.8 0.87 C0.78 115.79, 0.25 575.65, 0.05 690.66 M-0.24 0.29 C-0.42 115.86, -0.68 576.61, -0.87 691.91" stroke="#1e1e1e" stroke-width="2" fill="none"></path></g></g><mask></mask><g transform="translate(609.2700640320556 18.101773648648418) rotate(0 221.00393676757812 22.5)"><text x="0" y="0" font-family="Virgil, Segoe UI Emoji" font-size="36px" fill="#1e1e1e" text-anchor="start" style="white-space: pre;" direction="ltr" dominant-baseline="text-before-edge">Forge Proposal Simulator</text></g><g stroke-linecap="round" transform="translate(11.235164399763221 967.5350458382509) rotate(0 788.4265988372105 414.35010622851064)"><path d="M32 0 C425.71 -6.97, 817.06 -7.73, 1544.85 0 C1564.71 -1.99, 1575.8 8.03, 1576.85 32 C1572.96 211.05, 1574.22 393.2, 1576.85 796.7 C1577.55 819.81, 1563.73 828.45, 1544.85 828.7 C1142.24 818.93, 739.68 817.91, 32 828.7 C13.79 827.85, -0.96 814.67, 0 796.7 C2.86 597.95, 3.24 400.11, 0 32 C-0.6 13.18, 11.23 1.96, 32 0" stroke="none" stroke-width="0" fill="#e9ecef"></path><path d="M32 0 C619.99 -3.1, 1206.43 -1.77, 1544.85 0 M32 0 C469.06 5.15, 905.57 4.84, 1544.85 0 M1544.85 0 C1565.03 -1.49, 1578.26 11.33, 1576.85 32 M1544.85 0 C1565.68 -0.15, 1576.24 10.63, 1576.85 32 M1576.85 32 C1574.27 194.11, 1574.67 355.66, 1576.85 796.7 M1576.85 32 C1579.96 205.1, 1580.13 377.99, 1576.85 796.7 M1576.85 796.7 C1576.62 817.07, 1565.25 830.68, 1544.85 828.7 M1576.85 796.7 C1576.78 819.84, 1564.3 830.3, 1544.85 828.7 M1544.85 828.7 C1158.17 833.41, 770.18 833.87, 32 828.7 M1544.85 828.7 C1124.91 830, 704.6 830.26, 32 828.7 M32 828.7 C10.92 829.98, -0.64 817.24, 0 796.7 M32 828.7 C11.97 830.38, -0.01 818.89, 0 796.7 M0 796.7 C0.2 528.36, 0.32 258.52, 0 32 M0 796.7 C1.92 586.33, 2.18 376.26, 0 32 M0 32 C0.12 11.43, 9.32 0.39, 32 0 M0 32 C-1.22 9.78, 8.86 0.55, 32 0" stroke="transparent" stroke-width="2" fill="none"></path></g><g transform="translate(517.0429742340053 986.9538289050778) rotate(0 262.5299072265625 22.5)"><text x="0" y="0" font-family="Virgil, Segoe UI Emoji" font-size="36px" fill="#1e1e1e" text-anchor="start" style="white-space: pre;" direction="ltr" dominant-baseline="text-before-edge">Timelock Governance Protocol</text></g><g stroke-linecap="round" transform="translate(88.67566500248785 1219.6549907251874) rotate(0 128.87890625 199.92115759941476)"><path d="M32 0 C75.69 -0.64, 118.86 -0.99, 225.76 0 M32 0 C74.07 -0.26, 115.32 -1.22, 225.76 0 M225.76 0 C249.03 -1.77, 258.43 9.13, 257.76 32 M225.76 0 C247.8 2.28, 256.6 9.48, 257.76 32 M257.76 32 C258.86 161.65, 257.81 292.95, 257.76 367.84 M257.76 32 C257.66 112, 257.42 190.64, 257.76 367.84 M257.76 367.84 C256.61 390.46, 247.39 398.05, 225.76 399.84 M257.76 367.84 C256.63 390.59, 248.22 398.99, 225.76 399.84 M225.76 399.84 C156.27 400.5, 91.01 398.15, 32 399.84 M225.76 399.84 C149.9 401.04, 74.06 402.16, 32 399.84 M32 399.84 C12.08 398.18, -0.07 389.65, 0 367.84 M32 399.84 C9.35 400.17, -1.96 391.43, 0 367.84 M0 367.84 C1.08 279.44, 2.33 189.77, 0 32 M0 367.84 C-1.32 268.83, -1.27 170.57, 0 32 M0 32 C-0.13 9.22, 9.99 0.84, 32 0 M0 32 C0.62 10.64, 9.65 0.09, 32 0" stroke="#1e1e1e" stroke-width="2" fill="none"></path></g><g transform="translate(134.15370917134447 1231.4219802357356) rotate(0 70.99995422363281 12.5)"><text x="0" y="0" font-family="Virgil, Segoe UI Emoji" font-size="20px" fill="#1e1e1e" text-anchor="start" style="white-space: pre;" direction="ltr" dominant-baseline="text-before-edge">PROPOSAL_01</text></g><g stroke-linecap="round" transform="translate(106.80032197482223 1269.9489631827764) rotate(0 110.06790170847339 28)"><path d="M14 0 C65.27 0.6, 120.67 1.38, 206.14 0 M206.14 0 C216.41 -0.47, 219.16 6.6, 220.14 14 M220.14 14 C220.85 21.9, 219.22 24.81, 220.14 42 M220.14 42 C221.92 52.53, 215.54 55.63, 206.14 56 M206.14 56 C162.3 54.68, 120.94 57.22, 14 56 M14 56 C6.4 57.17, -0.59 50.18, 0 42 M0 42 C-1.02 33.04, 0.94 20.86, 0 14 M0 14 C1.04 5.28, 3.93 -1.31, 14 0" stroke="#1e1e1e" stroke-width="2.5" fill="none" stroke-dasharray="8 10"></path></g><g transform="translate(174.68072368329564 1288.3489631827765) rotate(0 42.1875 9.600000000000023)"><text x="42.1875" y="0" font-family="Cascadia, Segoe UI Emoji" font-size="16px" fill="#1e1e1e" text-anchor="middle" style="white-space: pre;" direction="ltr" dominant-baseline="text-before-edge">_deploy()</text></g><g stroke-linecap="round" transform="translate(105.72038689287234 1337.892944117446) rotate(0 110.25914519805673 24.56778971354163)"><path d="M12.28 0 C70.01 -1.03, 124.88 1.37, 208.23 0 M208.23 0 C214.65 0.67, 218.98 4.71, 220.52 12.28 M220.52 12.28 C222.18 23.28, 220.47 31.52, 220.52 36.85 M220.52 36.85 C218.95 43.1, 215.72 47.86, 208.23 49.14 M208.23 49.14 C157.49 52.16, 102.69 49.83, 12.28 49.14 M12.28 49.14 C5.38 49.44, -1.8 44.06, 0 36.85 M0 36.85 C0.92 28.57, -0.85 17.77, 0 12.28 M0 12.28 C1.36 5.72, 3.11 1.82, 12.28 0" stroke="#1e1e1e" stroke-width="2.5" fill="none" stroke-dasharray="8 10"></path></g><g transform="translate(150.35453209092907 1352.8607338309876) rotate(0 65.625 9.600000000000023)"><text x="65.625" y="0" font-family="Cascadia, Segoe UI Emoji" font-size="16px" fill="#1e1e1e" text-anchor="middle" style="white-space: pre;" direction="ltr" dominant-baseline="text-before-edge">_afterDeploy()</text></g><g stroke-linecap="round" transform="translate(106.06665507546643 1402.6305860195062) rotate(0 109.23375457305671 24.327718098958258)"><path d="M12.16 0 C64.08 -1.21, 118 -1.26, 206.3 0 M206.3 0 C216.39 -1.01, 217.44 5.84, 218.47 12.16 M218.47 12.16 C216.91 18.98, 217.78 28.4, 218.47 36.49 M218.47 36.49 C217.82 44.55, 216.3 50.38, 206.3 48.66 M206.3 48.66 C137.98 47.84, 65.29 46.56, 12.16 48.66 M12.16 48.66 C5.29 49.64, -0.74 45.64, 0 36.49 M0 36.49 C1.45 30.08, -0.9 22.24, 0 12.16 M0 12.16 C-1.73 5.74, 3.96 -0.85, 12.16 0" stroke="#1e1e1e" stroke-width="2.5" fill="none" stroke-dasharray="8 10"></path></g><g transform="translate(177.80040964852316 1417.3583041184645) rotate(0 37.5 9.600000000000023)"><text x="37.5" y="0" font-family="Cascadia, Segoe UI Emoji" font-size="16px" fill="#1e1e1e" text-anchor="middle" style="white-space: pre;" direction="ltr" dominant-baseline="text-before-edge">_build()</text></g><g stroke-linecap="round" transform="translate(109.57483959927595 1476.6047303647438) rotate(0 109.23375457305671 24.327718098958258)"><path d="M12.16 0 C78.93 -1.6, 140.7 1.19, 206.3 0 M206.3 0 C215.61 0.07, 218.1 2.49, 218.47 12.16 M218.47 12.16 C217.74 17.05, 220.27 23.78, 218.47 36.49 M218.47 36.49 C219.64 44.01, 213.26 49.94, 206.3 48.66 M206.3 48.66 C146.37 48.69, 83.24 48.74, 12.16 48.66 M12.16 48.66 C4.66 47.92, -1.31 45.97, 0 36.49 M0 36.49 C-1.61 28.9, 0.02 17.09, 0 12.16 M0 12.16 C-0.18 5.43, 5.47 -1.66, 12.16 0" stroke="#1e1e1e" stroke-width="2.5" fill="none" stroke-dasharray="8 10"></path></g><g transform="translate(190.68359417233268 1491.3324484637021) rotate(0 28.125 9.600000000000023)"><text x="28.125" y="0" font-family="Cascadia, Segoe UI Emoji" font-size="16px" fill="#1e1e1e" text-anchor="middle" style="white-space: pre;" direction="ltr" dominant-baseline="text-before-edge">_run()</text></g><g stroke-linecap="round" transform="translate(110.97235149393822 1542.2590458817904) rotate(0 109.23375457305671 24.327718098958258)"><path d="M12.16 0 C61.84 -1.66, 108.75 -3.3, 206.3 0 M206.3 0 C212.48 -0.7, 217.2 3.41, 218.47 12.16 M218.47 12.16 C219.87 18.81, 217.55 27.92, 218.47 36.49 M218.47 36.49 C218.77 42.8, 213.43 49.89, 206.3 48.66 M206.3 48.66 C139.13 48.93, 69.43 51.03, 12.16 48.66 M12.16 48.66 C5.68 47.67, 1.82 42.87, 0 36.49 M0 36.49 C-0.16 28.52, 1.43 16.15, 0 12.16 M0 12.16 C-0.07 4.53, 2.91 0.28, 12.16 0" stroke="#1e1e1e" stroke-width="2.5" fill="none" stroke-dasharray="8 10"></path></g><g transform="translate(173.33110606699495 1556.9867639807487) rotate(0 46.875 9.600000000000023)"><text x="46.875" y="0" font-family="Cascadia, Segoe UI Emoji" font-size="16px" fill="#1e1e1e" text-anchor="middle" style="white-space: pre;" direction="ltr" dominant-baseline="text-before-edge">validate()</text></g><g stroke-linecap="round" transform="translate(397.9735015593928 1220.0298203956231) rotate(0 128.87890624999997 143.19297537726698)"><path d="M32 0 C70.9 -0.56, 113.03 -0.83, 225.76 0 M32 0 C94.81 1.64, 157.03 0.63, 225.76 0 M225.76 0 C247.34 1.96, 257.71 9.73, 257.76 32 M225.76 0 C246.55 -1.71, 257.99 9.59, 257.76 32 M257.76 32 C255.74 97.53, 257.01 161.92, 257.76 254.39 M257.76 32 C257.84 85.68, 256.92 140.38, 257.76 254.39 M257.76 254.39 C259.46 276.45, 248.11 288, 225.76 286.39 M257.76 254.39 C259.4 274.23, 246.56 287.31, 225.76 286.39 M225.76 286.39 C161.53 285.37, 94.4 284.8, 32 286.39 M225.76 286.39 C157.78 286.55, 90.75 287.1, 32 286.39 M32 286.39 C10.67 284.95, -1.51 274.32, 0 254.39 M32 286.39 C9.82 284.72, -0.36 277.91, 0 254.39 M0 254.39 C0.15 165.46, 1.24 76.43, 0 32 M0 254.39 C-1.82 205.1, -1.98 155.14, 0 32 M0 32 C-1.06 12.38, 10 -0.93, 32 0 M0 32 C-1.97 11.55, 9.82 1.87, 32 0" stroke="#1e1e1e" stroke-width="2" fill="none"></path></g><g transform="translate(443.4515457282494 1231.7968099061713) rotate(0 75.40995025634766 12.5)"><text x="0" y="0" font-family="Virgil, Segoe UI Emoji" font-size="20px" fill="#1e1e1e" text-anchor="start" style="white-space: pre;" direction="ltr" dominant-baseline="text-before-edge">PROPOSAL_02</text></g><g stroke-linecap="round" transform="translate(424.0489039017336 1290.3749359672752) rotate(0 109.2337545730567 24.327718098958258)"><path d="M12.16 0 C66.69 -0.29, 116.35 -0.72, 206.3 0 M206.3 0 C212.93 0.2, 217.53 3.89, 218.47 12.16 M218.47 12.16 C219.33 18.51, 218.71 23.62, 218.47 36.49 M218.47 36.49 C217.93 45.16, 215.79 47.05, 206.3 48.66 M206.3 48.66 C156.11 51.33, 106.08 51.74, 12.16 48.66 M12.16 48.66 C2.76 48.2, 0.8 45.32, 0 36.49 M0 36.49 C-0.37 29.99, -0.93 26.94, 0 12.16 M0 12.16 C1.76 4.41, 2.58 -0.36, 12.16 0" stroke="#1e1e1e" stroke-width="2.5" fill="none" stroke-dasharray="8 10"></path></g><g transform="translate(495.7826584747903 1305.1026540662335) rotate(0 37.5 9.600000000000023)"><text x="37.5" y="0" font-family="Cascadia, Segoe UI Emoji" font-size="16px" fill="#1e1e1e" text-anchor="middle" style="white-space: pre;" direction="ltr" dominant-baseline="text-before-edge">_build()</text></g><g stroke-linecap="round" transform="translate(425.32106865519233 1360.56948560392) rotate(0 109.23375457305673 24.327718098958258)"><path d="M12.16 0 C68.49 0.66, 126.85 0.3, 206.3 0 M206.3 0 C213.58 1.27, 217.06 4.76, 218.47 12.16 M218.47 12.16 C217.94 20.1, 219.86 25.32, 218.47 36.49 M218.47 36.49 C217.71 43.77, 216.12 49.38, 206.3 48.66 M206.3 48.66 C136.9 49.58, 70.89 50.75, 12.16 48.66 M12.16 48.66 C2.37 48.06, 0.82 44.16, 0 36.49 M0 36.49 C1.88 31.09, -1.36 24.6, 0 12.16 M0 12.16 C-1.07 4.79, 4.06 -1.44, 12.16 0" stroke="#1e1e1e" stroke-width="2.5" fill="none" stroke-dasharray="8 10"></path></g><g transform="translate(506.42982322824906 1375.2972037028783) rotate(0 28.125 9.600000000000023)"><text x="28.125" y="0" font-family="Cascadia, Segoe UI Emoji" font-size="16px" fill="#1e1e1e" text-anchor="middle" style="white-space: pre;" direction="ltr" dominant-baseline="text-before-edge">_run()</text></g><g stroke-linecap="round" transform="translate(426.0817949703987 1431.6410345246163) rotate(0 109.2337545730567 24.327718098958258)"><path d="M12.16 0 C83.78 1.67, 153.55 -1.56, 206.3 0 M206.3 0 C214.65 1.93, 218.76 5.27, 218.47 12.16 M218.47 12.16 C216.73 18.31, 216.93 26.43, 218.47 36.49 M218.47 36.49 C216.95 43.78, 216 49.89, 206.3 48.66 M206.3 48.66 C166.1 47.43, 130.19 47, 12.16 48.66 M12.16 48.66 C5.18 48.2, -1.87 45.48, 0 36.49 M0 36.49 C-1.52 25.92, -0.35 17.48, 0 12.16 M0 12.16 C-0.79 4.89, 5.87 -0.06, 12.16 0" stroke="#1e1e1e" stroke-width="2.5" fill="none" stroke-dasharray="8 10"></path></g><g transform="translate(488.4405495434554 1446.3687526235747) rotate(0 46.875 9.600000000000023)"><text x="46.875" y="0" font-family="Cascadia, Segoe UI Emoji" font-size="16px" fill="#1e1e1e" text-anchor="middle" style="white-space: pre;" direction="ltr" dominant-baseline="text-before-edge">validate()</text></g><g stroke-linecap="round" transform="translate(951.893004347639 1134.8911846376598) rotate(0 128.7086425363883 79.90329825429797)"><path d="M32 0 C79.42 0.89, 129.05 0.55, 225.42 0 M32 0 C86.84 -1.27, 140.67 -0.73, 225.42 0 M225.42 0 C247.98 -0.52, 255.52 11.41, 257.42 32 M225.42 0 C246.66 -0.31, 255.68 8.65, 257.42 32 M257.42 32 C258.24 57.63, 257.82 81.25, 257.42 127.81 M257.42 32 C255.6 59.32, 256.66 86.77, 257.42 127.81 M257.42 127.81 C256.79 148.41, 247.74 158.64, 225.42 159.81 M257.42 127.81 C256.35 146.88, 248.49 160, 225.42 159.81 M225.42 159.81 C167.94 159.5, 115.8 158.04, 32 159.81 M225.42 159.81 C161.77 159.58, 97.38 161.29, 32 159.81 M32 159.81 C12.48 161.53, 0.09 148.68, 0 127.81 M32 159.81 C8.64 157.79, 0.95 149.15, 0 127.81 M0 127.81 C2.73 90.53, 0.84 52.25, 0 32 M0 127.81 C0.09 89.28, 0.18 52.8, 0 32 M0 32 C-0.99 11.25, 9.33 0.9, 32 0 M0 32 C0.37 12.77, 12.8 2.01, 32 0" stroke="#1e1e1e" stroke-width="2" fill="none"></path></g><g transform="translate(978.6119890352296 1152.183042552805) rotate(0 105.367919921875 10)"><text x="0" y="0" font-family="Virgil, Segoe UI Emoji" font-size="16px" fill="#1e1e1e" text-anchor="start" style="white-space: pre;" direction="ltr" dominant-baseline="text-before-edge">TimelockPostProposalCheck</text></g><g stroke-linecap="round" transform="translate(996.9847207063757 1203.7923299270774) rotate(0 84.56741342722341 21.183142270806457)"><path d="M10.59 0 C51.86 1.97, 95.13 2.29, 158.54 0 M10.59 0 C53.35 -0.84, 93.94 -0.21, 158.54 0 M158.54 0 C165.52 -0.27, 167.63 1.78, 169.13 10.59 M158.54 0 C164.83 1.22, 168.3 3.89, 169.13 10.59 M169.13 10.59 C168.9 15.15, 169.58 21.71, 169.13 31.77 M169.13 10.59 C168.86 15.82, 169.66 21.19, 169.13 31.77 M169.13 31.77 C168.21 36.87, 167.12 42.53, 158.54 42.37 M169.13 31.77 C168.87 38.42, 163.87 40.43, 158.54 42.37 M158.54 42.37 C106.2 42.24, 53.44 42.22, 10.59 42.37 M158.54 42.37 C129.3 44.34, 98.28 43.24, 10.59 42.37 M10.59 42.37 C1.77 40.62, 0.82 38.85, 0 31.77 M10.59 42.37 C5.68 40.32, -1.75 40.99, 0 31.77 M0 31.77 C1.91 25.79, 1.73 19.12, 0 10.59 M0 31.77 C-0.62 27.11, -0.79 22.33, 0 10.59 M0 10.59 C0.32 5.36, 5.39 1.75, 10.59 0 M0 10.59 C0.55 1.73, 1.65 1.6, 10.59 0" stroke="#1e1e1e" stroke-width="2" fill="none"></path></g><g transform="translate(1048.7396341335989 1215.3754721978837) rotate(0 32.8125 9.600000000000023)"><text x="32.8125" y="0" font-family="Cascadia, Segoe UI Emoji" font-size="16px" fill="#1e1e1e" text-anchor="middle" style="white-space: pre;" direction="ltr" dominant-baseline="text-before-edge">setUp()</text></g><g stroke-linecap="round" transform="translate(948.3115987232687 1387.0787060945743) rotate(0 128.7086425363883 104.43026075862065)"><path d="M32 0 C99.22 3.24, 165.18 2.34, 225.42 0 M32 0 C100.62 -0.45, 171.71 -0.79, 225.42 0 M225.42 0 C247.21 -0.18, 258.4 12.34, 257.42 32 M225.42 0 C248.26 -0.6, 257.45 12.27, 257.42 32 M257.42 32 C255.31 83.37, 256.76 134.41, 257.42 176.86 M257.42 32 C258.04 64.43, 256.97 98.39, 257.42 176.86 M257.42 176.86 C258.39 199.64, 246.95 210.35, 225.42 208.86 M257.42 176.86 C256.68 197.26, 244.83 207.65, 225.42 208.86 M225.42 208.86 C163.62 210.99, 102.23 210.98, 32 208.86 M225.42 208.86 C165.71 207.3, 104.44 208.92, 32 208.86 M32 208.86 C12.56 207.59, -1.05 200.06, 0 176.86 M32 208.86 C12.58 211.09, -0.16 199.33, 0 176.86 M0 176.86 C1.52 130.66, -1.63 81.84, 0 32 M0 176.86 C1.64 124.95, 1.31 70.57, 0 32 M0 32 C1.06 10.1, 9.77 -0.42, 32 0 M0 32 C1.17 11.42, 9.74 -0.35, 32 0" stroke="#1e1e1e" stroke-width="2" fill="none"></path></g><g transform="translate(992.5706609917212 1398.971876111134) rotate(0 85.0639419555664 10)"><text x="0" y="0" font-family="Virgil, Segoe UI Emoji" font-size="16px" fill="#1e1e1e" text-anchor="start" style="white-space: pre;" direction="ltr" dominant-baseline="text-before-edge">TimelockProposalTest</text></g><g stroke-linecap="round" transform="translate(992.5624359285008 1426.8050007537101) rotate(0 84.56741342722341 21.183142270806457)"><path d="M10.59 0 C67.97 -0.91, 124.1 -2.49, 158.54 0 M10.59 0 C64.9 -0.56, 119.24 0.36, 158.54 0 M158.54 0 C166.92 -0.53, 169.16 4.92, 169.13 10.59 M158.54 0 C166.92 -1.36, 168.85 2.1, 169.13 10.59 M169.13 10.59 C167.68 16.3, 170.97 24.18, 169.13 31.77 M169.13 10.59 C169.57 16.92, 169.18 22.54, 169.13 31.77 M169.13 31.77 C168.49 38.02, 163.94 41.31, 158.54 42.37 M169.13 31.77 C169.52 39.46, 167.36 41.75, 158.54 42.37 M158.54 42.37 C109.58 41.09, 59.32 44.53, 10.59 42.37 M158.54 42.37 C126.97 42.94, 92.97 44.51, 10.59 42.37 M10.59 42.37 C5.19 44.31, -0.14 39.82, 0 31.77 M10.59 42.37 C4.19 42.95, 1.91 41.01, 0 31.77 M0 31.77 C1.42 22.07, 0.87 16.67, 0 10.59 M0 31.77 C0.54 23.35, -0.44 15.28, 0 10.59 M0 10.59 C1.02 4.19, 2.73 -0.3, 10.59 0 M0 10.59 C1.27 5.05, 2.28 -2.11, 10.59 0" stroke="#1e1e1e" stroke-width="2" fill="none"></path></g><g transform="translate(1034.9423493557242 1438.3881430245165) rotate(0 42.1875 9.600000000000023)"><text x="42.1875" y="0" font-family="Cascadia, Segoe UI Emoji" font-size="16px" fill="#1e1e1e" text-anchor="middle" style="white-space: pre;" direction="ltr" dominant-baseline="text-before-edge">test_01()</text></g><g stroke-linecap="round" transform="translate(994.2437461758929 1480.238236859064) rotate(0 84.56741342722341 21.183142270806457)"><path d="M10.59 0 C68.25 1.56, 129.52 0.09, 158.54 0 M10.59 0 C61.43 -0.03, 111.6 0.52, 158.54 0 M158.54 0 C165.98 -0.78, 168.4 5.05, 169.13 10.59 M158.54 0 C165.35 0.53, 167.26 5.78, 169.13 10.59 M169.13 10.59 C167.11 19.66, 168.38 25.72, 169.13 31.77 M169.13 10.59 C169.66 17.18, 168.4 22.92, 169.13 31.77 M169.13 31.77 C169.04 37.61, 166.2 44.21, 158.54 42.37 M169.13 31.77 C169.39 40.51, 166 42.18, 158.54 42.37 M158.54 42.37 C111.42 40.86, 62.66 40.07, 10.59 42.37 M158.54 42.37 C120.23 42.81, 80.21 42.96, 10.59 42.37 M10.59 42.37 C4.63 42.83, 0.2 36.85, 0 31.77 M10.59 42.37 C2.07 40.79, 0.89 40.53, 0 31.77 M0 31.77 C-0.85 23.41, 1.83 17.14, 0 10.59 M0 31.77 C0.03 24.08, 0.62 16.35, 0 10.59 M0 10.59 C1.78 5.19, 2.31 -1.54, 10.59 0 M0 10.59 C-2.24 1.59, 3 2.24, 10.59 0" stroke="#1e1e1e" stroke-width="2" fill="none"></path></g><g transform="translate(1036.6236596031163 1491.8213791298704) rotate(0 42.1875 9.600000000000023)"><text x="42.1875" y="0" font-family="Cascadia, Segoe UI Emoji" font-size="16px" fill="#1e1e1e" text-anchor="middle" style="white-space: pre;" direction="ltr" dominant-baseline="text-before-edge">test_02()</text></g><g stroke-linecap="round" transform="translate(994.6811933921086 1533.8612710800312) rotate(0 84.56741342722341 21.183142270806457)"><path d="M10.59 0 C52.64 1.27, 91.42 -1.29, 158.54 0 M10.59 0 C53.29 0.93, 95.97 1.76, 158.54 0 M158.54 0 C164.19 0.08, 170.28 3.94, 169.13 10.59 M158.54 0 C167.29 1.61, 170.89 1.6, 169.13 10.59 M169.13 10.59 C167.49 17.11, 167.94 23.37, 169.13 31.77 M169.13 10.59 C169.6 16.06, 169.66 20.1, 169.13 31.77 M169.13 31.77 C170.19 39.65, 163.78 40.73, 158.54 42.37 M169.13 31.77 C168.73 38.06, 167.63 40.28, 158.54 42.37 M158.54 42.37 C122.21 40.74, 81.15 39.26, 10.59 42.37 M158.54 42.37 C119.41 41.56, 82.63 41.48, 10.59 42.37 M10.59 42.37 C2.7 40.63, 0.13 37.12, 0 31.77 M10.59 42.37 C4.27 41.24, -0.06 38.37, 0 31.77 M0 31.77 C-0.4 23.53, 1.17 14.79, 0 10.59 M0 31.77 C0.62 25.35, 0.08 18.89, 0 10.59 M0 10.59 C-0.5 2.49, 2.16 -1.29, 10.59 0 M0 10.59 C-0.02 1.46, 1.65 -1.66, 10.59 0" stroke="#1e1e1e" stroke-width="2" fill="none"></path></g><g transform="translate(1037.061106819332 1545.4444133508375) rotate(0 42.1875 9.600000000000023)"><text x="42.1875" y="0" font-family="Cascadia, Segoe UI Emoji" font-size="16px" fill="#1e1e1e" text-anchor="middle" style="white-space: pre;" direction="ltr" dominant-baseline="text-before-edge">test_03()</text></g><g stroke-linecap="round"><g transform="translate(1080.2066766130183 1300.1675021274339) rotate(0 -0.032643692295096116 39.81801188512304)"><path d="M-0.99 0.76 C-0.9 14.05, -0.78 67.19, -0.45 80.16 M0.69 0.11 C0.68 13.01, -1.61 65.11, -1.6 78.31" stroke="#1e1e1e" stroke-width="2" fill="none"></path></g></g><mask></mask><g stroke-linecap="round"><g transform="translate(945.8232562942951 1218.0297523813674) rotate(0 -373.1865082309354 262.22969709012364)"><path d="M0 0 C-26.73 -0.59, -51.06 0.02, -66.58 -1.8 M-66.58 -1.8 C-68.71 196.37, -68.26 394.6, -66.55 526.25 M-66.55 526.25 C-224.02 524.14, -382.84 523.09, -746.37 524.12 M-746.37 524.12 C-746.69 479.35, -746.72 433.68, -745.59 410.91" stroke="#1e1e1e" stroke-width="1.5" fill="none" stroke-dasharray="8 9"></path></g><g transform="translate(945.8232562942951 1218.0297523813674) rotate(0 -373.1865082309354 262.22969709012364)"><path d="M-737.7 434.63 C-742.03 425.64, -744.02 417.9, -745.59 410.91" stroke="#1e1e1e" stroke-width="1.5" fill="none"></path></g><g transform="translate(945.8232562942951 1218.0297523813674) rotate(0 -373.1865082309354 262.22969709012364)"><path d="M-754.79 434.16 C-752.62 425.33, -748.1 417.77, -745.59 410.91" stroke="#1e1e1e" stroke-width="1.5" fill="none"></path></g></g><mask></mask><g stroke-linecap="round"><g transform="translate(947.1723404598573 1215.9407119402379) rotate(0 -203.3330186197034 263.13485014442074)"><path d="M0 0 C-13.31 1.29, -27.18 0.13, -67.74 -1.5 M-67.74 -1.5 C-69.92 117.31, -69.18 236.17, -67.92 527.77 M-67.92 527.77 C-173.14 525.64, -279.46 524.78, -406.67 525.82 M-406.67 525.82 C-404.11 467.75, -405.73 412.79, -405.1 304.55" stroke="#1e1e1e" stroke-width="1.5" fill="none" stroke-dasharray="8 9"></path></g><g transform="translate(947.1723404598573 1215.9407119402379) rotate(0 -203.3330186197034 263.13485014442074)"><path d="M-396.59 328.06 C-397.06 324.12, -398.18 318.23, -405.1 304.55" stroke="#1e1e1e" stroke-width="1.5" fill="none"></path></g><g transform="translate(947.1723404598573 1215.9407119402379) rotate(0 -203.3330186197034 263.13485014442074)"><path d="M-413.69 328.03 C-410.48 323.96, -407.92 318.07, -405.1 304.55" stroke="#1e1e1e" stroke-width="1.5" fill="none"></path></g></g><mask></mask><g stroke-linecap="round"><g transform="translate(214.3630059821769 770.6454022537221) rotate(0 1.0122291599526747 222.57400617860128)"><path d="M0 0 C0.36 167.73, 1.84 334.65, 2.02 445.15 M0 0 C1.58 140.62, 2.39 282.4, 2.02 445.15" stroke="#1e1e1e" stroke-width="2" fill="none"></path></g></g><mask></mask><g stroke-linecap="round"><g transform="translate(216.2537029894857 770.3935064076356) rotate(0 148.84448535334474 221.24650771654956)"><path d="M0 0 C-2.56 80.65, -1.29 159.75, -0.56 289.34 M0 0 C-1.37 80.37, -2.03 160.8, -0.56 289.34 M-0.56 289.34 C73.48 291.8, 148.26 290.71, 295.26 288.99 M-0.56 289.34 C66.29 289.12, 133.09 289.8, 295.26 288.99 M295.26 288.99 C294.84 321.31, 297.15 354.95, 298.25 442.49 M295.26 288.99 C296.23 324.22, 297.07 357.5, 298.25 442.49" stroke="#1e1e1e" stroke-width="2" fill="none"></path></g></g><mask></mask><g stroke-linecap="round"><g transform="translate(1053.1869375697665 1131.0831635184495) rotate(0 2.990193618481669 -402.36686637501975)"><path d="M0 0 C0.89 -83.5, 1.39 -169.82, 3.95 -322.48 M3.95 -322.48 C4.38 -327.07, 2.27 -329.81, 3.43 -336.4 M3.43 -336.4 C4.75 -520.35, 5.68 -704.98, 5.98 -804.73" stroke="#1e1e1e" stroke-width="2.5" fill="none" stroke-dasharray="8 10"></path></g><g transform="translate(1053.1869375697665 1131.0831635184495) rotate(0 2.990193618481669 -402.36686637501975)"><path d="M14.44 -781.21 C12.29 -786.2, 9.31 -795.26, 5.98 -804.73" stroke="#1e1e1e" stroke-width="2.5" fill="none"></path></g><g transform="translate(1053.1869375697665 1131.0831635184495) rotate(0 2.990193618481669 -402.36686637501975)"><path d="M-2.66 -781.28 C-0.34 -786.28, 1.15 -795.32, 5.98 -804.73" stroke="#1e1e1e" stroke-width="2.5" fill="none"></path></g></g><mask></mask><g stroke-linecap="round"><g transform="translate(1157.239981843375 228.72058096612716) rotate(0 37.38906385382165 123.48288106518433)"><path d="M0 0 C22.32 -0.79, 44.06 1.27, 74.78 -0.2 M74.78 -0.2 C74.7 51.25, 74.46 99.22, 74.56 247.17" stroke="#1e1e1e" stroke-width="2.5" fill="none" stroke-dasharray="8 10"></path></g><g transform="translate(1157.239981843375 228.72058096612716) rotate(0 37.38906385382165 123.48288106518433)"><path d="M66.01 223.68 C68.53 230.58, 70.27 239.79, 74.56 247.17" stroke="#1e1e1e" stroke-width="2.5" fill="none"></path></g><g transform="translate(1157.239981843375 228.72058096612716) rotate(0 37.38906385382165 123.48288106518433)"><path d="M83.11 223.67 C80.46 230.71, 77.04 239.93, 74.56 247.17" stroke="#1e1e1e" stroke-width="2.5" fill="none"></path></g></g><mask></mask><g stroke-linecap="round"><g transform="translate(1302.3232413081555 228.8084073352897) rotate(0 -35.77234949883939 123.87796313740853)"><path d="M0 0 C-20.73 1.39, -39.83 -0.07, -70.45 -0.04 M-70.45 -0.04 C-72.88 65.62, -71.08 129.63, -71.54 247.79" stroke="#1e1e1e" stroke-width="2.5" fill="none" stroke-dasharray="8 10"></path></g><g transform="translate(1302.3232413081555 228.8084073352897) rotate(0 -35.77234949883939 123.87796313740853)"><path d="M-80.1 224.3 C-79.3 231.91, -76.97 236.83, -71.54 247.79" stroke="#1e1e1e" stroke-width="2.5" fill="none"></path></g><g transform="translate(1302.3232413081555 228.8084073352897) rotate(0 -35.77234949883939 123.87796313740853)"><path d="M-63 224.3 C-66.84 231.94, -69.15 236.87, -71.54 247.79" stroke="#1e1e1e" stroke-width="2.5" fill="none"></path></g></g><mask></mask><g stroke-linecap="round" transform="translate(1271.1574470980436 1138.1831669533149) rotate(0 128.7086425363883 79.90329825429797)"><path d="M32 0 C77.16 -1.57, 121.21 0.81, 225.42 0 M32 0 C90.17 0.37, 151.02 -0.8, 225.42 0 M225.42 0 C245.91 0.74, 255.5 9.25, 257.42 32 M225.42 0 C246.73 0.51, 257.31 8.95, 257.42 32 M257.42 32 C257.53 56.66, 255.33 79.43, 257.42 127.81 M257.42 32 C256.31 56.47, 256.71 82.56, 257.42 127.81 M257.42 127.81 C256.57 148.46, 246.57 157.88, 225.42 159.81 M257.42 127.81 C256.61 148.94, 247.35 157.9, 225.42 159.81 M225.42 159.81 C159.55 159.19, 95.18 159.16, 32 159.81 M225.42 159.81 C172.12 159.46, 121.17 159.2, 32 159.81 M32 159.81 C12.18 161.33, -0.3 150.74, 0 127.81 M32 159.81 C12.96 159.83, 0.66 149.99, 0 127.81 M0 127.81 C-0.64 91.1, -1.85 51.27, 0 32 M0 127.81 C1.35 101.4, 1.11 74.83, 0 32 M0 32 C-1.22 9.3, 12.58 -1.27, 32 0 M0 32 C-1.11 10.39, 11.75 0.54, 32 0" stroke="#1e1e1e" stroke-width="2" fill="none"></path></g><g transform="translate(1297.8764317856344 1155.47502486846) rotate(0 95.59992980957031 10)"><text x="0" y="0" font-family="Virgil, Segoe UI Emoji" font-size="16px" fill="#1e1e1e" text-anchor="start" style="white-space: pre;" direction="ltr" dominant-baseline="text-before-edge">TimelockProposal01Script</text></g><g stroke-linecap="round" transform="translate(1316.2491634567805 1207.0843122427323) rotate(0 84.56741342722341 21.183142270806457)"><path d="M10.59 0 C42.99 0.78, 75.67 -2.3, 158.54 0 M10.59 0 C66.98 0.87, 123.26 -0.21, 158.54 0 M158.54 0 C165.58 0.45, 169.04 2.04, 169.13 10.59 M158.54 0 C164.5 -1, 170.36 4.13, 169.13 10.59 M169.13 10.59 C168.22 15.77, 167.71 23.78, 169.13 31.77 M169.13 10.59 C168.73 15.05, 169.07 19.22, 169.13 31.77 M169.13 31.77 C168.43 38.66, 166.13 40.7, 158.54 42.37 M169.13 31.77 C169.9 38.16, 165.05 40.72, 158.54 42.37 M158.54 42.37 C114.66 43.53, 71.19 40.51, 10.59 42.37 M158.54 42.37 C109.51 43.28, 58.82 43.32, 10.59 42.37 M10.59 42.37 C5.53 42.39, 0.58 39.58, 0 31.77 M10.59 42.37 C5.82 44.24, -0.54 38.99, 0 31.77 M0 31.77 C-0.41 22.4, -0.18 17.13, 0 10.59 M0 31.77 C-0.71 25.14, 0.86 19.24, 0 10.59 M0 10.59 C-0.97 3.29, 4.47 0.47, 10.59 0 M0 10.59 C1.07 2.89, 2.55 0.78, 10.59 0" stroke="#1e1e1e" stroke-width="2" fill="none"></path></g><g transform="translate(1377.379076884004 1218.6674545135386) rotate(0 23.4375 9.600000000000023)"><text x="23.4375" y="0" font-family="Cascadia, Segoe UI Emoji" font-size="16px" fill="#1e1e1e" text-anchor="middle" style="white-space: pre;" direction="ltr" dominant-baseline="text-before-edge">run()</text></g><g stroke-linecap="round"><g transform="translate(1401.6109223847543 1135.0317793937284) rotate(0 -3.558386916104382 -403.8262115492105)"><path d="M0 0 C-2.26 -286.96, -5.11 -575.56, -7.12 -807.65" stroke="#1e1e1e" stroke-width="2.5" fill="none" stroke-dasharray="8 10"></path></g><g transform="translate(1401.6109223847543 1135.0317793937284) rotate(0 -3.558386916104382 -403.8262115492105)"><path d="M1.64 -784.24 C0.28 -790.71, -3.62 -801.25, -7.12 -807.65" stroke="#1e1e1e" stroke-width="2.5" fill="none"></path></g><g transform="translate(1401.6109223847543 1135.0317793937284) rotate(0 -3.558386916104382 -403.8262115492105)"><path d="M-15.46 -784.08 C-10.73 -790.48, -8.54 -801.07, -7.12 -807.65" stroke="#1e1e1e" stroke-width="2.5" fill="none"></path></g></g><mask></mask></svg>