<svg version="1.1" xmlns="http://www.w3.org/2000/svg" viewBox="0 0 1846.217256225368 2739.97758253715" width="3692.434512450736" height="5479.9551650743">
  <!-- svg-source:excalidraw -->
  
  <defs>
    <style class="style-fonts">
      @font-face {
        font-family: "Virgil";
        src: url("https://excalidraw.com/Virgil.woff2");
      }
      @font-face {
        font-family: "Cascadia";
        src: url("https://excalidraw.com/Cascadia.woff2");
      }
      @font-face {
        font-family: "Assistant";
        src: url("https://excalidraw.com/Assistant-Regular.woff2");
      }
    </style>
    
  </defs>
  <g stroke-linecap="round" transform="translate(17.798739689421836 1514.116928100265) rotate(0 909.209258267973 607.9303272184422)"><path d="M32 0 C496.6 0, 961.2 0, 1786.42 0 C1807.75 0, 1818.42 10.67, 1818.42 32 C1818.42 444.59, 1818.42 857.18, 1818.42 1183.86 C1818.42 1205.19, 1807.75 1215.86, 1786.42 1215.86 C1218.67 1215.86, 650.93 1215.86, 32 1215.86 C10.67 1215.86, 0 1205.19, 0 1183.86 C0 807.95, 0 432.05, 0 32 C0 10.67, 10.67 0, 32 0" stroke="none" stroke-width="0" fill="#e9ecef"></path><path d="M32 0 C423.07 0, 814.15 0, 1786.42 0 M32 0 C487.67 0, 943.35 0, 1786.42 0 M1786.42 0 C1807.75 0, 1818.42 10.67, 1818.42 32 M1786.42 0 C1807.75 0, 1818.42 10.67, 1818.42 32 M1818.42 32 C1818.42 293.71, 1818.42 555.42, 1818.42 1183.86 M1818.42 32 C1818.42 367.7, 1818.42 703.4, 1818.42 1183.86 M1818.42 1183.86 C1818.42 1205.19, 1807.75 1215.86, 1786.42 1215.86 M1818.42 1183.86 C1818.42 1205.19, 1807.75 1215.86, 1786.42 1215.86 M1786.42 1215.86 C1415.42 1215.86, 1044.41 1215.86, 32 1215.86 M1786.42 1215.86 C1275.05 1215.86, 763.69 1215.86, 32 1215.86 M32 1215.86 C10.67 1215.86, 0 1205.19, 0 1183.86 M32 1215.86 C10.67 1215.86, 0 1205.19, 0 1183.86 M0 1183.86 C0 935.62, 0 687.37, 0 32 M0 1183.86 C0 948.95, 0 714.05, 0 32 M0 32 C0 10.67, 10.67 0, 32 0 M0 32 C0 10.67, 10.67 0, 32 0" stroke="transparent" stroke-width="1" fill="none"></path></g><g stroke-linecap="round" transform="translate(10 10) rotate(0 912.6010910852781 681.1023118282612)"><path d="M32 0 C713.49 0, 1394.98 0, 1793.2 0 C1814.54 0, 1825.2 10.67, 1825.2 32 C1825.2 423.32, 1825.2 814.64, 1825.2 1330.2 C1825.2 1351.54, 1814.54 1362.2, 1793.2 1362.2 C1180.2 1362.2, 567.2 1362.2, 32 1362.2 C10.67 1362.2, 0 1351.54, 0 1330.2 C0 846.93, 0 363.65, 0 32 C0 10.67, 10.67 0, 32 0" stroke="none" stroke-width="0" fill="#e9ecef"></path><path d="M32 0 C521.08 0, 1010.16 0, 1793.2 0 M32 0 C507.67 0, 983.33 0, 1793.2 0 M1793.2 0 C1814.54 0, 1825.2 10.67, 1825.2 32 M1793.2 0 C1814.54 0, 1825.2 10.67, 1825.2 32 M1825.2 32 C1825.2 337.28, 1825.2 642.56, 1825.2 1330.2 M1825.2 32 C1825.2 319.94, 1825.2 607.89, 1825.2 1330.2 M1825.2 1330.2 C1825.2 1351.54, 1814.54 1362.2, 1793.2 1362.2 M1825.2 1330.2 C1825.2 1351.54, 1814.54 1362.2, 1793.2 1362.2 M1793.2 1362.2 C1249.27 1362.2, 705.33 1362.2, 32 1362.2 M1793.2 1362.2 C1108.74 1362.2, 424.27 1362.2, 32 1362.2 M32 1362.2 C10.67 1362.2, 0 1351.54, 0 1330.2 M32 1362.2 C10.67 1362.2, 0 1351.54, 0 1330.2 M0 1330.2 C0 832.97, 0 335.74, 0 32 M0 1330.2 C0 961.1, 0 591.99, 0 32 M0 32 C0 10.67, 10.67 0, 32 0 M0 32 C0 10.67, 10.67 0, 32 0" stroke="transparent" stroke-width="1" fill="none"></path></g><g transform="translate(559.5038080755324 1593.580976524063) rotate(0 262.5299072265625 22.5)"><text x="0" y="31.536" font-family="Virgil, Segoe UI Emoji" font-size="36px" fill="#1e1e1e" text-anchor="start" style="white-space: pre;" direction="ltr" dominant-baseline="alphabetic">Timelock Governance Protocol</text></g><g stroke-linecap="round" transform="translate(324.5747621790641 254.32868041605684) rotate(0 144.1779238853828 183.2100347851462)"><path d="M32 0 C87.02 2.56, 146.34 0.29, 256.36 0 M32 0 C117.33 4.08, 201.08 3.66, 256.36 0 M256.36 0 C279.7 3.98, 285.44 7.45, 288.36 32 M256.36 0 C274.71 -4.24, 285.91 15.06, 288.36 32 M288.36 32 C285.7 94.48, 290.04 163.12, 288.36 334.42 M288.36 32 C287.49 129.11, 288.29 227, 288.36 334.42 M288.36 334.42 C286.12 352.89, 274.15 367.63, 256.36 366.42 M288.36 334.42 C288.76 359.42, 278.38 365.89, 256.36 366.42 M256.36 366.42 C193.71 369.52, 124.44 367.86, 32 366.42 M256.36 366.42 C203.61 369.39, 152.47 368.67, 32 366.42 M32 366.42 C7.32 365.39, -3.38 358.05, 0 334.42 M32 366.42 C14.49 367.51, 1.76 359.43, 0 334.42 M0 334.42 C3.78 247.08, 6.04 159.64, 0 32 M0 334.42 C2.29 221.41, 4 111.56, 0 32 M0 32 C2.68 13.78, 9.26 -3.41, 32 0 M0 32 C4 10.56, 7.34 -2.53, 32 0" stroke="#1e1e1e" stroke-width="2" fill="none"></path></g><g transform="translate(720.8693407293057 89.04963117982493) rotate(0 221.00393676757812 22.5)"><text x="0" y="31.536" font-family="Virgil, Segoe UI Emoji" font-size="36px" fill="#1e1e1e" text-anchor="start" style="white-space: pre;" direction="ltr" dominant-baseline="alphabetic">Forge Proposal Simulator</text></g><g stroke-linecap="round" transform="translate(346.99799179055424 312.34813576135207) rotate(0 118.27754595699548 18.62659992820562)"><path d="M9.31 0 C72.02 6.82, 126.89 5.1, 227.24 0 M9.31 0 C92.15 -0.23, 171.97 -3.35, 227.24 0 M227.24 0 C230.86 -3.69, 234.43 6.92, 236.56 9.31 M227.24 0 C229.59 -0.39, 240.54 -0.49, 236.56 9.31 M236.56 9.31 C237.61 12.99, 236.66 14.9, 236.56 27.94 M236.56 9.31 C235.52 13.5, 234.92 20.91, 236.56 27.94 M236.56 27.94 C236.91 37.34, 234.05 36.79, 227.24 37.25 M236.56 27.94 C236.22 33.76, 233.39 41.33, 227.24 37.25 M227.24 37.25 C139.42 37.04, 58.59 36.3, 9.31 37.25 M227.24 37.25 C151.97 36.7, 78.15 38.15, 9.31 37.25 M9.31 37.25 C6.43 38.2, 1.53 37.35, 0 27.94 M9.31 37.25 C2.53 32.83, -3.02 33.43, 0 27.94 M0 27.94 C2.36 20.19, -1.2 15.85, 0 9.31 M0 27.94 C0.95 25.39, -0.96 18.36, 0 9.31 M0 9.31 C3.48 3.02, 0.21 -2.2, 9.31 0 M0 9.31 C-1.3 7.34, 3.25 -3.12, 9.31 0" stroke="#1e1e1e" stroke-width="2" fill="none"></path></g><g transform="translate(437.1505377475497 321.3747356895577) rotate(0 28.125000000000007 9.600000000000023)"><text x="28.125" y="15.45" font-family="Cascadia, Segoe UI Emoji" font-size="16px" fill="#1e1e1e" text-anchor="middle" style="white-space: pre;" direction="ltr" dominant-baseline="alphabetic">name()</text></g><g stroke-linecap="round" transform="translate(345.9521372958342 366.3462466242961) rotate(0 118.27754595699548 18.62659992820562)"><path d="M9.31 0 C98.58 -1.69, 184.34 -0.07, 227.24 0 M9.31 0 C95.25 1.44, 182.51 4.71, 227.24 0 M227.24 0 C230.09 -0.34, 240.02 -0.02, 236.56 9.31 M227.24 0 C228.95 3.26, 237.26 4.08, 236.56 9.31 M236.56 9.31 C236.4 14.95, 238.24 18.32, 236.56 27.94 M236.56 9.31 C236.39 15.06, 236.5 17.61, 236.56 27.94 M236.56 27.94 C236.27 33.81, 233.4 40.8, 227.24 37.25 M236.56 27.94 C240.77 33.44, 235.45 34, 227.24 37.25 M227.24 37.25 C174.84 32.48, 119.65 31.51, 9.31 37.25 M227.24 37.25 C168.9 39.85, 108.34 40.83, 9.31 37.25 M9.31 37.25 C2.61 33.41, -2.62 33.52, 0 27.94 M9.31 37.25 C2.53 40.1, -1.3 37.35, 0 27.94 M0 27.94 C-3.08 26.54, 1.82 21.65, 0 9.31 M0 27.94 C1.75 20.86, -1.22 12.84, 0 9.31 M0 9.31 C-1.13 6.78, 3.23 -2.71, 9.31 0 M0 9.31 C-3.88 5.78, 4.05 0.07, 9.31 0" stroke="#1e1e1e" stroke-width="2" fill="none"></path></g><g transform="translate(403.29218325282966 375.37284655250176) rotate(0 60.93750000000001 9.600000000000023)"><text x="60.9375" y="15.45" font-family="Cascadia, Segoe UI Emoji" font-size="16px" fill="#1e1e1e" text-anchor="middle" style="white-space: pre;" direction="ltr" dominant-baseline="alphabetic">description()</text></g><g stroke-linecap="round" transform="translate(346.89573957623804 420.5024723013546) rotate(0 118.27754595699548 18.62659992820562)"><path d="M9.31 0 C78.94 -4.44, 138.84 -4.17, 227.24 0 M9.31 0 C53.13 -3.77, 101.38 -4.98, 227.24 0 M227.24 0 C229.53 2.83, 237.17 3.96, 236.56 9.31 M227.24 0 C233.34 -0.2, 234.16 2.93, 236.56 9.31 M236.56 9.31 C234.06 11.65, 237.86 20.91, 236.56 27.94 M236.56 9.31 C236.48 16.23, 236.59 25.11, 236.56 27.94 M236.56 27.94 C240.22 33.53, 235.19 34.43, 227.24 37.25 M236.56 27.94 C234.1 36.89, 230.02 39.03, 227.24 37.25 M227.24 37.25 C173.17 31.14, 122.89 36.97, 9.31 37.25 M227.24 37.25 C156.48 38.62, 85.01 40.01, 9.31 37.25 M9.31 37.25 C2.61 39.73, -1.13 36.93, 0 27.94 M9.31 37.25 C0.15 36.05, -1.69 30.22, 0 27.94 M0 27.94 C2.73 19.54, -3.35 17.01, 0 9.31 M0 27.94 C-0.26 24.11, 0.33 15.59, 0 9.31 M0 9.31 C-3.38 5.43, 3.93 0.06, 9.31 0 M0 9.31 C2.67 1.89, -1.28 -4.27, 9.31 0" stroke="#1e1e1e" stroke-width="2" fill="none"></path></g><g transform="translate(441.7357855332335 429.52907222956026) rotate(0 23.437500000000007 9.600000000000023)"><text x="23.4375" y="15.45" font-family="Cascadia, Segoe UI Emoji" font-size="16px" fill="#1e1e1e" text-anchor="middle" style="white-space: pre;" direction="ltr" dominant-baseline="alphabetic">run()</text></g><g stroke-linecap="round" transform="translate(346.6721112901304 476.218641632722) rotate(0 118.27754595699548 18.62659992820562)"><path d="M9.31 0 C55.62 0.61, 111.66 -0.46, 227.24 0 M9.31 0 C71.12 4.2, 136.61 3.34, 227.24 0 M227.24 0 C233.36 -0.17, 234.47 2.95, 236.56 9.31 M227.24 0 C233.56 2.11, 233.98 -0.19, 236.56 9.31 M236.56 9.31 C239.64 13.81, 236.24 16.92, 236.56 27.94 M236.56 9.31 C238.26 14.45, 237.36 18.86, 236.56 27.94 M236.56 27.94 C234.42 36.54, 230.47 38.8, 227.24 37.25 M236.56 27.94 C233.98 34.02, 229.6 36.07, 227.24 37.25 M227.24 37.25 C181.1 41.73, 136.09 39.97, 9.31 37.25 M227.24 37.25 C182.58 37.73, 137.86 37.87, 9.31 37.25 M9.31 37.25 C0.54 36.21, -1.47 30.73, 0 27.94 M9.31 37.25 C6.8 39.38, 3.09 37.73, 0 27.94 M0 27.94 C0.23 20.31, -1.73 17.02, 0 9.31 M0 27.94 C-1.58 21.72, 0.37 13.36, 0 9.31 M0 9.31 C2.32 2.05, -0.71 -3.72, 9.31 0 M0 9.31 C-0.73 2.89, 1.97 -3.05, 9.31 0" stroke="#1e1e1e" stroke-width="2" fill="none"></path></g><g transform="translate(404.01215724712586 485.24524156092764) rotate(0 60.93750000000001 9.600000000000023)"><text x="60.9375" y="15.45" font-family="Cascadia, Segoe UI Emoji" font-size="16px" fill="#1e1e1e" text-anchor="middle" style="white-space: pre;" direction="ltr" dominant-baseline="alphabetic">getCalldata()</text></g><g stroke-linecap="round" transform="translate(347.2654093227269 529.971245525099) rotate(0 118.27754595699548 18.62659992820565)"><path d="M9.31 0 C62.82 6.2, 114.2 -0.22, 227.24 0 M9.31 0 C90.07 -0.88, 170.01 -0.87, 227.24 0 M227.24 0 C233.55 1.83, 234.32 0.24, 236.56 9.31 M227.24 0 C229.38 1.4, 236.96 6.78, 236.56 9.31 M236.56 9.31 C236.19 15.13, 239.81 24.46, 236.56 27.94 M236.56 9.31 C235.72 15.72, 235.33 20.63, 236.56 27.94 M236.56 27.94 C234.32 34.04, 230.1 36.23, 227.24 37.25 M236.56 27.94 C232.67 36.79, 237.27 38.34, 227.24 37.25 M227.24 37.25 C150.2 34.5, 79.29 36.35, 9.31 37.25 M227.24 37.25 C147.27 39.44, 68.9 38.41, 9.31 37.25 M9.31 37.25 C6.32 39.1, 2.68 37.27, 0 27.94 M9.31 37.25 C1.49 33.33, 4 34.05, 0 27.94 M0 27.94 C3.63 23.82, -2.32 16.31, 0 9.31 M0 27.94 C1 20.78, -1.85 12.87, 0 9.31 M0 9.31 C-0.64 2.92, 2.12 -2.66, 9.31 0 M0 9.31 C1.09 5.86, 5.32 -0.23, 9.31 0" stroke="#1e1e1e" stroke-width="2" fill="none"></path></g><g transform="translate(362.4179552797224 538.9978454533046) rotate(0 103.125 9.599999999999994)"><text x="103.125" y="15.45" font-family="Cascadia, Segoe UI Emoji" font-size="16px" fill="#1e1e1e" text-anchor="middle" style="white-space: pre;" direction="ltr" dominant-baseline="alphabetic">checkOnchainCalldata()</text></g><g stroke-linecap="round"><g transform="translate(259.47414072123763 745.1206829863004) rotate(0 102.29736988374574 -62.261197797550466)"><path d="M0 0 C34.1 -20.75, 170.5 -103.77, 204.59 -124.52 M0 0 C34.1 -20.75, 170.5 -103.77, 204.59 -124.52" stroke="#1e1e1e" stroke-width="2" fill="none"></path></g></g><mask></mask><g stroke-linecap="round" transform="translate(110.13469945910265 742.5507242190401) rotate(0 144.3915567229732 187.81088701777435)"><path d="M32 0 C78.16 -0.67, 122.7 -2.38, 256.78 0 M32 0 C97.62 -2.99, 163.64 -1.25, 256.78 0 M256.78 0 C278.47 3.19, 289.38 10.2, 288.78 32 M256.78 0 C277.79 -0.39, 288.72 14.74, 288.78 32 M288.78 32 C286.08 152.54, 289.8 274, 288.78 343.62 M288.78 32 C285.1 137.18, 285.09 243.91, 288.78 343.62 M288.78 343.62 C292.1 365.9, 279.64 378.82, 256.78 375.62 M288.78 343.62 C288.21 360.54, 275.1 374.9, 256.78 375.62 M256.78 375.62 C194.52 372.33, 126.58 373.27, 32 375.62 M256.78 375.62 C209.69 378.74, 159.7 375.94, 32 375.62 M32 375.62 C14.14 375.53, -2.89 362.76, 0 343.62 M32 375.62 C9.37 379.85, 0.15 361.84, 0 343.62 M0 343.62 C-2.55 278.1, -3.34 206.55, 0 32 M0 343.62 C0.36 278.13, 1.05 215.4, 0 32 M0 32 C1.92 10.46, 8.76 -0.66, 32 0 M0 32 C-3.07 7.66, 14.84 -1.73, 32 0" stroke="#1e1e1e" stroke-width="2" fill="none"></path></g><g transform="translate(155.1497995695912 767.0825755022281) rotate(0 89.21916198730469 13.645562380895143)"><text x="0" y="19.125620233062627" font-family="Virgil, Segoe UI Emoji" font-size="21.832899809432224px" fill="#1e1e1e" text-anchor="start" style="white-space: pre;" direction="ltr" dominant-baseline="alphabetic">TimelockProposal</text></g><g stroke-linecap="round" transform="translate(129.14416957429694 949.1491864029811) rotate(0 118.27754595699547 18.626599928205643)"><path d="M9.31 0 C74.05 2.06, 140.65 0.03, 227.24 0 M9.31 0 C59.26 0.24, 109.16 -1.35, 227.24 0 M227.24 0 C233.16 -0.34, 236.5 6.65, 236.56 9.31 M227.24 0 C237.67 -0.71, 238.55 -0.14, 236.56 9.31 M236.56 9.31 C238.22 11.82, 236.68 15.39, 236.56 27.94 M236.56 9.31 C237.79 14.86, 236.95 21.02, 236.56 27.94 M236.56 27.94 C236.06 30.31, 230.83 36.63, 227.24 37.25 M236.56 27.94 C235.99 36.99, 232.15 40.45, 227.24 37.25 M227.24 37.25 C172.87 38.66, 126.05 38.19, 9.31 37.25 M227.24 37.25 C146.39 33.98, 61.26 33.06, 9.31 37.25 M9.31 37.25 C1.97 40.93, 0.13 31.44, 0 27.94 M9.31 37.25 C-0.78 39.93, 0.95 34.21, 0 27.94 M0 27.94 C-3.36 20.68, -0.08 13.69, 0 9.31 M0 27.94 C0.81 23.49, -0.98 18.93, 0 9.31 M0 9.31 C-2.67 0.49, 6.74 -1.5, 9.31 0 M0 9.31 C-2.9 4.32, 3.35 3.32, 9.31 0" stroke="#1e1e1e" stroke-width="2" fill="none"></path></g><g transform="translate(144.29671553129242 958.1757863311867) rotate(0 103.125 9.600000000000001)"><text x="103.125" y="15.45" font-family="Cascadia, Segoe UI Emoji" font-size="16px" fill="#1e1e1e" text-anchor="middle" style="white-space: pre;" direction="ltr" dominant-baseline="alphabetic">checkOnchainCalldata()</text></g><g stroke-linecap="round" transform="translate(131.0359374934028 880.8842620480989) rotate(0 118.27754595699547 18.62659992820565)"><path d="M9.31 0 C72.74 -0.96, 142.2 2.43, 227.24 0 M9.31 0 C91.96 0.29, 174.83 1.98, 227.24 0 M227.24 0 C237.12 -0.62, 238.29 0.28, 236.56 9.31 M227.24 0 C231 2.74, 233.12 4.88, 236.56 9.31 M236.56 9.31 C235.59 10.71, 238.69 21.5, 236.56 27.94 M236.56 9.31 C236.47 13.55, 235.48 21.08, 236.56 27.94 M236.56 27.94 C236.06 36.62, 232.32 40.04, 227.24 37.25 M236.56 27.94 C233.6 32.95, 231.76 33.33, 227.24 37.25 M227.24 37.25 C147.04 38.57, 58.45 42.82, 9.31 37.25 M227.24 37.25 C161.86 36.77, 97.51 33.99, 9.31 37.25 M9.31 37.25 C-0.27 39.58, 0.83 34.21, 0 27.94 M9.31 37.25 C5.78 36.04, -4.38 29.88, 0 27.94 M0 27.94 C-2.46 23.53, 2.25 19.15, 0 9.31 M0 27.94 C-1.07 21.23, 1.87 16.25, 0 9.31 M0 9.31 C-2.52 4.16, 3.32 2.89, 9.31 0 M0 9.31 C-1.82 6.46, 3.43 -1.45, 9.31 0" stroke="#1e1e1e" stroke-width="2" fill="none"></path></g><g transform="translate(155.56348345039828 889.9108619763045) rotate(0 93.75 9.599999999999994)"><text x="93.75" y="15.45" font-family="Cascadia, Segoe UI Emoji" font-size="16px" fill="#1e1e1e" text-anchor="middle" style="white-space: pre;" direction="ltr" dominant-baseline="alphabetic">getExecuteCalldata()</text></g><g stroke-linecap="round" transform="translate(132.9519810230945 814.5251156518777) rotate(0 118.27754595699547 18.62659992820565)"><path d="M9.31 0 C58.18 0.19, 101.08 -0.59, 227.24 0 M9.31 0 C74.43 -3.63, 137.11 -4.59, 227.24 0 M227.24 0 C231.32 2.39, 233.57 4.65, 236.56 9.31 M227.24 0 C230.88 -0.12, 232.71 1.92, 236.56 9.31 M236.56 9.31 C237.65 14.75, 239.75 16.88, 236.56 27.94 M236.56 9.31 C236.08 14.26, 235.78 18.21, 236.56 27.94 M236.56 27.94 C233.99 33.1, 231.98 33.84, 227.24 37.25 M236.56 27.94 C240.26 36.27, 236.54 40.84, 227.24 37.25 M227.24 37.25 C169.45 38.03, 109.91 39.57, 9.31 37.25 M227.24 37.25 C140.35 35.7, 56.75 34.71, 9.31 37.25 M9.31 37.25 C5.43 36.2, -3.81 30.43, 0 27.94 M9.31 37.25 C2.37 37.04, -1.13 31.09, 0 27.94 M0 27.94 C-0.41 20.13, -0.84 13.4, 0 9.31 M0 27.94 C-1.51 24.06, -0.24 20.54, 0 9.31 M0 9.31 C-1.58 6.02, 3.39 -1.26, 9.31 0 M0 9.31 C0.01 -1.17, 5.54 -0.65, 9.31 0" stroke="#1e1e1e" stroke-width="2" fill="none"></path></g><g transform="translate(152.79202698009 823.5517155800834) rotate(0 98.4375 9.599999999999994)"><text x="98.4375" y="15.45" font-family="Cascadia, Segoe UI Emoji" font-size="16px" fill="#1e1e1e" text-anchor="middle" style="white-space: pre;" direction="ltr" dominant-baseline="alphabetic">getScheduleCalldata()</text></g><g stroke-linecap="round" transform="translate(131.23665536597218 1013.5419366146182) rotate(0 119.56557103521651 23.420837854200386)"><path d="M11.71 0 C79.51 0.11, 149.15 1.74, 227.42 0 M227.42 0 C234.92 0.87, 237.72 2.84, 239.13 11.71 M239.13 11.71 C237.84 20.08, 237.28 28.04, 239.13 35.13 M239.13 35.13 C237.44 44.09, 236.89 47.32, 227.42 46.84 M227.42 46.84 C152.79 45.46, 81.24 46.39, 11.71 46.84 M11.71 46.84 C5.14 46.28, 1.39 41.66, 0 35.13 M0 35.13 C1.7 29.64, 1.43 23.86, 0 11.71 M0 11.71 C-0.7 2.2, 5.64 -0.04, 11.71 0" stroke="#1e1e1e" stroke-width="2.5" fill="none" stroke-dasharray="1.5 8"></path></g><g transform="translate(166.4272264011887 1027.3627744688185) rotate(0 84.375 9.6)"><text x="84.375" y="15.45" font-family="Cascadia, Segoe UI Emoji" font-size="16px" fill="#1e1e1e" text-anchor="middle" style="white-space: pre;" direction="ltr" dominant-baseline="alphabetic">_simulateActions()</text></g><g transform="translate(416.69374668184344 271.7710925779172) rotate(0 45.46094512939453 13.645562380895115)"><text x="0" y="19.125620233062627" font-family="Virgil, Segoe UI Emoji" font-size="21.832899809432224px" fill="#1e1e1e" text-anchor="start" style="white-space: pre;" direction="ltr" dominant-baseline="alphabetic">Proposal</text></g><g stroke-linecap="round" transform="translate(621.1241005946048 780.483821543469) rotate(0 144.39155672297323 133.5507385826885)"><path d="M32 0 C117.62 -3.51, 210.15 -4.24, 256.78 0 M32 0 C106.7 -0.34, 182.82 1.09, 256.78 0 M256.78 0 C281.44 0.95, 290.31 13.87, 288.78 32 M256.78 0 C277.55 -4.42, 285.76 9.95, 288.78 32 M288.78 32 C293.52 88.12, 290.09 147.51, 288.78 235.1 M288.78 32 C292.91 76.98, 291.08 117.65, 288.78 235.1 M288.78 235.1 C292.26 256.35, 275.23 264.9, 256.78 267.1 M288.78 235.1 C287.48 260.67, 278.26 263.99, 256.78 267.1 M256.78 267.1 C208.38 269.89, 158.97 264.62, 32 267.1 M256.78 267.1 C209.81 265.78, 164.08 267.95, 32 267.1 M32 267.1 C12.59 266.9, -1.91 255.78, 0 235.1 M32 267.1 C7.6 264.1, 4.18 254.71, 0 235.1 M0 235.1 C1.63 185.56, 1.65 139.1, 0 32 M0 235.1 C0.94 180.34, 0.85 127.71, 0 32 M0 32 C1.8 12.25, 10.32 0.71, 32 0 M0 32 C-3.2 7.17, 6.63 0.38, 32 0" stroke="#1e1e1e" stroke-width="2" fill="none"></path></g><g transform="translate(669.3367879374199 798.8588639556879) rotate(0 85.23517608642578 13.645562380895143)"><text x="0" y="19.125620233062627" font-family="Virgil, Segoe UI Emoji" font-size="21.832899809432224px" fill="#1e1e1e" text-anchor="start" style="white-space: pre;" direction="ltr" dominant-baseline="alphabetic">MultisigProposal</text></g><g stroke-linecap="round" transform="translate(646.4880486096757 907.6457209136563) rotate(0 118.27754595699548 18.626599928205643)"><path d="M9.31 0 C64.41 0.88, 116.72 -0.08, 227.24 0 M9.31 0 C70.54 -1.77, 129.55 -0.79, 227.24 0 M227.24 0 C232.95 -3.84, 233.93 2.48, 236.56 9.31 M227.24 0 C232.88 2.84, 235.25 6.31, 236.56 9.31 M236.56 9.31 C233.28 16.7, 238.18 20.6, 236.56 27.94 M236.56 9.31 C238.04 16.31, 235.08 22.37, 236.56 27.94 M236.56 27.94 C235.42 37.83, 233.58 34.54, 227.24 37.25 M236.56 27.94 C232.67 36.83, 234.4 37.32, 227.24 37.25 M227.24 37.25 C145.98 33.08, 71.02 32.78, 9.31 37.25 M227.24 37.25 C177.17 39.43, 124.59 39.24, 9.31 37.25 M9.31 37.25 C0.43 34.64, 3.63 32.65, 0 27.94 M9.31 37.25 C0.2 38.47, 0.24 37.47, 0 27.94 M0 27.94 C-1.45 23.09, -3.73 20.22, 0 9.31 M0 27.94 C0.66 23.35, -0.34 17.62, 0 9.31 M0 9.31 C-2.78 0.06, -0.4 0.33, 9.31 0 M0 9.31 C0.09 3.7, 2.6 0.65, 9.31 0" stroke="#1e1e1e" stroke-width="2" fill="none"></path></g><g transform="translate(661.6405945666712 916.672320841862) rotate(0 103.125 9.599999999999994)"><text x="103.125" y="15.45" font-family="Cascadia, Segoe UI Emoji" font-size="16px" fill="#1e1e1e" text-anchor="middle" style="white-space: pre;" direction="ltr" dominant-baseline="alphabetic">checkOnchainCalldata()</text></g><g stroke-linecap="round" transform="translate(647.1389693909222 846.3014041053377) rotate(0 118.27754595699548 18.62659992820565)"><path d="M9.31 0 C61.6 0.23, 117.67 6.06, 227.24 0 M9.31 0 C79.64 -4.71, 149.26 -3.31, 227.24 0 M227.24 0 C232.96 2.47, 235.42 5.89, 236.56 9.31 M227.24 0 C230.5 -1.2, 234.86 -0.82, 236.56 9.31 M236.56 9.31 C239.63 15.09, 233.55 26.73, 236.56 27.94 M236.56 9.31 C235.76 16.57, 236.35 19.14, 236.56 27.94 M236.56 27.94 C233.18 36.48, 234.28 37.31, 227.24 37.25 M236.56 27.94 C239.23 32.94, 229.07 32.98, 227.24 37.25 M227.24 37.25 C163.03 37.14, 105.53 37.99, 9.31 37.25 M227.24 37.25 C161.81 35.49, 100.28 35.97, 9.31 37.25 M9.31 37.25 C0.58 38.31, 0.21 37.04, 0 27.94 M9.31 37.25 C1.28 40.61, 0.33 32.7, 0 27.94 M0 27.94 C-0.18 24.14, 3.75 18.44, 0 9.31 M0 27.94 C-1.26 20.2, -1.6 15.44, 0 9.31 M0 9.31 C0.08 3.63, 2.67 0.56, 9.31 0 M0 9.31 C-0.11 1.3, 2.86 -3.83, 9.31 0" stroke="#1e1e1e" stroke-width="2" fill="none"></path></g><g transform="translate(704.4790153479177 855.3280040335434) rotate(0 60.9375 9.599999999999994)"><text x="60.9375" y="15.45" font-family="Cascadia, Segoe UI Emoji" font-size="16px" fill="#1e1e1e" text-anchor="middle" style="white-space: pre;" direction="ltr" dominant-baseline="alphabetic">getCalldata()</text></g><g stroke-linecap="round" transform="translate(648.4933274768331 965.4541235945139) rotate(0 119.56557103521652 23.420837854200386)"><path d="M11.71 0 C58.61 -0.9, 106.09 -1.78, 227.42 0 M227.42 0 C233.31 -1.31, 238.82 3.66, 239.13 11.71 M239.13 11.71 C237.78 19.66, 238.33 26.95, 239.13 35.13 M239.13 35.13 C240.74 43.86, 236.57 48.4, 227.42 46.84 M227.42 46.84 C170.26 47.22, 112.21 47.99, 11.71 46.84 M11.71 46.84 C5.74 46.91, -1.35 41.25, 0 35.13 M0 35.13 C1.11 26.22, -1.95 16.5, 0 11.71 M0 11.71 C-0.32 3.81, 3.41 -1.33, 11.71 0" stroke="#1e1e1e" stroke-width="2.5" fill="none" stroke-dasharray="1.5 8"></path></g><g transform="translate(683.6838985120496 979.2749614487143) rotate(0 84.375 9.600000000000001)"><text x="84.375" y="15.45" font-family="Cascadia, Segoe UI Emoji" font-size="16px" fill="#1e1e1e" text-anchor="middle" style="white-space: pre;" direction="ltr" dominant-baseline="alphabetic">_simulateActions()</text></g><g stroke-linecap="round" transform="translate(1031.8963295820558 782.5574686000793) rotate(0 144.39155672297323 133.5507385826885)"><path d="M32 0 C104.72 -1.78, 183.5 0.05, 256.78 0 M32 0 C112.23 -3.14, 194.03 -4.15, 256.78 0 M256.78 0 C281.33 1.85, 291.47 13.78, 288.78 32 M256.78 0 C276.5 -3.92, 292.78 10.56, 288.78 32 M288.78 32 C290.08 78.36, 284.36 121.48, 288.78 235.1 M288.78 32 C290.57 104.28, 287.83 175.84, 288.78 235.1 M288.78 235.1 C288.14 256.25, 277.13 264.45, 256.78 267.1 M288.78 235.1 C289.87 259.19, 280.33 266.87, 256.78 267.1 M256.78 267.1 C197.83 267.64, 142.08 262.36, 32 267.1 M256.78 267.1 C182.75 271.14, 110.19 269.35, 32 267.1 M32 267.1 C10.67 263.38, 2.12 255.87, 0 235.1 M32 267.1 C12.88 271.3, 2.07 258.26, 0 235.1 M0 235.1 C-3.37 172.81, -0.35 116.86, 0 32 M0 235.1 C0.35 170.82, 0.3 106.45, 0 32 M0 32 C0.02 10.69, 10.56 1.07, 32 0 M0 32 C-2.8 12.77, 13.47 -0.7, 32 0" stroke="#1e1e1e" stroke-width="2" fill="none"></path></g><g transform="translate(1056.7363639627984 802.0395267468737) rotate(0 123.99431610107422 13.645562380895143)"><text x="0" y="19.125620233062627" font-family="Virgil, Segoe UI Emoji" font-size="21.832899809432224px" fill="#1e1e1e" text-anchor="start" style="white-space: pre;" direction="ltr" dominant-baseline="alphabetic">GovernorBravoProposal</text></g><g stroke-linecap="round" transform="translate(1057.2602775971268 909.3964776198779) rotate(0 118.27754595699548 18.626599928205643)"><path d="M9.31 0 C62.54 -0.51, 113.89 -1.76, 227.24 0 M9.31 0 C70.39 4.04, 129.84 4.59, 227.24 0 M227.24 0 C232.04 -3.41, 240.03 3.02, 236.56 9.31 M227.24 0 C230.13 -2.53, 235.25 7.34, 236.56 9.31 M236.56 9.31 C238.47 15.73, 236.36 22.77, 236.56 27.94 M236.56 9.31 C235.9 14.32, 235.74 18.27, 236.56 27.94 M236.56 27.94 C237.5 36.54, 235.37 37.05, 227.24 37.25 M236.56 27.94 C234.36 33.39, 230.38 34.25, 227.24 37.25 M227.24 37.25 C142.99 35.05, 59.42 33.48, 9.31 37.25 M227.24 37.25 C145.98 34.44, 65.64 35.81, 9.31 37.25 M9.31 37.25 C5.03 40.91, 1.8 35.73, 0 27.94 M9.31 37.25 C2.7 38.07, -3.2 30.65, 0 27.94 M0 27.94 C0.46 23.58, 0.49 19.94, 0 9.31 M0 27.94 C0.03 23.09, -0.03 18.72, 0 9.31 M0 9.31 C-2.43 4.93, 5.54 -0.61, 9.31 0 M0 9.31 C4.04 2.6, 0.56 2.82, 9.31 0" stroke="#1e1e1e" stroke-width="2" fill="none"></path></g><g transform="translate(1072.412823554122 918.4230775480836) rotate(0 103.125 9.599999999999994)"><text x="103.125" y="15.45" font-family="Cascadia, Segoe UI Emoji" font-size="16px" fill="#1e1e1e" text-anchor="middle" style="white-space: pre;" direction="ltr" dominant-baseline="alphabetic">checkOnchainCalldata()</text></g><g stroke-linecap="round" transform="translate(1057.9111983783732 848.375051161948) rotate(0 118.27754595699548 18.62659992820565)"><path d="M9.31 0 C67.62 1.15, 124.78 5.23, 227.24 0 M9.31 0 C84.15 -4.44, 161.72 -2.99, 227.24 0 M227.24 0 C230.56 -2.2, 235.42 6.78, 236.56 9.31 M227.24 0 C233.6 -3.12, 232.67 5.78, 236.56 9.31 M236.56 9.31 C235.58 11.74, 233.1 20.66, 236.56 27.94 M236.56 9.31 C236.9 15.93, 237.36 20.22, 236.56 27.94 M236.56 27.94 C234.65 33.49, 230.78 34.64, 227.24 37.25 M236.56 27.94 C240.73 32.42, 230.55 38.47, 227.24 37.25 M227.24 37.25 C163.24 36, 93.07 35.76, 9.31 37.25 M227.24 37.25 C182.95 38.31, 137.77 37.41, 9.31 37.25 M9.31 37.25 C2.76 37.96, -2.78 31.11, 0 27.94 M9.31 37.25 C-0.93 37.63, 0.09 34.75, 0 27.94 M0 27.94 C-1.52 22.35, -3.16 17.19, 0 9.31 M0 27.94 C-1.12 23.19, 1.15 16.46, 0 9.31 M0 9.31 C3.51 2.67, 0.89 2.45, 9.31 0 M0 9.31 C-1.59 3.25, 3.23 2.57, 9.31 0" stroke="#1e1e1e" stroke-width="2" fill="none"></path></g><g transform="translate(1115.2512443353685 857.4016510901537) rotate(0 60.9375 9.599999999999994)"><text x="60.9375" y="15.45" font-family="Cascadia, Segoe UI Emoji" font-size="16px" fill="#1e1e1e" text-anchor="middle" style="white-space: pre;" direction="ltr" dominant-baseline="alphabetic">getCalldata()</text></g><g stroke-linecap="round" transform="translate(1062.1660044307105 971.6802600837927) rotate(0 118.27754595699548 18.626599928205643)"><path d="M9.31 0 C68.28 -0.72, 126.75 -4.28, 227.24 0 M9.31 0 C54.85 -0.87, 102.42 1.69, 227.24 0 M227.24 0 C233.58 -2.71, 233.18 5.43, 236.56 9.31 M227.24 0 C234.4 0.07, 239.23 1.89, 236.56 9.31 M236.56 9.31 C236.03 12.21, 233.74 17.82, 236.56 27.94 M236.56 9.31 C235.85 15.71, 235.49 21.5, 236.56 27.94 M236.56 27.94 C240.19 32.65, 230.93 38.31, 227.24 37.25 M236.56 27.94 C236.8 37.47, 231.63 40.61, 227.24 37.25 M227.24 37.25 C157.07 39.1, 92.88 38.93, 9.31 37.25 M227.24 37.25 C141.81 39.07, 55.47 37.43, 9.31 37.25 M9.31 37.25 C-0.4 37.58, 0.08 34.67, 0 27.94 M9.31 37.25 C2.6 37.9, -0.11 32.34, 0 27.94 M0 27.94 C0.33 22.35, 1.31 14.7, 0 9.31 M0 27.94 C1.41 21.3, -1.26 16.2, 0 9.31 M0 9.31 C-1.38 3.23, 3.21 2.24, 9.31 0 M0 9.31 C1.69 4.97, 7 -0.07, 9.31 0" stroke="#1e1e1e" stroke-width="2" fill="none"></path></g><g transform="translate(1133.5685503877057 980.7068600119984) rotate(0 46.875 9.600000000000001)"><text x="46.875" y="15.45" font-family="Cascadia, Segoe UI Emoji" font-size="16px" fill="#1e1e1e" text-anchor="middle" style="white-space: pre;" direction="ltr" dominant-baseline="alphabetic">simulate()</text></g><g stroke-linecap="round" transform="translate(1164.565363438811 295.4117975606216) rotate(0 100.55859375000006 132.09038534931747)"><path d="M32 0 C80.63 2.22, 132.62 -0.96, 169.12 0 M32 0 C65.63 -1.94, 98.35 -0.68, 169.12 0 M169.12 0 C190.86 0.03, 202.28 10.14, 201.12 32 M169.12 0 C188.26 -2.14, 200.75 10.56, 201.12 32 M201.12 32 C201 88, 199.83 141.41, 201.12 232.18 M201.12 32 C200.73 88.42, 199.35 145.75, 201.12 232.18 M201.12 232.18 C201.22 254.96, 189.66 265.64, 169.12 264.18 M201.12 232.18 C201.28 252.79, 190.45 262.04, 169.12 264.18 M169.12 264.18 C122.54 265.74, 73.09 264.66, 32 264.18 M169.12 264.18 C124.67 263.22, 81.99 263.27, 32 264.18 M32 264.18 C10.45 264.46, -0.05 252.73, 0 232.18 M32 264.18 C10.54 262.26, 0.01 253.53, 0 232.18 M0 232.18 C0.34 173.76, -0.75 114.73, 0 32 M0 232.18 C0.69 174.35, 1.02 116.97, 0 32 M0 32 C0.73 11.48, 12.36 -0.03, 32 0 M0 32 C0.26 9.12, 11.49 1.11, 32 0" stroke="#1e1e1e" stroke-width="2" fill="none"></path></g><g transform="translate(1221.5071737836383 308.13193944280533) rotate(0 49.469947814941406 12.5)"><text x="0" y="17.52" font-family="Virgil, Segoe UI Emoji" font-size="20px" fill="#1e1e1e" text-anchor="start" style="white-space: pre;" direction="ltr" dominant-baseline="alphabetic">Addresses</text></g><g stroke-linecap="round" transform="translate(1183.2844266194015 347.7212564206636) rotate(0 84.56741342722336 21.183142270806457)"><path d="M10.59 0 C66.74 0.5, 126.93 1.13, 158.54 0 M10.59 0 C45.16 -0.85, 79.9 -1.12, 158.54 0 M158.54 0 C163.7 -1.86, 168.82 3.44, 169.13 10.59 M158.54 0 C165.04 -1.53, 169.68 4.91, 169.13 10.59 M169.13 10.59 C168.79 16.63, 167.82 27.15, 169.13 31.77 M169.13 10.59 C169.05 16.87, 168.61 22.44, 169.13 31.77 M169.13 31.77 C169.28 38.2, 165.61 40.51, 158.54 42.37 M169.13 31.77 C170.35 38.51, 166.71 44.47, 158.54 42.37 M158.54 42.37 C107.85 40.85, 54.92 40.48, 10.59 42.37 M158.54 42.37 C112.84 42.7, 67.32 42.17, 10.59 42.37 M10.59 42.37 C3.42 40.7, 0.01 38.85, 0 31.77 M10.59 42.37 C3.47 42.98, -1.4 39.89, 0 31.77 M0 31.77 C-0.19 23.02, 1.26 15.79, 0 10.59 M0 31.77 C0.36 25.76, 0.84 18.91, 0 10.59 M0 10.59 C0.22 2.19, 4.25 0.96, 10.59 0 M0 10.59 C-1.28 5.64, 3.45 -0.14, 10.59 0" stroke="#1e1e1e" stroke-width="2" fill="none"></path></g><g transform="translate(1211.6018400466248 359.30439869147006) rotate(0 56.25 9.600000000000023)"><text x="56.25" y="15.45" font-family="Cascadia, Segoe UI Emoji" font-size="16px" fill="#1e1e1e" text-anchor="middle" style="white-space: pre;" direction="ltr" dominant-baseline="alphabetic">getAddress()</text></g><g transform="translate(1253.9564245794745 507.51341759082834) rotate(0 11.6689453125 16.100000000000023)"><text x="0" y="25.760546874999996" font-family="Helvetica, Segoe UI Emoji" font-size="28px" fill="#1e1e1e" text-anchor="start" style="white-space: pre;" direction="ltr" dominant-baseline="alphabetic">...</text></g><g stroke-linecap="round" transform="translate(1183.245675349449 406.0513088056016) rotate(0 84.56741342722336 21.183142270806457)"><path d="M10.59 0 C56.61 1.66, 100.34 2.41, 158.54 0 M10.59 0 C50.92 1.33, 91.32 0.71, 158.54 0 M158.54 0 C166.08 1.2, 170.1 3.43, 169.13 10.59 M158.54 0 C164.51 -0.38, 167.6 2.03, 169.13 10.59 M169.13 10.59 C169.58 18.98, 170.5 26.36, 169.13 31.77 M169.13 10.59 C169.15 17.56, 169.68 26.25, 169.13 31.77 M169.13 31.77 C170.1 40.66, 166.51 43.16, 158.54 42.37 M169.13 31.77 C168.93 39.24, 164.01 40.62, 158.54 42.37 M158.54 42.37 C127.39 42.18, 95.99 42.35, 10.59 42.37 M158.54 42.37 C119.97 41.14, 81.37 41.4, 10.59 42.37 M10.59 42.37 C2.31 43.28, 1.22 38.53, 0 31.77 M10.59 42.37 C5.55 42.11, -1.27 40.24, 0 31.77 M0 31.77 C1.11 26.88, 0.8 22.22, 0 10.59 M0 31.77 C0.34 25.93, -0.58 20.05, 0 10.59 M0 10.59 C-0.07 3.41, 2.26 0.17, 10.59 0 M0 10.59 C-2.25 2.48, 4.3 -1.04, 10.59 0" stroke="#1e1e1e" stroke-width="2" fill="none"></path></g><g transform="translate(1211.5630887766722 417.634451076408) rotate(0 56.25 9.600000000000023)"><text x="56.25" y="15.45" font-family="Cascadia, Segoe UI Emoji" font-size="16px" fill="#1e1e1e" text-anchor="middle" style="white-space: pre;" direction="ltr" dominant-baseline="alphabetic">addAddress()</text></g><g stroke-linecap="round" transform="translate(1182.513253474449 465.42307906463407) rotate(0 84.56741342722336 21.183142270806457)"><path d="M10.59 0 C57.5 -2.76, 103.61 -1.18, 158.54 0 M10.59 0 C54.52 1.58, 98.46 0.93, 158.54 0 M158.54 0 C164.65 -0.33, 167.8 2.22, 169.13 10.59 M158.54 0 C167.69 -0.86, 167.68 4.14, 169.13 10.59 M169.13 10.59 C170.75 17.2, 168.66 23.53, 169.13 31.77 M169.13 10.59 C169.73 15.89, 169.7 19.76, 169.13 31.77 M169.13 31.77 C168.96 39.19, 164.21 40.85, 158.54 42.37 M169.13 31.77 C167.12 39.02, 165.65 42.67, 158.54 42.37 M158.54 42.37 C114.99 42.22, 71.33 42.34, 10.59 42.37 M158.54 42.37 C113.47 43.22, 70.23 42.61, 10.59 42.37 M10.59 42.37 C5.29 42.15, -1.11 40.06, 0 31.77 M10.59 42.37 C2.74 42.44, 0.06 40.12, 0 31.77 M0 31.77 C-0.12 24.87, -1.43 18.23, 0 10.59 M0 31.77 C0.08 24.34, -0.52 17.11, 0 10.59 M0 10.59 C-1.96 2.62, 4.2 -0.91, 10.59 0 M0 10.59 C-0.38 5.33, 1.83 1.85, 10.59 0" stroke="#1e1e1e" stroke-width="2" fill="none"></path></g><g transform="translate(1196.7681669016722 477.0062213354405) rotate(0 70.3125 9.600000000000023)"><text x="70.3125" y="15.45" font-family="Cascadia, Segoe UI Emoji" font-size="16px" fill="#1e1e1e" text-anchor="middle" style="white-space: pre;" direction="ltr" dominant-baseline="alphabetic">changeAddress()</text></g><g stroke-linecap="round"><g transform="translate(617.1431051742301 449.8518696761955) rotate(0 272.6784481232392 -11.983987637216046)"><path d="M-0.19 -0.06 C90.92 -3.86, 454.5 -20.19, 545.55 -23.91" stroke="#1e1e1e" stroke-width="2.5" fill="none" stroke-dasharray="8 10"></path></g><g transform="translate(617.1431051742301 449.8518696761955) rotate(0 272.6784481232392 -11.983987637216046)"><path d="M522.45 -14.36 C527.17 -16.77, 530.67 -17.76, 545.55 -23.91" stroke="#1e1e1e" stroke-width="2.5" fill="none"></path></g><g transform="translate(617.1431051742301 449.8518696761955) rotate(0 272.6784481232392 -11.983987637216046)"><path d="M521.71 -31.44 C526.43 -30.35, 530.07 -27.85, 545.55 -23.91" stroke="#1e1e1e" stroke-width="2.5" fill="none"></path></g></g><mask></mask><g stroke-linecap="round"><g transform="translate(461.09479912177073 620.2538216047922) rotate(0 158.2265237958918 77.77143087233173)"><path d="M0 0 C52.74 25.92, 263.71 129.62, 316.45 155.54 M0 0 C52.74 25.92, 263.71 129.62, 316.45 155.54" stroke="#1e1e1e" stroke-width="2" fill="none"></path></g></g><mask></mask><g stroke-linecap="round"><g transform="translate(464.41461968121837 619.3851615377437) rotate(0 361.3990233873492 79.7809825412981)"><path d="M0 0 C120.47 26.59, 602.33 132.97, 722.8 159.56 M0 0 C120.47 26.59, 602.33 132.97, 722.8 159.56" stroke="#1e1e1e" stroke-width="2" fill="none"></path></g></g><mask></mask><g stroke-linecap="round" transform="translate(120.85774440729483 1968.4339708020009) rotate(0 141.7386638218294 233.1497859055529)"><path d="M32 0 C102.85 -3.49, 173.48 -4.15, 251.48 0 M32 0 C82.42 1.89, 135.12 2.68, 251.48 0 M251.48 0 C271.23 2.92, 283.76 9.4, 283.48 32 M251.48 0 C272.82 -4.27, 285.92 10.02, 283.48 32 M283.48 32 C288.51 171.81, 288.01 310.45, 283.48 434.3 M283.48 32 C279.53 122.24, 279.39 212.35, 283.48 434.3 M283.48 434.3 C283.38 454.06, 272.59 462.97, 251.48 466.3 M283.48 434.3 C283.5 455.66, 272.69 467.53, 251.48 466.3 M251.48 466.3 C198.45 471.67, 146.1 466.7, 32 466.3 M251.48 466.3 C172.24 467.39, 93.54 467.12, 32 466.3 M32 466.3 C14.06 466.24, 0.45 452.94, 0 434.3 M32 466.3 C12.32 468.51, -2.56 459.85, 0 434.3 M0 434.3 C0.47 312.83, -0.75 196.52, 0 32 M0 434.3 C-0.08 332.74, 1.51 229.85, 0 32 M0 32 C2.05 7.32, 13.64 -1.71, 32 0 M0 32 C4.15 14, 7.08 2.65, 32 0" stroke="#1e1e1e" stroke-width="2" fill="none"></path></g><g transform="translate(153.87284451778248 1992.9658220851886) rotate(0 108.70242309570312 13.645562380895115)"><text x="0" y="19.125620233062627" font-family="Virgil, Segoe UI Emoji" font-size="21.832899809432224px" fill="#1e1e1e" text-anchor="start" style="white-space: pre;" direction="ltr" dominant-baseline="alphabetic">TimelockProposal_01</text></g><g stroke-linecap="round" transform="translate(145.12491889676392 2222.4085034782793) rotate(0 119.56557103521651 23.420837854200386)"><path d="M11.71 0 C64.99 2.84, 119.89 0.16, 227.42 0 M227.42 0 C235.75 0.11, 240.58 3.11, 239.13 11.71 M239.13 11.71 C239.15 18.59, 240.21 28.9, 239.13 35.13 M239.13 35.13 C240.09 44.76, 236.13 47.63, 227.42 46.84 M227.42 46.84 C163.26 44, 101.91 45.57, 11.71 46.84 M11.71 46.84 C4.16 46.62, 0.28 42.89, 0 35.13 M0 35.13 C0.02 29.04, -0.04 23.45, 0 11.71 M0 11.71 C-1.22 4.82, 5.12 -0.3, 11.71 0" stroke="#1e1e1e" stroke-width="2.5" fill="none" stroke-dasharray="1.5 8"></path></g><g transform="translate(241.25298993198044 2236.2293413324796) rotate(0 23.4375 9.600000000000023)"><text x="23.4375" y="15.45" font-family="Cascadia, Segoe UI Emoji" font-size="16px" fill="#1e1e1e" text-anchor="middle" style="white-space: pre;" direction="ltr" dominant-baseline="alphabetic">run()</text></g><g stroke-linecap="round" transform="translate(139.9796264961077 2031.1715361225545) rotate(0 119.56557103521651 23.420837854200386)"><path d="M11.71 0 C96.47 1.28, 181.58 0.5, 227.42 0 M227.42 0 C236.69 0.14, 238.5 3.91, 239.13 11.71 M239.13 11.71 C240.22 18.39, 240.16 22.2, 239.13 35.13 M239.13 35.13 C238.96 43.29, 233.84 45.32, 227.42 46.84 M227.42 46.84 C181.84 46.69, 136.05 46.84, 11.71 46.84 M11.71 46.84 C3.12 46.73, -1.67 42.95, 0 35.13 M0 35.13 C-1.21 29.01, 1.23 20.75, 0 11.71 M0 11.71 C1.76 3.68, 2.8 1.23, 11.71 0" stroke="#1e1e1e" stroke-width="2.5" fill="none" stroke-dasharray="1.5 8"></path></g><g transform="translate(222.04519753132422 2044.9923739767548) rotate(0 37.5 9.600000000000023)"><text x="37.5" y="15.45" font-family="Cascadia, Segoe UI Emoji" font-size="16px" fill="#1e1e1e" text-anchor="middle" style="white-space: pre;" direction="ltr" dominant-baseline="alphabetic">deploy()</text></g><g stroke-linecap="round" transform="translate(143.2153676421475 2092.061547073282) rotate(0 119.56557103521651 23.420837854200386)"><path d="M11.71 0 C78.84 0.87, 142.87 0.75, 227.42 0 M227.42 0 C233.37 1.06, 238.85 4.86, 239.13 11.71 M239.13 11.71 C239.06 21.23, 237.85 28.52, 239.13 35.13 M239.13 35.13 C237.38 43.1, 235.27 47.1, 227.42 46.84 M227.42 46.84 C164.37 46.7, 101.24 46.8, 11.71 46.84 M11.71 46.84 C3.91 46.79, 0.53 41.72, 0 35.13 M0 35.13 C1.61 26.82, -1.25 20.16, 0 11.71 M0 11.71 C-0.69 3.97, 3.96 1.12, 11.71 0" stroke="#1e1e1e" stroke-width="2.5" fill="none" stroke-dasharray="1.5 8"></path></g><g transform="translate(183.09343867736402 2105.8823849274822) rotate(0 79.6875 9.600000000000023)"><text x="79.6875" y="15.45" font-family="Cascadia, Segoe UI Emoji" font-size="16px" fill="#1e1e1e" text-anchor="middle" style="white-space: pre;" direction="ltr" dominant-baseline="alphabetic">afterDeployMock()</text></g><g stroke-linecap="round" transform="translate(143.72976751664635 2155.0962736297815) rotate(0 119.56557103521651 23.420837854200386)"><path d="M11.71 0 C76.34 0.92, 143.97 0.84, 227.42 0 M227.42 0 C237.05 0.9, 239.92 3.73, 239.13 11.71 M239.13 11.71 C237.22 19.32, 239.01 26.86, 239.13 35.13 M239.13 35.13 C238.91 43.22, 235.18 46.06, 227.42 46.84 M227.42 46.84 C163.88 46.8, 100.79 45.79, 11.71 46.84 M11.71 46.84 C4.82 48.06, -0.3 44.69, 0 35.13 M0 35.13 C-0.56 28.43, 0.18 22.71, 0 11.71 M0 11.71 C0.73 4.71, 5.6 -0.03, 11.71 0" stroke="#1e1e1e" stroke-width="2.5" fill="none" stroke-dasharray="1.5 8"></path></g><g transform="translate(230.48283855186287 2168.917111483982) rotate(0 32.8125 9.600000000000023)"><text x="32.8125" y="15.45" font-family="Cascadia, Segoe UI Emoji" font-size="16px" fill="#1e1e1e" text-anchor="middle" style="white-space: pre;" direction="ltr" dominant-baseline="alphabetic">build()</text></g><g stroke-linecap="round" transform="translate(144.68181027807248 2353.4170418358226) rotate(0 119.56557103521651 23.420837854200386)"><path d="M11.71 0 C89.46 -0.12, 164.71 -1.06, 227.42 0 M227.42 0 C235.58 -1.39, 237.61 2.15, 239.13 11.71 M239.13 11.71 C238.92 19.21, 239.09 25.36, 239.13 35.13 M239.13 35.13 C239.02 41.27, 235.24 46.85, 227.42 46.84 M227.42 46.84 C164.09 46.76, 98.89 47.23, 11.71 46.84 M11.71 46.84 C3.68 45.73, 1.23 42.25, 0 35.13 M0 35.13 C0.73 28.84, 1.69 20.9, 0 11.71 M0 11.71 C0.22 2.56, 4.62 0.96, 11.71 0" stroke="#1e1e1e" stroke-width="2.5" fill="none" stroke-dasharray="1.5 8"></path></g><g transform="translate(217.372381313289 2367.237879690023) rotate(0 46.875 9.600000000000023)"><text x="46.875" y="15.45" font-family="Cascadia, Segoe UI Emoji" font-size="16px" fill="#1e1e1e" text-anchor="middle" style="white-space: pre;" direction="ltr" dominant-baseline="alphabetic">validate()</text></g><g stroke-linecap="round" transform="translate(145.40677795705085 2289.099141387518) rotate(0 119.56557103521651 23.420837854200386)"><path d="M11.71 0 C86.45 -1.05, 159.24 -1.37, 227.42 0 M227.42 0 C235.39 0.04, 239.39 3.69, 239.13 11.71 M239.13 11.71 C239.02 17.4, 239.13 26.43, 239.13 35.13 M239.13 35.13 C239.08 43.47, 234.01 47.76, 227.42 46.84 M227.42 46.84 C149.36 47.53, 72.76 47.89, 11.71 46.84 M11.71 46.84 C3.97 46.9, 1.12 43.67, 0 35.13 M0 35.13 C0.03 25.81, 0.52 20.15, 0 11.71 M0 11.71 C-1.11 5.74, 3.83 -0.12, 11.71 0" stroke="#1e1e1e" stroke-width="2.5" fill="none" stroke-dasharray="1.5 8"></path></g><g transform="translate(218.09734899226737 2302.9199792417185) rotate(0 46.875 9.600000000000023)"><text x="46.875" y="15.45" font-family="Cascadia, Segoe UI Emoji" font-size="16px" fill="#1e1e1e" text-anchor="middle" style="white-space: pre;" direction="ltr" dominant-baseline="alphabetic">simulate()</text></g><g stroke-linecap="round" transform="translate(624.6447007191654 2012.6927788598089) rotate(0 141.7386638218294 181.91837838851302)"><path d="M32 0 C82.87 3.41, 133.62 2.96, 251.48 0 M32 0 C100.84 0.05, 169.88 1.5, 251.48 0 M251.48 0 C272.7 1.07, 281.05 12.49, 283.48 32 M251.48 0 C275.62 -0.7, 287.52 10.16, 283.48 32 M283.48 32 C286.27 105.43, 287.81 179.78, 283.48 331.84 M283.48 32 C287.37 133.09, 287.73 236.87, 283.48 331.84 M283.48 331.84 C281.25 356.84, 272.67 363.59, 251.48 363.84 M283.48 331.84 C280.55 353.57, 268.3 361.74, 251.48 363.84 M251.48 363.84 C181.03 360.64, 107.93 365.53, 32 363.84 M251.48 363.84 C177.42 359.91, 102.34 361.91, 32 363.84 M32 363.84 C7.55 366.14, 2.81 350.71, 0 331.84 M32 363.84 C11.71 364.37, 2.93 352.44, 0 331.84 M0 331.84 C1.02 244.07, 2.15 161.92, 0 32 M0 331.84 C-3.68 214.74, -5.07 97.18, 0 32 M0 32 C0.15 8.23, 11.3 0.43, 32 0 M0 32 C-3 6.66, 11.88 -1.94, 32 0" stroke="#1e1e1e" stroke-width="2" fill="none"></path></g><g transform="translate(660.1083442907124 2037.0042132156343) rotate(0 113.51593780517578 27.291124761790286)"><text x="0" y="19.125620233062627" font-family="Virgil, Segoe UI Emoji" font-size="21.832899809432224px" fill="#1e1e1e" text-anchor="start" style="white-space: pre;" direction="ltr" dominant-baseline="alphabetic">TimelockProposal_02</text><text x="0" y="46.416744994852905" font-family="Virgil, Segoe UI Emoji" font-size="21.832899809432224px" fill="#1e1e1e" text-anchor="start" style="white-space: pre;" direction="ltr" dominant-baseline="alphabetic"></text></g><g stroke-linecap="round" transform="translate(648.9118752086346 2163.822932290187) rotate(0 119.56557103521652 23.420837854200386)"><path d="M11.71 0 C77.1 0.16, 141.3 0.11, 227.42 0 M227.42 0 C233.56 0.01, 239.14 3.85, 239.13 11.71 M239.13 11.71 C240.21 19.06, 240.75 26.79, 239.13 35.13 M239.13 35.13 C238.02 44.16, 234.54 46.91, 227.42 46.84 M227.42 46.84 C162.84 49.01, 96.81 47.73, 11.71 46.84 M11.71 46.84 C2.56 47.56, 0.96 41.82, 0 35.13 M0 35.13 C-1.26 26.13, -1.95 15.87, 0 11.71 M0 11.71 C0.67 3, 3.57 1.57, 11.71 0" stroke="#1e1e1e" stroke-width="2.5" fill="none" stroke-dasharray="1.5 8"></path></g><g transform="translate(745.0399462438511 2177.6437701443874) rotate(0 23.4375 9.600000000000023)"><text x="23.4375" y="15.45" font-family="Cascadia, Segoe UI Emoji" font-size="16px" fill="#1e1e1e" text-anchor="middle" style="white-space: pre;" direction="ltr" dominant-baseline="alphabetic">run()</text></g><g stroke-linecap="round" transform="translate(647.5167238285165 2096.5107024416893) rotate(0 119.56557103521652 23.420837854200386)"><path d="M11.71 0 C74.43 0.11, 140.08 0.05, 227.42 0 M227.42 0 C235.76 -1.22, 240.04 5.12, 239.13 11.71 M239.13 11.71 C238.23 19.61, 238.65 25.12, 239.13 35.13 M239.13 35.13 C239.18 44.06, 235.96 47.65, 227.42 46.84 M227.42 46.84 C143.24 47.68, 62.26 46.08, 11.71 46.84 M11.71 46.84 C5.74 46.77, -0.12 41.67, 0 35.13 M0 35.13 C0.9 27, -0.1 22.24, 0 11.71 M0 11.71 C-1.48 5.51, 5.24 0.87, 11.71 0" stroke="#1e1e1e" stroke-width="2.5" fill="none" stroke-dasharray="1.5 8"></path></g><g transform="translate(734.2697948637331 2110.3315402958897) rotate(0 32.8125 9.600000000000023)"><text x="32.8125" y="15.45" font-family="Cascadia, Segoe UI Emoji" font-size="16px" fill="#1e1e1e" text-anchor="middle" style="white-space: pre;" direction="ltr" dominant-baseline="alphabetic">build()</text></g><g stroke-linecap="round" transform="translate(648.4687665899427 2294.8314706477313) rotate(0 119.56557103521652 23.420837854200386)"><path d="M11.71 0 C76.98 -1.01, 142.11 1.12, 227.42 0 M227.42 0 C234.92 1.76, 238.91 2.8, 239.13 11.71 M239.13 11.71 C239.1 21.29, 239.78 29.44, 239.13 35.13 M239.13 35.13 C240.83 42.91, 235.45 45.5, 227.42 46.84 M227.42 46.84 C156.56 45.73, 82.38 44.68, 11.71 46.84 M11.71 46.84 C4.08 44.88, -0.91 43.61, 0 35.13 M0 35.13 C-1.44 30.78, 1.38 24.07, 0 11.71 M0 11.71 C1.02 2.23, 5.39 -0.85, 11.71 0" stroke="#1e1e1e" stroke-width="2.5" fill="none" stroke-dasharray="1.5 8"></path></g><g transform="translate(721.1593376251592 2308.6523085019317) rotate(0 46.875 9.600000000000023)"><text x="46.875" y="15.45" font-family="Cascadia, Segoe UI Emoji" font-size="16px" fill="#1e1e1e" text-anchor="middle" style="white-space: pre;" direction="ltr" dominant-baseline="alphabetic">validate()</text></g><g stroke-linecap="round" transform="translate(649.1937342689215 2230.513570199427) rotate(0 119.56557103521652 23.420837854200386)"><path d="M11.71 0 C63.04 0.39, 114.72 -2.12, 227.42 0 M227.42 0 C236.45 -0.69, 239.2 3.96, 239.13 11.71 M239.13 11.71 C240.91 20.02, 239.44 27.04, 239.13 35.13 M239.13 35.13 C239.85 43.9, 234.11 48.68, 227.42 46.84 M227.42 46.84 C163.62 43.93, 98.73 46.23, 11.71 46.84 M11.71 46.84 C3 46.51, 1.57 41.46, 0 35.13 M0 35.13 C0.87 24.55, 1.33 16.46, 0 11.71 M0 11.71 C1.81 5.35, 2.35 1.15, 11.71 0" stroke="#1e1e1e" stroke-width="2.5" fill="none" stroke-dasharray="1.5 8"></path></g><g transform="translate(721.884305304138 2244.334408053627) rotate(0 46.875 9.600000000000023)"><text x="46.875" y="15.45" font-family="Cascadia, Segoe UI Emoji" font-size="16px" fill="#1e1e1e" text-anchor="middle" style="white-space: pre;" direction="ltr" dominant-baseline="alphabetic">simulate()</text></g><g stroke-linecap="round"><g transform="translate(243.40146148478095 1118.856368888352) rotate(0 0.11360522402696915 419.9107823080882)"><path d="M0 0 C0.04 139.97, 0.19 699.85, 0.23 839.82 M0 0 C0.04 139.97, 0.19 699.85, 0.23 839.82" stroke="#1e1e1e" stroke-width="2" fill="none"></path></g></g><mask></mask><g stroke-linecap="round"><g transform="translate(243.57104932232494 1730.8040290815236) rotate(0 256.855140452333 139.20544328618422)"><path d="M0 0 C125.67 0.31, 251.35 0.62, 513.71 1.26 M0 0 C174.89 0.43, 349.79 0.86, 513.71 1.26 M513.71 1.26 C513 68.98, 512.3 136.69, 510.82 278.41 M513.71 1.26 C512.97 71.8, 512.24 142.33, 510.82 278.41" stroke="#1e1e1e" stroke-width="2" fill="none"></path></g></g><mask></mask><g stroke-linecap="round" transform="translate(1326.9280335627086 1737.4937353086916) rotate(0 192.2775914499112 89.23116932363087)"><path d="M32 0 C118.65 0.9, 203.31 2.25, 352.56 0 M32 0 C128.17 3.69, 222.55 4.3, 352.56 0 M352.56 0 C373.75 -0.24, 382.01 11.01, 384.56 32 M352.56 0 C369.38 -2.09, 386.09 8.58, 384.56 32 M384.56 32 C389.57 67.11, 388.08 98.92, 384.56 146.46 M384.56 32 C388.06 58.22, 384.7 82.69, 384.56 146.46 M384.56 146.46 C387.37 165.34, 374.8 178.93, 352.56 178.46 M384.56 146.46 C387.49 167.07, 373.14 179.19, 352.56 178.46 M352.56 178.46 C230.83 174.51, 106.2 176.92, 32 178.46 M352.56 178.46 C251.98 177.11, 153.35 177.05, 32 178.46 M32 178.46 C11.3 178.9, -2.6 164.31, 0 146.46 M32 178.46 C11.88 176.52, 2.99 165.79, 0 146.46 M0 146.46 C2.51 108.82, -0.56 64.78, 0 32 M0 146.46 C1.58 108.97, -0.64 70.16, 0 32 M0 32 C1.81 9.34, 10.86 1.92, 32 0 M0 32 C0.89 13.49, 14.47 -0.68, 32 0" stroke="#1e1e1e" stroke-width="2" fill="none"></path></g><g transform="translate(1372.546070990245 1758.632441275254) rotate(0 143.76138305664062 13.645562380895115)"><text x="0" y="19.125620233062627" font-family="Virgil, Segoe UI Emoji" font-size="21.832899809432224px" fill="#1e1e1e" text-anchor="start" style="white-space: pre;" direction="ltr" dominant-baseline="alphabetic">TimelockPostProposalCheck</text></g><g stroke-linecap="round" transform="translate(1396.519045533902 1827.122930646785) rotate(0 118.27754595699548 18.62659992820562)"><path d="M9.31 0 C82.62 -2.83, 153.7 -1.96, 227.24 0 M9.31 0 C85.11 -3.58, 159.93 -3.33, 227.24 0 M227.24 0 C229.53 -1.82, 237.89 1.29, 236.56 9.31 M227.24 0 C232.69 3.6, 233.16 6.81, 236.56 9.31 M236.56 9.31 C233.6 18.91, 235.13 26.35, 236.56 27.94 M236.56 9.31 C237.58 15.11, 236.69 23.41, 236.56 27.94 M236.56 27.94 C239.11 33.52, 232.8 37.89, 227.24 37.25 M236.56 27.94 C240.61 36.83, 229.2 41.71, 227.24 37.25 M227.24 37.25 C160.81 41.72, 93.19 38.43, 9.31 37.25 M227.24 37.25 C174.42 35.14, 119.92 33.43, 9.31 37.25 M9.31 37.25 C4.16 35.56, 2.6 32.4, 0 27.94 M9.31 37.25 C5.12 39.97, -0.75 38.59, 0 27.94 M0 27.94 C1.45 21.3, 2.68 17.82, 0 9.31 M0 27.94 C0.99 20.33, 0.24 14.85, 0 9.31 M0 9.31 C0.78 5.56, 6.41 -0.59, 9.31 0 M0 9.31 C0.42 2.38, 0.58 2.3, 9.31 0" stroke="#1e1e1e" stroke-width="2" fill="none"></path></g><g transform="translate(1481.9840914908975 1836.1495305749909) rotate(0 32.8125 9.600000000000023)"><text x="32.8125" y="15.45" font-family="Cascadia, Segoe UI Emoji" font-size="16px" fill="#1e1e1e" text-anchor="middle" style="white-space: pre;" direction="ltr" dominant-baseline="alphabetic">setup()</text></g><g stroke-linecap="round" transform="translate(1333.8040501803875 2022.6728957135292) rotate(0 192.2775914499112 124.85168751706715)"><path d="M32 0 C133.1 -3.17, 234.08 -1.71, 352.56 0 M32 0 C124.84 -1.03, 220.88 -1.02, 352.56 0 M352.56 0 C373.22 3.13, 381.6 13.89, 384.56 32 M352.56 0 C376.97 1.99, 386.91 6.82, 384.56 32 M384.56 32 C385.87 98.38, 385.28 173.81, 384.56 217.7 M384.56 32 C386.68 75.99, 385.07 120.94, 384.56 217.7 M384.56 217.7 C388.08 241.37, 370.19 253.58, 352.56 249.7 M384.56 217.7 C384.86 243.17, 378.16 250.2, 352.56 249.7 M352.56 249.7 C246.09 246.79, 141.08 247.13, 32 249.7 M352.56 249.7 C253.28 245.21, 154.17 245.19, 32 249.7 M32 249.7 C12.42 252.07, -0.65 242.9, 0 217.7 M32 249.7 C12.63 250.61, -3.42 240.91, 0 217.7 M0 217.7 C0.28 161.69, 0.67 110.68, 0 32 M0 217.7 C0.21 169.36, 1.48 118.26, 0 32 M0 32 C0.37 10.04, 8.47 2, 32 0 M0 32 C-1.09 7.96, 12.45 1.15, 32 0" stroke="#1e1e1e" stroke-width="2" fill="none"></path></g><g stroke-linecap="round" transform="translate(1382.446928011887 2099.038864123292) rotate(0 132.7419852778513 24.5)"><path d="M12.25 0 C96.26 2.11, 173.96 0.12, 253.23 0 M12.25 0 C87.19 1.07, 160.75 3.13, 253.23 0 M253.23 0 C258.45 3.22, 268.16 5.82, 265.48 12.25 M253.23 0 C263.76 -3.85, 268.9 2.12, 265.48 12.25 M265.48 12.25 C268.15 24.63, 263.38 32.28, 265.48 36.75 M265.48 12.25 C265.47 20.2, 267.56 28.68, 265.48 36.75 M265.48 36.75 C261.79 48.79, 261.66 52.6, 253.23 49 M265.48 36.75 C269.75 45.41, 262.65 48.42, 253.23 49 M253.23 49 C195.15 49.67, 141.47 46.98, 12.25 49 M253.23 49 C203 46.58, 151.34 48.29, 12.25 49 M12.25 49 C3.43 52.86, 1.71 45.71, 0 36.75 M12.25 49 C0.66 50.88, -0.32 48.31, 0 36.75 M0 36.75 C3.04 29.47, -1.69 18.76, 0 12.25 M0 36.75 C1.56 27.93, 0.09 19.38, 0 12.25 M0 12.25 C-2.2 6.08, 3.13 -2.35, 12.25 0 M0 12.25 C1.78 5.23, 0.74 0.79, 12.25 0" stroke="#1e1e1e" stroke-width="2" fill="none"></path></g><g transform="translate(1393.3139132897381 2113.9388641232927) rotate(0 121.875 9.600000000000023)"><text x="121.875" y="15.45" font-family="Cascadia, Segoe UI Emoji" font-size="16px" fill="#1e1e1e" text-anchor="middle" style="white-space: pre;" direction="ltr" dominant-baseline="alphabetic">test_addTokenToWhitelist()</text></g><g transform="translate(1354.241641298674 2049.8339085064754) rotate(0 176.38626098632812 13.645562380895115)"><text x="0" y="19.125620233062627" font-family="Virgil, Segoe UI Emoji" font-size="21.832899809432224px" fill="#1e1e1e" text-anchor="start" style="white-space: pre;" direction="ltr" dominant-baseline="alphabetic">TimelockProposalIntegrationTest</text></g><g stroke-linecap="round" transform="translate(1382.0541890656004 2168.8414638899303) rotate(0 132.7419852778513 24.5)"><path d="M12.25 0 C67.72 5.04, 124.71 3.38, 253.23 0 M12.25 0 C104.53 -2.51, 195.43 -4.62, 253.23 0 M253.23 0 C264.37 -1.71, 269.09 6.98, 265.48 12.25 M253.23 0 C257.82 2.65, 268.72 1.26, 265.48 12.25 M265.48 12.25 C264.91 19.5, 266.17 31.59, 265.48 36.75 M265.48 12.25 C265.16 22.83, 266.89 30.02, 265.48 36.75 M265.48 36.75 C266.57 44.42, 258.71 46.75, 253.23 49 M265.48 36.75 C265.65 42.12, 262.13 49.5, 253.23 49 M253.23 49 C195.23 52.22, 138.58 51.52, 12.25 49 M253.23 49 C167.4 53.2, 78.9 53.55, 12.25 49 M12.25 49 C3.81 51.95, 2.84 47.93, 0 36.75 M12.25 49 C2.25 52.93, 2.09 43.4, 0 36.75 M0 36.75 C2.22 32.59, -0.83 22.19, 0 12.25 M0 36.75 C-0.21 28.61, 1.04 23.32, 0 12.25 M0 12.25 C-2.91 4.77, 4.29 0.91, 12.25 0 M0 12.25 C0.65 7.62, 3.26 -0.67, 12.25 0" stroke="#1e1e1e" stroke-width="2" fill="none"></path></g><g transform="translate(1416.3586743434516 2183.741463889931) rotate(0 98.4375 9.600000000000023)"><text x="98.4375" y="15.45" font-family="Cascadia, Segoe UI Emoji" font-size="16px" fill="#1e1e1e" text-anchor="middle" style="white-space: pre;" direction="ltr" dominant-baseline="alphabetic">test_depositToVault()</text></g><g stroke-linecap="round"><g transform="translate(1519.7234503709897 1911.190655250152) rotate(0 2.0323694572193745 55.78562064608275)"><path d="M0 0 C0.68 18.6, 3.39 92.98, 4.06 111.57 M0 0 C0.68 18.6, 3.39 92.98, 4.06 111.57" stroke="#1e1e1e" stroke-width="2" fill="none"></path></g></g><mask></mask><g stroke-linecap="round"><g transform="translate(1485.533152007994 2276.9894694955406) rotate(0 -360.77236415212894 203.67372748653258)"><path d="M0 0 C0.13 115.43, 0.26 230.86, 0.46 407.35 M0.46 407.35 C-155.77 406.02, -312.01 404.69, -721.6 401.21 M-721.6 401.21 C-721.75 291.36, -721.9 181.52, -722.01 104.61" stroke="#1e1e1e" stroke-width="2.5" fill="none" stroke-dasharray="8 10"></path></g><g transform="translate(1485.533152007994 2276.9894694955406) rotate(0 -360.77236415212894 203.67372748653258)"><path d="M-713.42 128.09 C-715.85 121.43, -718.29 114.78, -722.01 104.61" stroke="#1e1e1e" stroke-width="2.5" fill="none"></path></g><g transform="translate(1485.533152007994 2276.9894694955406) rotate(0 -360.77236415212894 203.67372748653258)"><path d="M-730.52 128.11 C-728.11 121.45, -725.7 114.79, -722.01 104.61" stroke="#1e1e1e" stroke-width="2.5" fill="none"></path></g></g><mask></mask><g stroke-linecap="round"><g transform="translate(764.0512591568553 2677.3598865890262) rotate(0 -251.8266841078689 -120.45588293094647)"><path d="M0 0 C-113.48 -0.25, -226.96 -0.5, -501.75 -1.1 M-501.75 -1.1 C-502.24 -62.8, -502.73 -124.51, -503.65 -240.91" stroke="#1e1e1e" stroke-width="2.5" fill="none" stroke-dasharray="8 10"></path></g><g transform="translate(764.0512591568553 2677.3598865890262) rotate(0 -251.8266841078689 -120.45588293094647)"><path d="M-494.92 -217.49 C-496.89 -222.79, -498.87 -228.08, -503.65 -240.91" stroke="#1e1e1e" stroke-width="2.5" fill="none"></path></g><g transform="translate(764.0512591568553 2677.3598865890262) rotate(0 -251.8266841078689 -120.45588293094647)"><path d="M-512.02 -217.35 C-510.13 -222.68, -508.23 -228.01, -503.65 -240.91" stroke="#1e1e1e" stroke-width="2.5" fill="none"></path></g></g><mask></mask></svg>