<svg xmlns="http://www.w3.org/2000/svg" xmlns:xlink="http://www.w3.org/1999/xlink" xmlns:lucid="lucid" width="5500" height="6500"><g transform="translate(2500 1000)" lucid:page-tab-id="0_0"><path d="M-2340 2660a40 40 0 0 1 40-40h4800a40 40 0 0 1 40 40v2480a40 40 0 0 1-40 40h-4800a40 40 0 0 1-40-40zM-2340-600a40 40 0 0 1 40-40h4800a40 40 0 0 1 40 40v2920a40 40 0 0 1-40 40h-4800a40 40 0 0 1-40-40z" stroke="#282c33" stroke-width="2" fill="#fff"/><path d="M-660-100a60 60 0 0 1 60-60h580a60 60 0 0 1 60 60v640a60 60 0 0 1-60 60h-580a60 60 0 0 1-60-60z" stroke="#282c33" stroke-width="2" fill="#fff"/><use xlink:href="#a" transform="matrix(1,0,0,1,-650,-150) translate(235.37777777777785 86.66666666666663)"/><path d="M-590 10a30 30 0 0 1 30-30h500a30 30 0 0 1 30 30v40a30 30 0 0 1-30 30h-500a30 30 0 0 1-30-30z" stroke="#282c33" stroke-width="2" fill="#fff"/><use xlink:href="#b" transform="matrix(1,0,0,1,-578,-8) translate(202.3988888888889 47.33333333333332)"/><path d="M-590 160a30 30 0 0 1 30-30h500a30 30 0 0 1 30 30v40a30 30 0 0 1-30 30h-500a30 30 0 0 1-30-30z" stroke="#282c33" stroke-width="2" fill="#fff"/><use xlink:href="#c" transform="matrix(1,0,0,1,-578,142) translate(149.2455555555556 47.33333333333332)"/><path d="M-590 310a30 30 0 0 1 30-30h500a30 30 0 0 1 30 30v40a30 30 0 0 1-30 30h-500a30 30 0 0 1-30-30z" stroke="#282c33" stroke-width="2" fill="#fff"/><use xlink:href="#d" transform="matrix(1,0,0,1,-578,292) translate(221.38222222222225 47.33333333333332)"/><path d="M-590 460a30 30 0 0 1 30-30h500a30 30 0 0 1 30 30v40a30 30 0 0 1-30 30h-500a30 30 0 0 1-30-30z" stroke="#282c33" stroke-width="2" fill="#fff"/><use xlink:href="#e" transform="matrix(1,0,0,1,-578,442) translate(145.8266666666667 47.33333333333332)"/><path d="M-2120 1340a60 60 0 0 1 60-60h580a60 60 0 0 1 60 60v640a60 60 0 0 1-60 60h-580a60 60 0 0 1-60-60z" stroke="#282c33" stroke-width="2" fill="#fff"/><use xlink:href="#f" transform="matrix(1,0,0,1,-2110,1290) translate(123.61777777777797 86.66666666666663)"/><path d="M-2050 1450a30 30 0 0 1 30-30h500a30 30 0 0 1 30 30v40a30 30 0 0 1-30 30h-500a30 30 0 0 1-30-30z" stroke="#282c33" stroke-width="2" fill="#fff"/><use xlink:href="#g" transform="matrix(1,0,0,1,-2038,1432) translate(59.258888888888976 47.33333333333332)"/><path d="M-2050 1600a30 30 0 0 1 30-30h500a30 30 0 0 1 30 30v40a30 30 0 0 1-30 30h-500a30 30 0 0 1-30-30z" stroke="#282c33" stroke-width="2" fill="#fff"/><use xlink:href="#h" transform="matrix(1,0,0,1,-2038,1582) translate(107.16111111111115 47.33333333333332)"/><path d="M-2050 1750a30 30 0 0 1 30-30h500a30 30 0 0 1 30 30v40a30 30 0 0 1-30 30h-500a30 30 0 0 1-30-30z" stroke="#282c33" stroke-width="2" fill="#fff"/><use xlink:href="#i" transform="matrix(1,0,0,1,-2038,1732) translate(38.44333333333344 47.33333333333332)"/><path d="M-2050 1900a30 30 0 0 1 30-30h500a30 30 0 0 1 30 30v40a30 30 0 0 1-30 30h-500a30 30 0 0 1-30-30z" fill="#fff"/><path d="M-2048.38 1890.37l1.5-3.63m4.4-6.46l1.27-1.5 1.48-1.27m6.46-4.38l3.63-1.5m7.68-1.47l1.95-.15h1.98m7.94 0h3.97m7.92 0h3.97m7.93 0h3.97m7.93 0h3.97m7.94 0h3.97m7.94 0h3.97m7.95 0h3.97m7.93 0h3.97m7.94 0h3.97m7.93 0h3.97m7.94 0h3.97m7.93 0h3.97m7.94 0h3.97m7.93 0h3.97m7.94 0h3.96m7.93 0h3.96m7.94 0h3.96m7.94 0h3.97m7.94 0h3.97m7.94 0h3.98m7.94 0h3.96m7.94 0h3.97m7.92 0h3.97m7.93 0h3.97m7.93 0h3.97m7.94 0h3.97m7.94 0h3.97m7.95 0h3.97m7.93 0h3.97m7.94 0h3.97m7.93 0h3.97m7.94 0h3.97m7.93 0h3.97m7.94 0h3.97m7.93 0h3.97m7.94 0h3.96m7.93 0h3.96m7.94 0h3.96m7.94 0h3.97m7.94 0h3.97m7.94 0h3.98m7.94 0h1.98l1.95.15m7.68 1.47l3.63 1.5m6.46 4.4l1.5 1.27 1.27 1.48m4.38 6.46l1.5 3.63m1.47 7.68l.15 1.95v2.22m0 8.9v4.44m0 8.88v4.45m0 8.88v2.22l-.15 1.95m-1.47 7.68l-1.5 3.63m-4.4 6.46l-1.27 1.5-1.48 1.27m-6.46 4.38l-3.63 1.5m-7.68 1.47l-1.95.15h-1.98m-7.94 0h-3.97m-7.92 0h-3.97m-7.93 0h-3.97m-7.93 0h-3.97m-7.94 0h-3.97m-7.94 0h-3.97m-7.95 0h-3.97m-7.93 0h-3.97m-7.94 0h-3.97m-7.93 0h-3.97m-7.94 0h-3.97m-7.93 0h-3.97m-7.94 0h-3.97m-7.93 0h-3.97m-7.94 0h-3.96m-7.93 0h-3.96m-7.94 0h-3.96m-7.94 0h-3.97m-7.94 0h-3.97m-7.94 0h-3.98m-7.94 0h-3.96m-7.94 0h-3.97m-7.92 0h-3.97m-7.93 0h-3.97m-7.93 0h-3.97m-7.94 0h-3.97m-7.94 0h-3.97m-7.95 0h-3.97m-7.93 0h-3.97m-7.94 0h-3.97m-7.93 0h-3.97m-7.94 0h-3.97m-7.93 0h-3.97m-7.94 0h-3.97m-7.93 0h-3.97m-7.94 0h-3.96m-7.93 0h-3.96m-7.94 0h-3.96m-7.94 0h-3.97m-7.94 0h-3.97m-7.94 0h-3.98m-7.94 0h-1.98l-1.95-.15m-7.68-1.47l-3.63-1.5m-6.46-4.4l-1.5-1.27-1.27-1.48m-4.38-6.46l-1.5-3.63m-1.47-7.68l-.15-1.95v-2.22m0-8.9v-4.44m0-8.88v-4.45m0-8.88V1900l.15-1.95" stroke="#282c33" stroke-width="2" fill="none"/><use xlink:href="#j" transform="matrix(1,0,0,1,-2038,1882) translate(90.50111111111113 47.33333333333332)"/><path d="M-760 1340a60 60 0 0 1 60-60h580a60 60 0 0 1 60 60v520a60 60 0 0 1-60 60h-580a60 60 0 0 1-60-60z" stroke="#282c33" stroke-width="2" fill="#fff"/><use xlink:href="#k" transform="matrix(1,0,0,1,-750,1290) translate(134.1288888888891 86.66666666666663)"/><path d="M-690 1450a30 30 0 0 1 30-30h500a30 30 0 0 1 30 30v40a30 30 0 0 1-30 30h-500a30 30 0 0 1-30-30z" stroke="#282c33" stroke-width="2" fill="#fff"/><use xlink:href="#e" transform="matrix(1,0,0,1,-678,1432) translate(145.8266666666667 47.33333333333332)"/><path d="M-690 1610a30 30 0 0 1 30-30h500a30 30 0 0 1 30 30v40a30 30 0 0 1-30 30h-500a30 30 0 0 1-30-30z" stroke="#282c33" stroke-width="2" fill="#fff"/><use xlink:href="#i" transform="matrix(1,0,0,1,-678,1592) translate(38.44333333333344 47.33333333333332)"/><path d="M-700 1770a30 30 0 0 1 30-30h500a30 30 0 0 1 30 30v40a30 30 0 0 1-30 30h-500a30 30 0 0 1-30-30z" fill="#fff"/><path d="M-698.38 1760.37l1.5-3.63m4.4-6.46l1.27-1.5 1.48-1.27m6.46-4.38l3.63-1.5m7.67-1.47l1.96-.15h1.98m7.94 0h3.97m7.93 0h3.96m7.93 0h3.97m7.93 0h3.97m7.94 0h3.97m7.94 0h3.97m7.95 0h3.97m7.93 0h3.97m7.94 0h3.97m7.93 0h3.97m7.94 0h3.97m7.93 0h3.97m7.94 0h3.97m7.93 0h3.97m7.94 0h3.96m7.93 0h3.96m7.94 0h3.97m7.93 0h3.97m7.94 0h3.98m7.93 0h3.98m7.94 0h3.96m7.94 0h3.97m7.93 0h3.96m7.93 0h3.97m7.94 0h3.96m7.94 0h3.97m7.94 0h3.97m7.95 0h3.97m7.93 0h3.97m7.94 0h3.97m7.93 0h3.97m7.94 0h3.97m7.93 0h3.97m7.94 0h3.97m7.93 0h3.97m7.94 0h3.96m7.93 0h3.96m7.94 0h3.97m7.93 0h3.97m7.94 0h3.98m7.93 0h3.98m7.94 0h1.98l1.96.15m7.67 1.47l3.63 1.5m6.46 4.4l1.5 1.27 1.27 1.48m4.38 6.46l1.5 3.63m1.47 7.68l.15 1.95v2.22m0 8.9v4.44m0 8.88v4.45m0 8.88v2.22l-.15 1.95m-1.47 7.68l-1.5 3.63m-4.4 6.46l-1.27 1.5-1.48 1.27m-6.46 4.38l-3.63 1.5m-7.67 1.47l-1.96.15h-1.98m-7.94 0h-3.97m-7.92 0h-3.97m-7.93 0h-3.97m-7.94 0h-3.96m-7.94 0h-3.97m-7.94 0h-3.97m-7.95 0h-3.97m-7.93 0h-3.97m-7.94 0h-3.97m-7.93 0h-3.97m-7.94 0h-3.97m-7.93 0h-3.97m-7.94 0h-3.97m-7.93 0h-3.97m-7.94 0h-3.96m-7.93 0h-3.96m-7.94 0h-3.97m-7.93 0h-3.97m-7.94 0h-3.98m-7.93 0h-3.98m-7.94 0h-3.96m-7.94 0h-3.97m-7.93 0h-3.96m-7.93 0h-3.97m-7.94 0h-3.96m-7.94 0h-3.97m-7.94 0h-3.97m-7.95 0h-3.97m-7.93 0h-3.97m-7.94 0h-3.97m-7.93 0h-3.97m-7.94 0h-3.97m-7.93 0h-3.97m-7.94 0h-3.97m-7.93 0h-3.97m-7.94 0h-3.96m-7.93 0h-3.96m-7.94 0h-3.97m-7.93 0h-3.97m-7.94 0h-3.97m-7.94 0h-3.98m-7.94 0H-670l-1.96-.15m-7.67-1.47l-3.63-1.5m-6.46-4.4l-1.5-1.27-1.27-1.48m-4.38-6.46l-1.5-3.63m-1.47-7.68l-.15-1.95v-2.22m0-8.9v-4.44m0-8.88v-4.45m0-8.88V1770l.15-1.95" stroke="#282c33" stroke-width="2" fill="none"/><use xlink:href="#j" transform="matrix(1,0,0,1,-688,1752) translate(90.50111111111113 47.33333333333332)"/><path d="M420 1340a60 60 0 0 1 60-60h580a60 60 0 0 1 60 60v520a60 60 0 0 1-60 60H480a60 60 0 0 1-60-60z" stroke="#282c33" stroke-width="2" fill="#fff"/><use xlink:href="#l" transform="matrix(1,0,0,1,430,1290) translate(53.46222222222252 86.66666666666663)"/><path d="M490 1450a30 30 0 0 1 30-30h500a30 30 0 0 1 30 30v40a30 30 0 0 1-30 30H520a30 30 0 0 1-30-30z" stroke="#282c33" stroke-width="2" fill="#fff"/><use xlink:href="#e" transform="matrix(1,0,0,1,502,1432) translate(145.8266666666667 47.33333333333332)"/><path d="M490 1610a30 30 0 0 1 30-30h500a30 30 0 0 1 30 30v40a30 30 0 0 1-30 30H520a30 30 0 0 1-30-30z" stroke="#282c33" stroke-width="2" fill="#fff"/><use xlink:href="#i" transform="matrix(1,0,0,1,502,1592) translate(38.44333333333344 47.33333333333332)"/><path d="M480 1770a30 30 0 0 1 30-30h500a30 30 0 0 1 30 30v40a30 30 0 0 1-30 30H510a30 30 0 0 1-30-30z" stroke="#282c33" stroke-width="2" fill="#fff"/><use xlink:href="#m" transform="matrix(1,0,0,1,492,1752) translate(173.74444444444447 47.33333333333332)"/><path d="M1560 1340a60 60 0 0 1 60-60h580a60 60 0 0 1 60 60v520a60 60 0 0 1-60 60h-580a60 60 0 0 1-60-60z" stroke="#282c33" stroke-width="2" fill="#fff"/><use xlink:href="#n" transform="matrix(1,0,0,1,1570,1290) translate(88.5155555555558 86.66666666666663)"/><path d="M1630 1450a30 30 0 0 1 30-30h500a30 30 0 0 1 30 30v40a30 30 0 0 1-30 30h-500a30 30 0 0 1-30-30z" stroke="#282c33" stroke-width="2" fill="#fff"/><use xlink:href="#e" transform="matrix(1,0,0,1,1642,1432) translate(145.8266666666667 47.33333333333332)"/><path d="M1630 1610a30 30 0 0 1 30-30h500a30 30 0 0 1 30 30v40a30 30 0 0 1-30 30h-500a30 30 0 0 1-30-30z" stroke="#282c33" stroke-width="2" fill="#fff"/><use xlink:href="#i" transform="matrix(1,0,0,1,1642,1592) translate(38.44333333333344 47.33333333333332)"/><path d="M1620 1770a30 30 0 0 1 30-30h500a30 30 0 0 1 30 30v40a30 30 0 0 1-30 30h-500a30 30 0 0 1-30-30z" stroke="#282c33" stroke-width="2" fill="#fff"/><use xlink:href="#m" transform="matrix(1,0,0,1,1632,1752) translate(173.74444444444447 47.33333333333332)"/><path d="M1158.66-52.22a60 60 0 0 1 60-60h580a60 60 0 0 1 60 60v544.44a60 60 0 0 1-60 60h-580a60 60 0 0 1-60-60z" stroke="#282c33" stroke-width="2" fill="#fff"/><use xlink:href="#o" transform="matrix(1,0,0,1,1168.6556683181834,-102.22184983244398) translate(215.01555555555566 86.66666666666663)"/><path d="M1230 50a30 30 0 0 1 30-30h500a30 30 0 0 1 30 30v40a30 30 0 0 1-30 30h-500a30 30 0 0 1-30-30z" stroke="#282c33" stroke-width="2" fill="#fff"/><use xlink:href="#p" transform="matrix(1,0,0,1,1242,32) translate(147.41333333333338 47.33333333333332)"/><path d="M1230 200a30 30 0 0 1 30-30h500a30 30 0 0 1 30 30v40a30 30 0 0 1-30 30h-500a30 30 0 0 1-30-30z" stroke="#282c33" stroke-width="2" fill="#fff"/><use xlink:href="#q" transform="matrix(1,0,0,1,1242,181.9999999999999) translate(141.31222222222226 47.33333333333332)"/><path d="M1230 350a30 30 0 0 1 30-30h500a30 30 0 0 1 30 30v40a30 30 0 0 1-30 30h-500a30 30 0 0 1-30-30z" stroke="#282c33" stroke-width="2" fill="#fff"/><use xlink:href="#r" transform="matrix(1,0,0,1,1242,332) translate(108.20000000000002 47.33333333333332)"/><path d="M1388.66 443.44a6 6 0 0 1 6-6h228a6 6 0 0 1 6 6v62a6 6 0 0 1-6 6h-228a6 6 0 0 1-6-6z" stroke="#000" stroke-opacity="0" stroke-width="2" fill="#fff" fill-opacity="0"/><use xlink:href="#s" transform="matrix(1,0,0,1,1393.6556683181834,442.44369966488784) translate(92.7777777777778 46.66666666666663)"/><path d="M-2120 3500a60 60 0 0 1 60-60h580a60 60 0 0 1 60 60v960a60 60 0 0 1-60 60h-580a60 60 0 0 1-60-60z" stroke="#282c33" stroke-width="2" fill="#fff"/><use xlink:href="#t" transform="matrix(1,0,0,1,-2110,3450) translate(81.4266666666669 86.66666666666663)"/><path d="M-2050 3610a30 30 0 0 1 30-30h500a30 30 0 0 1 30 30v40a30 30 0 0 1-30 30h-500a30 30 0 0 1-30-30z" stroke="#282c33" stroke-width="2" fill="#fff"/><use xlink:href="#u" transform="matrix(1,0,0,1,-2038,3592) translate(191.00888888888892 47.33333333333332)"/><path d="M-2050 3760a30 30 0 0 1 30-30h500a30 30 0 0 1 30 30v40a30 30 0 0 1-30 30h-500a30 30 0 0 1-30-30z" stroke="#282c33" stroke-width="2" fill="#fff"/><use xlink:href="#v" transform="matrix(1,0,0,1,-2038,3742) translate(93.58000000000007 47.33333333333332)"/><path d="M-2050 3910a30 30 0 0 1 30-30h500a30 30 0 0 1 30 30v40a30 30 0 0 1-30 30h-500a30 30 0 0 1-30-30z" stroke="#282c33" stroke-width="2" fill="#fff"/><use xlink:href="#w" transform="matrix(1,0,0,1,-2038,3892) translate(204.55222222222224 47.33333333333332)"/><path d="M-2050 4060a30 30 0 0 1 30-30h500a30 30 0 0 1 30 30v40a30 30 0 0 1-30 30h-500a30 30 0 0 1-30-30z" stroke="#282c33" stroke-width="2" fill="#fff"/><use xlink:href="#d" transform="matrix(1,0,0,1,-2038,4042) translate(221.38222222222225 47.33333333333332)"/><path d="M-2050 4210a30 30 0 0 1 30-30h500a30 30 0 0 1 30 30v40a30 30 0 0 1-30 30h-500a30 30 0 0 1-30-30z" stroke="#282c33" stroke-width="2" fill="#fff"/><use xlink:href="#m" transform="matrix(1,0,0,1,-2038,4192) translate(173.74444444444447 47.33333333333332)"/><path d="M-2050 4360a30 30 0 0 1 30-30h500a30 30 0 0 1 30 30v40a30 30 0 0 1-30 30h-500a30 30 0 0 1-30-30z" stroke="#282c33" stroke-width="2" fill="#fff"/><use xlink:href="#x" transform="matrix(1,0,0,1,-2038,4342) translate(177.52222222222224 47.33333333333332)"/><path d="M-320 3500a60 60 0 0 1 60-60h580a60 60 0 0 1 60 60v680a60 60 0 0 1-60 60h-580a60 60 0 0 1-60-60z" stroke="#282c33" stroke-width="2" fill="#fff"/><use xlink:href="#y" transform="matrix(1,0,0,1,-310,3450) translate(79.12888888888915 86.66666666666663)"/><path d="M-260 3630a30 30 0 0 1 30-30h500a30 30 0 0 1 30 30v40a30 30 0 0 1-30 30h-500a30 30 0 0 1-30-30z" stroke="#282c33" stroke-width="2" fill="#fff"/><use xlink:href="#w" transform="matrix(1,0,0,1,-248,3612) translate(204.55222222222224 47.33333333333332)"/><path d="M-260 3780a30 30 0 0 1 30-30h500a30 30 0 0 1 30 30v40a30 30 0 0 1-30 30h-500a30 30 0 0 1-30-30z" stroke="#282c33" stroke-width="2" fill="#fff"/><use xlink:href="#d" transform="matrix(1,0,0,1,-248,3762) translate(221.38222222222225 47.33333333333332)"/><path d="M-260 3930a30 30 0 0 1 30-30h500a30 30 0 0 1 30 30v40a30 30 0 0 1-30 30h-500a30 30 0 0 1-30-30z" stroke="#282c33" stroke-width="2" fill="#fff"/><use xlink:href="#m" transform="matrix(1,0,0,1,-248,3912) translate(173.74444444444447 47.33333333333332)"/><path d="M-260 4080a30 30 0 0 1 30-30h500a30 30 0 0 1 30 30v40a30 30 0 0 1-30 30h-500a30 30 0 0 1-30-30z" stroke="#282c33" stroke-width="2" fill="#fff"/><use xlink:href="#x" transform="matrix(1,0,0,1,-248,4062) translate(177.52222222222224 47.33333333333332)"/><path d="M1400 3500a60 60 0 0 1 60-60h780a60 60 0 0 1 60 60v190a60 60 0 0 1-60 60h-780a60 60 0 0 1-60-60z" stroke="#282c33" stroke-width="2" fill="#fff"/><use xlink:href="#z" transform="matrix(1,0,0,1,1410,3450) translate(97.50888888888926 86.66666666666663)"/><path d="M1570 3610a30 30 0 0 1 30-30h500a30 30 0 0 1 30 30v40a30 30 0 0 1-30 30h-500a30 30 0 0 1-30-30z" stroke="#282c33" stroke-width="2" fill="#fff"/><use xlink:href="#A" transform="matrix(1,0,0,1,1582,3592) translate(200.68 47.33333333333332)"/><path d="M1400 4030a60 60 0 0 1 60-60h780a60 60 0 0 1 60 60v330a60 60 0 0 1-60 60h-780a60 60 0 0 1-60-60z" stroke="#282c33" stroke-width="2" fill="#fff"/><use xlink:href="#B" transform="matrix(1,0,0,1,1410,3980) translate(37.44888888888926 86.66666666666663)"/><path d="M1570 4140a30 30 0 0 1 30-30h500a30 30 0 0 1 30 30v40a30 30 0 0 1-30 30h-500a30 30 0 0 1-30-30z" stroke="#282c33" stroke-width="2" fill="#fff"/><use xlink:href="#C" transform="matrix(1,0,0,1,1582,4122) translate(38.63222222222234 47.33333333333332)"/><path d="M1570 4290a30 30 0 0 1 30-30h500a30 30 0 0 1 30 30v40a30 30 0 0 1-30 30h-500a30 30 0 0 1-30-30z" stroke="#282c33" stroke-width="2" fill="#fff"/><use xlink:href="#D" transform="matrix(1,0,0,1,1582,4272) translate(65.02000000000007 47.33333333333332)"/><path d="M43.5 220h4.88m19.5 0h9.75m19.5 0h9.75m19.5 0h9.76m19.5 0h9.75m19.5 0h9.75m19.5 0h9.75m19.5 0h9.75m19.5 0h9.76m19.5 0h9.76m19.5 0h9.76m19.5 0h9.75m19.5 0h9.75m19.5 0h9.76m19.5 0h9.75m19.5 0h9.76m19.5 0h9.74m19.5 0h9.75m19.5 0h9.75m19.5 0h9.82m19.76 0h9.88m19.76 0h9.88m19.76 0h9.88m19.76 0h9.88m19.75 0h9.88m19.76 0h9.9m19.75 0h9.88m19.76 0h9.87m19.75 0H871m19.76 0h9.88m19.76 0h9.88m19.76 0h9.88m19.75 0h9.88m19.76 0h9.9m19.75 0h9.88m19.76 0h9.86m19.76 0h9.88m19.76 0h4.94" stroke="#3a414a" stroke-width="5" fill="none"/><path d="M43.56 222.47H41v-4.94h2.56z" stroke="#3a414a" stroke-width=".05" fill="#3a414a"/><path d="M1149.57 220l-14.27 4.63v-9.26z" stroke="#3a414a" stroke-width="5" fill="#3a414a"/><path d="M-310 603.5V934a6 6 0 0 1-6 6h-1448a6 6 0 0 0-6 6v308.14" stroke="#3a414a" stroke-width="5" fill="none"/><path d="M-307.52 603.56h-4.96V601h4.96z" stroke="#3a414a" stroke-width=".05" fill="#3a414a"/><path d="M-1770 1270.9l-4.63-14.26h9.27z" stroke="#3a414a" stroke-width="5" fill="#3a414a"/><path d="M-310 603.5V934a6 6 0 0 1-6 6h-88a6 6 0 0 0-6 6v308.14" stroke="#3a414a" stroke-width="5" fill="none"/><path d="M-307.52 603.56h-4.96V601h4.96z" stroke="#3a414a" stroke-width=".05" fill="#3a414a"/><path d="M-410 1270.9l-4.63-14.26h9.26z" stroke="#3a414a" stroke-width="5" fill="#3a414a"/><path d="M-310 603.5V934a6 6 0 0 0 6 6H764a6 6 0 0 1 6 6v308.14" stroke="#3a414a" stroke-width="5" fill="none"/><path d="M-307.52 603.56h-4.96V601h4.96z" stroke="#3a414a" stroke-width=".05" fill="#3a414a"/><path d="M770 1270.9l-4.63-14.26h9.26z" stroke="#3a414a" stroke-width="5" fill="#3a414a"/><path d="M-310 603.5V934a6 6 0 0 0 6 6h2208a6 6 0 0 1 6 6v308.14" stroke="#3a414a" stroke-width="5" fill="none"/><path d="M-307.52 603.56h-4.96V601h4.96z" stroke="#3a414a" stroke-width=".05" fill="#3a414a"/><path d="M1910 1270.9l-4.63-14.26h9.27z" stroke="#3a414a" stroke-width="5" fill="#3a414a"/><path d="M-1770 2043.5V3414.14" stroke="#3a414a" stroke-width="5" fill="none"/><path d="M-1767.53 2043.56h-4.94V2041h4.94z" stroke="#3a414a" stroke-width=".05" fill="#3a414a"/><path d="M-1770 3430.9l-4.63-14.26h9.27z" stroke="#3a414a" stroke-width="5" fill="#3a414a"/><path d="M-1770 2043.5V3134a6 6 0 0 0 6 6H24a6 6 0 0 1 6 6v268.14" stroke="#3a414a" stroke-width="5" fill="none"/><path d="M-1767.53 2043.56h-4.94V2041h4.94z" stroke="#3a414a" stroke-width=".05" fill="#3a414a"/><path d="M30 3430.9l-4.64-14.26h9.27z" stroke="#3a414a" stroke-width="5" fill="#3a414a"/><path d="M1850 3753.5v190.64" stroke="#3a414a" stroke-width="5" fill="none"/><path d="M1852.47 3753.56h-4.94V3751h4.94z" stroke="#3a414a" stroke-width=".05" fill="#3a414a"/><path d="M1850 3960.9l-4.63-14.26h9.27z" stroke="#3a414a" stroke-width="5" fill="#3a414a"/><path d="M-540-554a6 6 0 0 1 6-6H734a6 6 0 0 1 6 6v262.44a6 6 0 0 1-6 6H-534a6 6 0 0 1-6-6z" stroke="#000" stroke-opacity="0" stroke-width="2" fill="#fff" fill-opacity="0"/><use xlink:href="#E" transform="matrix(1,0,0,1,-535,-555) translate(123.16666666666703 152.76041666666663)"/><use xlink:href="#F" transform="matrix(1,0,0,1,-535,-555) translate(374.6022222222224 152.76041666666663)"/><use xlink:href="#G" transform="matrix(1,0,0,1,-535,-555) translate(747.0688888888888 152.76041666666663)"/><path d="M-540 2746a6 6 0 0 1 6-6H734a6 6 0 0 1 6 6v262.44a6 6 0 0 1-6 6H-534a6 6 0 0 1-6-6z" stroke="#000" stroke-opacity="0" stroke-width="2" fill="#fff" fill-opacity="0"/><use xlink:href="#H" transform="matrix(1,0,0,1,-535,2745) translate(19.977777777778215 152.76041666666663)"/><use xlink:href="#I" transform="matrix(1,0,0,1,-535,2745) translate(416.4533333333335 152.76041666666663)"/><use xlink:href="#J" transform="matrix(1,0,0,1,-535,2745) translate(920.9688888888887 152.76041666666663)"/><path d="M30 4243.5v4.93m0 19.73v9.86m0 19.72v9.86m0 19.73v9.86m0 19.72v9.86m0 19.72v9.87m0 19.72v9.85m0 19.73v9.86m0 19.72v9.87m0 19.72v9.86m0 19.74v9.86m0 19.72v9.87m0 19.7v9.88m0 19.72v9.86m0 19.73v9.85m0 19.72v9.86m0 19.73v9.86m0 19.73v9.86m0 19.73v9.87m0 19.72v9.86m0 19.73v9.87m0 19.73v9.86m0 19.72v9.86m0 19.73v4.93l.07.94.22.9.35.88.5.8.6.72.72.6.8.5.88.37.9.23.95.07h5.05m20.2 0h10.08m20.2 0h10.1m20.18 0h10.1m20.2 0h10.1m20.18 0h10.1m20.2 0h10.08m20.2 0h10.1m20.18 0h10.1m20.18 0h10.1m20.2 0h10.08m20.2 0h10.1m20.18 0h10.1m20.2 0h10.08m20.2 0h10.1m20.18 0h10.1m20.18 0h10.1m20.2 0h10.08m20.2 0h10.1m20.18 0h10.1m20.2 0h10.08m20.2 0h10.1m20.18 0h10.1m20.18 0h10.1m20.2 0h10.08m20.2 0h10.1m20.18 0h10.1m20.2 0h10.08m20.2 0H884l.94-.07.9-.22.88-.35.8-.5.72-.6.6-.72.5-.8.37-.88.23-.9.07-.95v-5.02m0-20.1v-10.04m0-20.1v-10.03m0-20.08v-10.05m0-20.1v-10.03m0-20.1v-10.04m0-20.1v-10.04m0-20.1v-10.03m0-20.1v-10.04m0-20.1v-10.04m0-20.1v-10.04m0-20.1v-10.03m0-20.1v-10.05m0-20.1v-10.03m0-20.1v-10.04m0-20.1v-10.04m0-20.1v-10.03m0-20.08v-10.05m0-20.1v-10.03m0-20.1v-10.04m0-20.1v-10.03m0-20.1v-10.04m0-20.1V4256m0-20.1v-10.04m0-20.1v-10.04m0-20.1v-10.03m0-20.1v-10.05m0-20.1v-10.03m0-20.1v-10.04m0-20.1v-10.03m0-20.1v-10.04m0-20.08v-10.05m0-20.1v-10.03m0-20.1v-10.04m0-20.1v-10.03m0-20.1v-10.04m0-20.1v-10.03m0-20.1v-10.04m0-20.1v-10.04m0-20.1v-10.03m0-20.1v-10.05m0-20.1v-10.03m0-20.1v-10.04m0-20.1v-10.03m0-20.1v-10.04m0-20.08v-10.04m0-20.1v-10.04m0-20.1v-10.03m0-20.1v-10.03m0-20.1v-10.04m0-20.1v-10.03m0-20.1v-10.04m0-20.1v-10.03m0-20.1v-10.04m0-20.1v-10.04m0-20.1v-10.04m0-20.1v-10.04m0-20.1v-10.03m0-20.1v-10.04m0-20.08V3146l.07-.94.22-.9.35-.88.5-.8.6-.72.72-.6.8-.5.88-.37.9-.23.95-.07h4.94m19.75 0h9.86m19.75 0h9.9m19.74 0h9.87m19.76 0h9.88m19.75 0h9.86m19.75 0h9.9m19.74 0h9.87m19.76 0h9.88m19.75 0h9.86m19.75 0h9.9m19.74 0h9.87m19.76 0h9.88m19.75 0h9.86m19.75 0h9.9m19.74 0h9.87m19.76 0h9.88m19.75 0h9.86m19.75 0h9.9m19.74 0h9.87m19.76 0h9.88m19.75 0h9.86m19.75 0h9.9m19.74 0h9.87m19.76 0h9.88m19.75 0h9.86m19.75 0h9.9m19.74 0h9.87m19.76 0h9.88m19.75 0h9.86m19.75 0h9.9m19.74 0h9.87m19.76 0h4.94l.94.07.9.22.88.35.8.5.72.6.6.72.5.8.37.88.23.9.07.95v4.97m0 19.86v9.93m0 19.86v9.93m0 19.87v9.93m0 19.86v9.94m0 19.86v9.93m0 19.87v9.93m0 19.86v9.92m0 19.87v9.92m0 19.86v4.96" stroke="#3a414a" stroke-width="5" fill="none"/><path d="M32.48 4243.56h-4.95V4241h4.95z" stroke="#3a414a" stroke-width=".05" fill="#3a414a"/><path d="M1850 3430.9l-4.63-14.26h9.27z" stroke="#3a414a" stroke-width="5" fill="#3a414a"/><path d="M-1770 4523.5v5.14m0 20.53v10.27m0 20.54v10.27m0 20.54v10.26m0 20.54v10.26m0 20.54v10.27m0 20.54v10.28m0 20.54v10.27m0 20.53v10.27m0 20.53v10.27m0 20.54v10.27m0 20.55v10.27m0 20.54v10.27m0 20.53v5.14l.07.94.22.9.35.88.5.8.6.72.72.6.8.5.88.37.9.23.95.07h5.02m20.06 0h10.03m20.07 0h10.03m20.06 0h10.03m20.05 0h10.03m20.06 0h10.03m20.06 0h10.03m20.06 0h10.03m20.06 0h10.04m20.06 0h10.03m20.06 0h10.02m20.06 0h10.04m20.06 0h10.03m20.07 0h10.03m20.06 0h10.03m20.05 0h10.03m20.06 0h10.03m20.06 0h10.03m20.06 0h10.03m20.06 0h10.04m20.06 0h10.03m20.06 0h10.02m20.06 0h10.04m20.06 0h10.03m20.07 0h10.03m20.06 0h10.03m20.05 0h10.03m20.06 0h10.03m20.06 0h10.03m20.06 0h10.03m20.06 0h10.04m20.06 0h10.03m20.06 0h10.02m20.07 0h10m20.08 0h10.03m20.07 0h10.03m20.06 0h10.03m20.05 0h10.03m20.06 0h10.03m20.06 0h10.03m20.06 0h10.03m20.06 0h10.04m20.06 0h10.03m20.06 0h10.02m20.06 0H-435m20.08 0h10.03m20.07 0h10.03m20.06 0h10.03m20.05 0h10.03m20.06 0h10.03m20.06 0h10.03m20.06 0h10.03m20.06 0h10.04m20.06 0h10.03m20.06 0h10.02m20.07 0H-104m20.06 0h10.03m20.07 0h10.03m20.06 0h10.03m20.05 0h10.03m20.06 0h10.03m20.06 0h10.03m20.06 0h10.03m20.06 0h10.04m20.06 0h10.03m20.06 0h10.02m20.07 0h10m20.08 0h10.03m20.07 0h10.03m20.06 0h10.03m20.05 0h10.03m20.06 0h10.03m20.06 0h10.03m20.06 0h10.03m20.06 0h10.04m20.06 0h10.03m20.06 0h10.02m20.07 0h10m20.08 0h10.03m20.07 0h10.03m20.06 0h10.03m20.05 0h10.03m20.06 0h10.03m20.06 0h10.03m20.06 0h10.03m20.06 0h10.04m20.06 0h10.03m20.06 0h10.02m20.07 0h5l.94-.07.9-.22.88-.35.8-.5.72-.6.6-.72.5-.8.37-.88.23-.9.07-.95v-5.02m0-20.1v-10.04m0-20.1v-10.03m0-20.08v-10.05m0-20.1v-10.03m0-20.1v-10.04m0-20.1v-10.04m0-20.1v-10.03m0-20.1v-10.04m0-20.1v-10.04m0-20.1v-10.04m0-20.1v-10.03m0-20.1v-10.05m0-20.1v-10.03m0-20.1v-10.04m0-20.1v-10.04m0-20.1v-10.03m0-20.08v-10.05m0-20.1v-10.03m0-20.1v-10.04m0-20.1v-10.03m0-20.1v-10.04m0-20.1V4256m0-20.1v-10.04m0-20.1v-10.04m0-20.1v-10.03m0-20.1v-10.05m0-20.1v-10.03m0-20.1v-10.04m0-20.1v-10.03m0-20.1v-10.04m0-20.08v-10.05m0-20.1v-10.03m0-20.1v-10.04m0-20.1v-10.03m0-20.1v-10.04m0-20.1v-10.03m0-20.1v-10.04m0-20.1v-10.04m0-20.1v-10.03m0-20.1v-10.05m0-20.1v-10.03m0-20.1v-10.04m0-20.1v-10.03m0-20.1v-10.04m0-20.08v-10.04m0-20.1v-10.04m0-20.1v-10.03m0-20.1v-10.03m0-20.1v-10.04m0-20.1v-10.03m0-20.1v-10.04m0-20.1v-10.03m0-20.1v-10.04m0-20.1v-10.04m0-20.1v-10.04m0-20.1v-10.04m0-20.1v-10.03m0-20.1v-10.04m0-20.08V3146l.07-.94.22-.9.35-.88.5-.8.6-.72.72-.6.8-.5.88-.37.9-.23.95-.07h4.94m19.75 0h9.86m19.75 0h9.9m19.74 0h9.87m19.76 0h9.88m19.75 0h9.86m19.75 0h9.9m19.74 0h9.87m19.76 0h9.88m19.75 0h9.86m19.75 0h9.9m19.74 0h9.87m19.76 0h9.88m19.75 0h9.86m19.75 0h9.9m19.74 0h9.87m19.76 0h9.88m19.75 0h9.86m19.75 0h9.9m19.74 0h9.87m19.76 0h9.88m19.75 0h9.86m19.75 0h9.9m19.74 0h9.87m19.76 0h9.88m19.75 0h9.86m19.75 0h9.9m19.74 0h9.87m19.76 0h9.88m19.75 0h9.86m19.75 0h9.9m19.74 0h9.87m19.76 0h4.94l.94.07.9.22.88.35.8.5.72.6.6.72.5.8.37.88.23.9.07.95v4.97m0 19.86v9.93m0 19.86v9.93m0 19.87v9.93m0 19.86v9.94m0 19.86v9.93m0 19.87v9.93m0 19.86v9.92m0 19.87v9.92m0 19.86v4.96" stroke="#3a414a" stroke-width="5" fill="none"/><path d="M-1767.53 4523.56h-4.94V4521h4.94z" stroke="#3a414a" stroke-width=".05" fill="#3a414a"/><path d="M1850 3430.9l-4.63-14.26h9.27z" stroke="#3a414a" stroke-width="5" fill="#3a414a"/><defs><path fill="#3a414a" d="M25-699h324c232 0 276 100 276 214 0 157-159 212-339 198v155h61V0H25v-132h56v-436H25v-131zm261 130v174c79 7 143-14 143-83 0-78-59-99-143-91" id="K"/><path fill="#3a414a" d="M308 0H25v-131h44v-239H26v-130h188l30 64c26-48 52-89 155-89v180c-90 0-141 23-141 111v103h50V0" id="L"/><path fill="#3a414a" d="M290 13C147 13 9-75 11-252c1-167 136-260 274-260 158 0 275 97 278 264C565-82 442 13 290 13zm0-128c43 0 68-58 68-133s-26-133-73-134c-39 0-69 58-69 131 0 82 32 136 74 136" id="M"/><path fill="#3a414a" d="M25 73h42v-440H25v-133h229l17 35c19-14 61-43 121-43 156 0 236 120 236 262 0 159-99 257-228 257-83 0-123-33-130-39V73h54v131H25V73zm388-317c0-60-28-123-72-123-39 0-71 49-71 128 0 68 34 120 72 120 42 0 71-49 71-125" id="N"/><path fill="#3a414a" d="M15 0v-180h134c0 53 76 67 106 67 20 0 44-6 44-34 0-30-75-35-147-60-68-24-133-66-133-160 0-173 265-184 325-67l8-66h123v180H345c0-42-52-76-102-76-21 0-39 11-39 36 0 28 59 40 123 62 76 26 161 55 161 160 0 94-89 150-186 150-72 0-129-35-153-73l-9 61H15" id="O"/><path fill="#3a414a" d="M78-342L36-458c40-24 126-71 218-71 120 0 271 45 271 206v195h60V0H371l-24-45c-37 51-99 64-135 64-95 0-197-51-197-167 0-113 95-184 208-184 59 0 94 29 99 35 28-141-187-88-244-45zm244 198c2-49 3-67-59-67-40 0-58 22-58 53 0 28 23 47 53 47s55-18 64-33" id="P"/><path fill="#3a414a" d="M317 0H25v-131h43v-490H26v-129h232v619h59V0" id="Q"/><g id="a"><use transform="matrix(0.04888888888888884,0,0,0.04888888888888884,0,0)" xlink:href="#K"/><use transform="matrix(0.04888888888888884,0,0,0.04888888888888884,31.28888888888886,0)" xlink:href="#L"/><use transform="matrix(0.04888888888888884,0,0,0.04888888888888884,51.528888888888844,0)" xlink:href="#M"/><use transform="matrix(0.04888888888888884,0,0,0.04888888888888884,79.59111111111105,0)" xlink:href="#N"/><use transform="matrix(0.04888888888888884,0,0,0.04888888888888884,110.78222222222215,0)" xlink:href="#M"/><use transform="matrix(0.04888888888888884,0,0,0.04888888888888884,138.84444444444432,0)" xlink:href="#O"/><use transform="matrix(0.04888888888888884,0,0,0.04888888888888884,163.67999999999986,0)" xlink:href="#P"/><use transform="matrix(0.04888888888888884,0,0,0.04888888888888884,193.01333333333318,0)" xlink:href="#Q"/></g><path fill="#3a414a" d="M333 0H25v-131h42v-239H25v-130h213l23 62c34-47 80-80 143-80 155 0 181 115 181 220v167h47V0H380v-273c0-34 3-93-56-93-96 0-53 143-63 235h72V0" id="R"/><path fill="#3a414a" d="M322 0H25v-131h42v-236H25v-132h189l22 59c16-19 62-73 125-73 101 0 133 48 149 72 31-35 78-72 147-72 216 0 185 188 187 378h49V0H639v-245c0-48 9-124-38-124-43 0-53 30-53 73v162h60V0H349v-255c0-81-2-114-42-114-32 0-45 19-45 60v178h60V0" id="S"/><path fill="#3a414a" d="M443-166l84 97C453-5 373 18 269 18 145 18 5-61 5-253c0-164 118-261 269-261 181 0 288 113 241 314H200c6 27 19 82 103 82 34 0 86-3 140-48zM203-299h151c-1-38-10-80-74-80-61 0-75 55-77 80" id="T"/><path fill="#3a414a" d="M260-815l103 106c-48 58-154 181-154 397 0 223 95 344 154 414L260 209C152 111 25-84 25-312c0-236 152-431 235-503" id="U"/><path fill="#3a414a" d="M25-708l103-106c83 72 235 267 235 503 0 228-127 423-235 521L25 103C84 33 179-88 179-311c0-216-106-339-154-397" id="V"/><g id="b"><use transform="matrix(0.037777777777777764,0,0,0.037777777777777764,0,0)" xlink:href="#R"/><use transform="matrix(0.037777777777777764,0,0,0.037777777777777764,24.442222222222213,0)" xlink:href="#P"/><use transform="matrix(0.037777777777777764,0,0,0.037777777777777764,47.10888888888887,0)" xlink:href="#S"/><use transform="matrix(0.037777777777777764,0,0,0.037777777777777764,81.41111111111108,0)" xlink:href="#T"/><use transform="matrix(0.037777777777777764,0,0,0.037777777777777764,101.88666666666663,0)" xlink:href="#U"/><use transform="matrix(0.037777777777777764,0,0,0.037777777777777764,116.54444444444441,0)" xlink:href="#V"/></g><path fill="#3a414a" d="M368-620h-46v-130h249v620h48V0H385l-17-37C355-25 311 9 242 9 101 9 10-116 10-255c0-156 109-255 232-255 71 0 107 26 126 38v-148zM225-255c0 60 28 123 72 123 39 0 71-49 71-128 0-68-34-120-72-120-42 0-71 49-71 125" id="W"/><path fill="#3a414a" d="M507-274H360c-2-48-17-105-63-105-59 0-88 63-88 128s39 117 103 118c53 1 88-21 121-57l88 102C474-37 384 14 276 14 129 14 1-75 1-253c0-177 118-256 246-256 68 0 108 37 125 57l17-48h118v226" id="X"/><path fill="#3a414a" d="M53-646c0-46 38-102 108-102 144 0 147 205 0 203-63 0-108-53-108-101zM305 0H25v-131h42v-239H25v-130h232v369h48V0" id="Y"/><path fill="#3a414a" d="M15-500h54v-92l184-59v151h95v130h-95v178c0 34-7 80 32 80 13 0 44-9 63-17V-1c-30 12-98 19-121 19C77 18 69-64 69-192v-178H15v-130" id="Z"/><g id="c"><use transform="matrix(0.037777777777777764,0,0,0.037777777777777764,0,0)" xlink:href="#W"/><use transform="matrix(0.037777777777777764,0,0,0.037777777777777764,23.951111111111103,0)" xlink:href="#T"/><use transform="matrix(0.037777777777777764,0,0,0.037777777777777764,44.42666666666665,0)" xlink:href="#O"/><use transform="matrix(0.037777777777777764,0,0,0.037777777777777764,63.617777777777754,0)" xlink:href="#X"/><use transform="matrix(0.037777777777777764,0,0,0.037777777777777764,83.67777777777775,0)" xlink:href="#L"/><use transform="matrix(0.037777777777777764,0,0,0.037777777777777764,99.31777777777775,0)" xlink:href="#Y"/><use transform="matrix(0.037777777777777764,0,0,0.037777777777777764,111.7844444444444,0)" xlink:href="#N"/><use transform="matrix(0.037777777777777764,0,0,0.037777777777777764,135.88666666666663,0)" xlink:href="#Z"/><use transform="matrix(0.037777777777777764,0,0,0.037777777777777764,149.59999999999997,0)" xlink:href="#Y"/><use transform="matrix(0.037777777777777764,0,0,0.037777777777777764,162.06666666666663,0)" xlink:href="#M"/><use transform="matrix(0.037777777777777764,0,0,0.037777777777777764,183.75111111111107,0)" xlink:href="#R"/><use transform="matrix(0.037777777777777764,0,0,0.037777777777777764,208.19333333333327,0)" xlink:href="#U"/><use transform="matrix(0.037777777777777764,0,0,0.037777777777777764,222.85111111111104,0)" xlink:href="#V"/></g><path fill="#3a414a" d="M15-500h242v241c0 86 13 126 54 126 35 0 63-31 63-76v-159h-66v-132h259v367h49V0H427l-27-63c-22 25-57 77-142 77C107 14 57-64 57-230v-138H15v-132" id="aa"/><g id="d"><use transform="matrix(0.037777777777777764,0,0,0.037777777777777764,0,0)" xlink:href="#L"/><use transform="matrix(0.037777777777777764,0,0,0.037777777777777764,15.639999999999995,0)" xlink:href="#aa"/><use transform="matrix(0.037777777777777764,0,0,0.037777777777777764,39.47777777777777,0)" xlink:href="#R"/><use transform="matrix(0.037777777777777764,0,0,0.037777777777777764,63.91999999999998,0)" xlink:href="#U"/><use transform="matrix(0.037777777777777764,0,0,0.037777777777777764,78.57777777777775,0)" xlink:href="#V"/></g><path fill="#3a414a" d="M24 117L77 6c23 20 98 64 174 64 106 0 120-54 116-128-14 18-53 55-117 55C78-3 10-127 10-253c0-155 86-257 251-257 44 0 86 21 106 41l20-31h238v131h-60v299c0 166-102 275-312 275-110 0-191-53-229-88zm199-372c0 60 28 123 72 123 39 0 71-49 71-128 0-68-34-120-72-120-42 0-71 49-71 125" id="ab"/><path fill="#3a414a" d="M554-253l117 128C603-50 499 16 368 16 156 16 15-120 15-343c0-230 173-368 304-368 100 0 145 56 154 68l23-56h157v284H474c-3-65-35-126-106-126-72 0-119 89-119 198 0 99 51 188 146 188 84 0 150-88 159-98" id="ac"/><g id="e"><use transform="matrix(0.037777777777777764,0,0,0.037777777777777764,0,0)" xlink:href="#ab"/><use transform="matrix(0.037777777777777764,0,0,0.037777777777777764,24.17777777777777,0)" xlink:href="#T"/><use transform="matrix(0.037777777777777764,0,0,0.037777777777777764,44.65333333333333,0)" xlink:href="#Z"/><use transform="matrix(0.037777777777777764,0,0,0.037777777777777764,58.366666666666646,0)" xlink:href="#ac"/><use transform="matrix(0.037777777777777764,0,0,0.037777777777777764,84.28222222222219,0)" xlink:href="#P"/><use transform="matrix(0.037777777777777764,0,0,0.037777777777777764,106.94888888888885,0)" xlink:href="#Q"/><use transform="matrix(0.037777777777777764,0,0,0.037777777777777764,119.49111111111107,0)" xlink:href="#Q"/><use transform="matrix(0.037777777777777764,0,0,0.037777777777777764,132.03333333333327,0)" xlink:href="#W"/><use transform="matrix(0.037777777777777764,0,0,0.037777777777777764,155.98444444444436,0)" xlink:href="#P"/><use transform="matrix(0.037777777777777764,0,0,0.037777777777777764,178.65111111111102,0)" xlink:href="#Z"/><use transform="matrix(0.037777777777777764,0,0,0.037777777777777764,192.3644444444444,0)" xlink:href="#P"/><use transform="matrix(0.037777777777777764,0,0,0.037777777777777764,215.031111111111,0)" xlink:href="#U"/><use transform="matrix(0.037777777777777764,0,0,0.037777777777777764,229.68888888888878,0)" xlink:href="#V"/></g><path fill="#3a414a" d="M686-699v260H539v-128h-84v434h83V0H166v-133h82v-434h-86v128H15v-260h671" id="ad"/><path fill="#3a414a" d="M38 0v-130h41v-489H38v-131h231v452l116-69h-72v-132h280v132h-77l-68 43 135 193h50V0H337v-131h42l-76-108-35 24v84h37V0H38" id="ae"/><g id="f"><use transform="matrix(0.04888888888888884,0,0,0.04888888888888884,0,0)" xlink:href="#ad"/><use transform="matrix(0.04888888888888884,0,0,0.04888888888888884,34.271111111111075,0)" xlink:href="#Y"/><use transform="matrix(0.04888888888888884,0,0,0.04888888888888884,50.404444444444394,0)" xlink:href="#S"/><use transform="matrix(0.04888888888888884,0,0,0.04888888888888884,94.79555555555547,0)" xlink:href="#T"/><use transform="matrix(0.04888888888888884,0,0,0.04888888888888884,121.29333333333322,0)" xlink:href="#Q"/><use transform="matrix(0.04888888888888884,0,0,0.04888888888888884,137.52444444444433,0)" xlink:href="#M"/><use transform="matrix(0.04888888888888884,0,0,0.04888888888888884,165.58666666666653,0)" xlink:href="#X"/><use transform="matrix(0.04888888888888884,0,0,0.04888888888888884,191.5466666666665,0)" xlink:href="#ae"/><use transform="matrix(0.04888888888888884,0,0,0.04888888888888884,223.51999999999978,0)" xlink:href="#K"/><use transform="matrix(0.04888888888888884,0,0,0.04888888888888884,254.8088888888887,0)" xlink:href="#L"/><use transform="matrix(0.04888888888888884,0,0,0.04888888888888884,275.04888888888865,0)" xlink:href="#M"/><use transform="matrix(0.04888888888888884,0,0,0.04888888888888884,303.11111111111086,0)" xlink:href="#N"/><use transform="matrix(0.04888888888888884,0,0,0.04888888888888884,334.3022222222219,0)" xlink:href="#M"/><use transform="matrix(0.04888888888888884,0,0,0.04888888888888884,362.36444444444413,0)" xlink:href="#O"/><use transform="matrix(0.04888888888888884,0,0,0.04888888888888884,387.19999999999965,0)" xlink:href="#P"/><use transform="matrix(0.04888888888888884,0,0,0.04888888888888884,416.53333333333296,0)" xlink:href="#Q"/></g><path fill="#3a414a" d="M25 0v-252h186c0 84 84 100 126 100 35 0 85-8 85-50 0-78-384-45-384-300 0-148 140-215 238-215 84 0 169 27 209 102l10-84h172v251H486c0-74-58-116-128-116-29 0-69 18-69 53 0 103 396 79 396 314C685-41 539 15 420 15c-101 0-171-47-209-92L200 0H25" id="af"/><path fill="#3a414a" d="M339 0H25v-131h42v-489H25v-130h242v312c11-18 84-80 157-80 155 0 175 115 175 220v167h47V0H389v-272c0-34 0-93-59-93-96 0-53 142-63 234h72V0" id="ag"/><g id="g"><use transform="matrix(0.037777777777777764,0,0,0.037777777777777764,0,0)" xlink:href="#ab"/><use transform="matrix(0.037777777777777764,0,0,0.037777777777777764,24.17777777777777,0)" xlink:href="#T"/><use transform="matrix(0.037777777777777764,0,0,0.037777777777777764,44.65333333333333,0)" xlink:href="#Z"/><use transform="matrix(0.037777777777777764,0,0,0.037777777777777764,58.366666666666646,0)" xlink:href="#af"/><use transform="matrix(0.037777777777777764,0,0,0.037777777777777764,85.18888888888885,0)" xlink:href="#X"/><use transform="matrix(0.037777777777777764,0,0,0.037777777777777764,105.24888888888883,0)" xlink:href="#ag"/><use transform="matrix(0.037777777777777764,0,0,0.037777777777777764,130.21999999999994,0)" xlink:href="#T"/><use transform="matrix(0.037777777777777764,0,0,0.037777777777777764,150.6955555555555,0)" xlink:href="#W"/><use transform="matrix(0.037777777777777764,0,0,0.037777777777777764,174.64666666666662,0)" xlink:href="#aa"/><use transform="matrix(0.037777777777777764,0,0,0.037777777777777764,198.48444444444436,0)" xlink:href="#Q"/><use transform="matrix(0.037777777777777764,0,0,0.037777777777777764,211.02666666666659,0)" xlink:href="#T"/><use transform="matrix(0.037777777777777764,0,0,0.037777777777777764,231.50222222222214,0)" xlink:href="#ac"/><use transform="matrix(0.037777777777777764,0,0,0.037777777777777764,257.4177777777777,0)" xlink:href="#P"/><use transform="matrix(0.037777777777777764,0,0,0.037777777777777764,280.08444444444433,0)" xlink:href="#Q"/><use transform="matrix(0.037777777777777764,0,0,0.037777777777777764,292.62666666666655,0)" xlink:href="#Q"/><use transform="matrix(0.037777777777777764,0,0,0.037777777777777764,305.1688888888888,0)" xlink:href="#W"/><use transform="matrix(0.037777777777777764,0,0,0.037777777777777764,329.1199999999999,0)" xlink:href="#P"/><use transform="matrix(0.037777777777777764,0,0,0.037777777777777764,351.7866666666665,0)" xlink:href="#Z"/><use transform="matrix(0.037777777777777764,0,0,0.037777777777777764,365.4999999999998,0)" xlink:href="#P"/><use transform="matrix(0.037777777777777764,0,0,0.037777777777777764,388.1666666666665,0)" xlink:href="#U"/><use transform="matrix(0.037777777777777764,0,0,0.037777777777777764,402.8244444444443,0)" xlink:href="#V"/></g><path fill="#3a414a" d="M25-699h603v221H455v-89H295v138h190v133H295v163h160v-93h173V0H25v-133h63v-434H25v-132" id="ah"/><path fill="#3a414a" d="M375-500h255v125h-66L458-268l126 144h47V0H312v-124h47l-76-81-72 81h65V0H20v-124h67l102-115L65-375H20v-125h324v125h-47l70 76 75-76h-67v-125" id="ai"/><path fill="#3a414a" d="M25 0v-133h62v-434H25v-132h305c242 0 380 149 380 340C710-131 572 0 326 0H25zm267-133c140 15 188-87 188-226 0-120-51-225-188-208v434" id="aj"/><g id="h"><use transform="matrix(0.037777777777777764,0,0,0.037777777777777764,0,0)" xlink:href="#ab"/><use transform="matrix(0.037777777777777764,0,0,0.037777777777777764,24.17777777777777,0)" xlink:href="#T"/><use transform="matrix(0.037777777777777764,0,0,0.037777777777777764,44.65333333333333,0)" xlink:href="#Z"/><use transform="matrix(0.037777777777777764,0,0,0.037777777777777764,58.366666666666646,0)" xlink:href="#ah"/><use transform="matrix(0.037777777777777764,0,0,0.037777777777777764,83.03555555555553,0)" xlink:href="#ai"/><use transform="matrix(0.037777777777777764,0,0,0.037777777777777764,107.5533333333333,0)" xlink:href="#T"/><use transform="matrix(0.037777777777777764,0,0,0.037777777777777764,128.02888888888884,0)" xlink:href="#X"/><use transform="matrix(0.037777777777777764,0,0,0.037777777777777764,148.08888888888885,0)" xlink:href="#aa"/><use transform="matrix(0.037777777777777764,0,0,0.037777777777777764,171.9266666666666,0)" xlink:href="#Z"/><use transform="matrix(0.037777777777777764,0,0,0.037777777777777764,185.63999999999996,0)" xlink:href="#T"/><use transform="matrix(0.037777777777777764,0,0,0.037777777777777764,206.11555555555552,0)" xlink:href="#aj"/><use transform="matrix(0.037777777777777764,0,0,0.037777777777777764,233.3155555555555,0)" xlink:href="#P"/><use transform="matrix(0.037777777777777764,0,0,0.037777777777777764,255.98222222222216,0)" xlink:href="#Z"/><use transform="matrix(0.037777777777777764,0,0,0.037777777777777764,269.6955555555555,0)" xlink:href="#P"/><use transform="matrix(0.037777777777777764,0,0,0.037777777777777764,292.36222222222216,0)" xlink:href="#U"/><use transform="matrix(0.037777777777777764,0,0,0.037777777777777764,307.0199999999999,0)" xlink:href="#V"/></g><path fill="#3a414a" d="M373 18C164 18 15-103 15-353c0-216 144-365 351-365 245 0 359 147 359 372 0 226-126 364-352 364zm0-157c63 0 102-83 102-207 0-121-33-218-110-218-61 0-103 87-103 211 0 131 47 214 111 214" id="ak"/><g id="i"><use transform="matrix(0.037777777777777764,0,0,0.037777777777777764,0,0)" xlink:href="#X"/><use transform="matrix(0.037777777777777764,0,0,0.037777777777777764,20.05999999999999,0)" xlink:href="#ag"/><use transform="matrix(0.037777777777777764,0,0,0.037777777777777764,45.031111111111095,0)" xlink:href="#T"/><use transform="matrix(0.037777777777777764,0,0,0.037777777777777764,65.50666666666665,0)" xlink:href="#X"/><use transform="matrix(0.037777777777777764,0,0,0.037777777777777764,85.56666666666663,0)" xlink:href="#ae"/><use transform="matrix(0.037777777777777764,0,0,0.037777777777777764,110.27333333333328,0)" xlink:href="#ak"/><use transform="matrix(0.037777777777777764,0,0,0.037777777777777764,138.22888888888883,0)" xlink:href="#R"/><use transform="matrix(0.037777777777777764,0,0,0.037777777777777764,162.67111111111103,0)" xlink:href="#ac"/><use transform="matrix(0.037777777777777764,0,0,0.037777777777777764,188.5866666666666,0)" xlink:href="#ag"/><use transform="matrix(0.037777777777777764,0,0,0.037777777777777764,213.55777777777772,0)" xlink:href="#P"/><use transform="matrix(0.037777777777777764,0,0,0.037777777777777764,236.22444444444437,0)" xlink:href="#Y"/><use transform="matrix(0.037777777777777764,0,0,0.037777777777777764,248.691111111111,0)" xlink:href="#R"/><use transform="matrix(0.037777777777777764,0,0,0.037777777777777764,273.1333333333332,0)" xlink:href="#ac"/><use transform="matrix(0.037777777777777764,0,0,0.037777777777777764,299.04888888888877,0)" xlink:href="#P"/><use transform="matrix(0.037777777777777764,0,0,0.037777777777777764,321.7155555555554,0)" xlink:href="#Q"/><use transform="matrix(0.037777777777777764,0,0,0.037777777777777764,334.25777777777756,0)" xlink:href="#Q"/><use transform="matrix(0.037777777777777764,0,0,0.037777777777777764,346.7999999999998,0)" xlink:href="#W"/><use transform="matrix(0.037777777777777764,0,0,0.037777777777777764,370.75111111111096,0)" xlink:href="#P"/><use transform="matrix(0.037777777777777764,0,0,0.037777777777777764,393.4177777777776,0)" xlink:href="#Z"/><use transform="matrix(0.037777777777777764,0,0,0.037777777777777764,407.1311111111109,0)" xlink:href="#P"/><use transform="matrix(0.037777777777777764,0,0,0.037777777777777764,429.7977777777776,0)" xlink:href="#U"/><use transform="matrix(0.037777777777777764,0,0,0.037777777777777764,444.45555555555535,0)" xlink:href="#V"/></g><path fill="#3a414a" d="M42 44h539v54H42V44" id="al"/><path fill="#3a414a" d="M808 0H407v-131h95l-21-68H276l-21 68h78V0H15v-131h68l135-439h-41v-129h384l177 568h70V0zM313-319h131l-66-216" id="am"/><g id="j"><use transform="matrix(0.037777777777777764,0,0,0.037777777777777764,0,0)" xlink:href="#al"/><use transform="matrix(0.037777777777777764,0,0,0.037777777777777764,23.83777777777777,0)" xlink:href="#O"/><use transform="matrix(0.037777777777777764,0,0,0.037777777777777764,43.02888888888887,0)" xlink:href="#Y"/><use transform="matrix(0.037777777777777764,0,0,0.037777777777777764,55.49555555555553,0)" xlink:href="#S"/><use transform="matrix(0.037777777777777764,0,0,0.037777777777777764,89.79777777777774,0)" xlink:href="#aa"/><use transform="matrix(0.037777777777777764,0,0,0.037777777777777764,113.63555555555553,0)" xlink:href="#Q"/><use transform="matrix(0.037777777777777764,0,0,0.037777777777777764,126.17777777777775,0)" xlink:href="#P"/><use transform="matrix(0.037777777777777764,0,0,0.037777777777777764,148.8444444444444,0)" xlink:href="#Z"/><use transform="matrix(0.037777777777777764,0,0,0.037777777777777764,162.55777777777774,0)" xlink:href="#T"/><use transform="matrix(0.037777777777777764,0,0,0.037777777777777764,183.0333333333333,0)" xlink:href="#am"/><use transform="matrix(0.037777777777777764,0,0,0.037777777777777764,214.1244444444444,0)" xlink:href="#X"/><use transform="matrix(0.037777777777777764,0,0,0.037777777777777764,234.1844444444444,0)" xlink:href="#Z"/><use transform="matrix(0.037777777777777764,0,0,0.037777777777777764,247.89777777777775,0)" xlink:href="#Y"/><use transform="matrix(0.037777777777777764,0,0,0.037777777777777764,260.3644444444444,0)" xlink:href="#M"/><use transform="matrix(0.037777777777777764,0,0,0.037777777777777764,282.0488888888889,0)" xlink:href="#R"/><use transform="matrix(0.037777777777777764,0,0,0.037777777777777764,306.4911111111111,0)" xlink:href="#O"/><use transform="matrix(0.037777777777777764,0,0,0.037777777777777764,325.68222222222215,0)" xlink:href="#U"/><use transform="matrix(0.037777777777777764,0,0,0.037777777777777764,340.34,0)" xlink:href="#V"/></g><path fill="#3a414a" d="M723-523h-4C682-331 630-180 585 0H376L264-399c-5-17-18-74-21-124h-4v394h57V0H25v-129h54v-441H26v-129h379l101 374 96-374h381v129h-55v440h55V0H667v-130h56v-393" id="an"/><g id="k"><use transform="matrix(0.04888888888888884,0,0,0.04888888888888884,0,0)" xlink:href="#an"/><use transform="matrix(0.04888888888888884,0,0,0.04888888888888884,49.27999999999995,0)" xlink:href="#aa"/><use transform="matrix(0.04888888888888884,0,0,0.04888888888888884,80.12888888888881,0)" xlink:href="#Q"/><use transform="matrix(0.04888888888888884,0,0,0.04888888888888884,96.3599999999999,0)" xlink:href="#Z"/><use transform="matrix(0.04888888888888884,0,0,0.04888888888888884,114.10666666666654,0)" xlink:href="#Y"/><use transform="matrix(0.04888888888888884,0,0,0.04888888888888884,130.23999999999987,0)" xlink:href="#O"/><use transform="matrix(0.04888888888888884,0,0,0.04888888888888884,155.0755555555554,0)" xlink:href="#Y"/><use transform="matrix(0.04888888888888884,0,0,0.04888888888888884,171.20888888888874,0)" xlink:href="#ab"/><use transform="matrix(0.04888888888888884,0,0,0.04888888888888884,202.4977777777776,0)" xlink:href="#K"/><use transform="matrix(0.04888888888888884,0,0,0.04888888888888884,233.78666666666643,0)" xlink:href="#L"/><use transform="matrix(0.04888888888888884,0,0,0.04888888888888884,254.02666666666642,0)" xlink:href="#M"/><use transform="matrix(0.04888888888888884,0,0,0.04888888888888884,282.0888888888886,0)" xlink:href="#N"/><use transform="matrix(0.04888888888888884,0,0,0.04888888888888884,313.2799999999997,0)" xlink:href="#M"/><use transform="matrix(0.04888888888888884,0,0,0.04888888888888884,341.3422222222219,0)" xlink:href="#O"/><use transform="matrix(0.04888888888888884,0,0,0.04888888888888884,366.1777777777774,0)" xlink:href="#P"/><use transform="matrix(0.04888888888888884,0,0,0.04888888888888884,395.5111111111107,0)" xlink:href="#Q"/></g><path fill="#3a414a" d="M521 0l-31-63C468-26 406 9 329 9 154 9 15-127 15-343c0-218 151-368 307-368 145 0 179 68 195 84l21-72h149v295H508c-3-81-55-127-114-127-81 0-137 88-137 188 0 102 50 184 137 184 57 0 81-23 96-49v-42h-61v-107h332v107h-40V0H521" id="ao"/><path fill="#3a414a" d="M326-162h4c4-63 52-157 78-211h-53v-127h258v127h-52L388 0H233L47-373H0v-127h304v127h-50c26 56 66 145 72 211" id="ap"/><path fill="#3a414a" d="M25 0v-130h58v-440H25v-129h373c166 0 245 62 245 171 0 84-23 125-98 155 72 20 132 73 132 170C677-62 598 0 405 0H25zm265-567v150h61c53 0 68-29 68-77 0-73-57-78-129-73zm0 437c88 6 161 2 161-86 0-51-29-88-84-88h-77v174" id="aq"/><g id="l"><use transform="matrix(0.04888888888888884,0,0,0.04888888888888884,0,0)" xlink:href="#ao"/><use transform="matrix(0.04888888888888884,0,0,0.04888888888888884,37.93777777777774,0)" xlink:href="#M"/><use transform="matrix(0.04888888888888884,0,0,0.04888888888888884,65.99999999999994,0)" xlink:href="#ap"/><use transform="matrix(0.04888888888888884,0,0,0.04888888888888884,95.9688888888888,0)" xlink:href="#T"/><use transform="matrix(0.04888888888888884,0,0,0.04888888888888884,122.46666666666655,0)" xlink:href="#L"/><use transform="matrix(0.04888888888888884,0,0,0.04888888888888884,142.70666666666654,0)" xlink:href="#R"/><use transform="matrix(0.04888888888888884,0,0,0.04888888888888884,174.3377777777776,0)" xlink:href="#M"/><use transform="matrix(0.04888888888888884,0,0,0.04888888888888884,202.3999999999998,0)" xlink:href="#L"/><use transform="matrix(0.04888888888888884,0,0,0.04888888888888884,222.6399999999998,0)" xlink:href="#aq"/><use transform="matrix(0.04888888888888884,0,0,0.04888888888888884,256.2266666666664,0)" xlink:href="#L"/><use transform="matrix(0.04888888888888884,0,0,0.04888888888888884,276.46666666666636,0)" xlink:href="#P"/><use transform="matrix(0.04888888888888884,0,0,0.04888888888888884,305.79999999999967,0)" xlink:href="#ap"/><use transform="matrix(0.04888888888888884,0,0,0.04888888888888884,335.7688888888885,0)" xlink:href="#M"/><use transform="matrix(0.04888888888888884,0,0,0.04888888888888884,363.8311111111107,0)" xlink:href="#K"/><use transform="matrix(0.04888888888888884,0,0,0.04888888888888884,395.11999999999955,0)" xlink:href="#L"/><use transform="matrix(0.04888888888888884,0,0,0.04888888888888884,415.3599999999995,0)" xlink:href="#M"/><use transform="matrix(0.04888888888888884,0,0,0.04888888888888884,443.4222222222218,0)" xlink:href="#N"/><use transform="matrix(0.04888888888888884,0,0,0.04888888888888884,474.6133333333328,0)" xlink:href="#M"/><use transform="matrix(0.04888888888888884,0,0,0.04888888888888884,502.675555555555,0)" xlink:href="#O"/><use transform="matrix(0.04888888888888884,0,0,0.04888888888888884,527.5111111111106,0)" xlink:href="#P"/><use transform="matrix(0.04888888888888884,0,0,0.04888888888888884,556.8444444444439,0)" xlink:href="#Q"/></g><g id="m"><use transform="matrix(0.037777777777777764,0,0,0.037777777777777764,0,0)" xlink:href="#O"/><use transform="matrix(0.037777777777777764,0,0,0.037777777777777764,19.191111111111105,0)" xlink:href="#Y"/><use transform="matrix(0.037777777777777764,0,0,0.037777777777777764,31.657777777777767,0)" xlink:href="#S"/><use transform="matrix(0.037777777777777764,0,0,0.037777777777777764,65.95999999999998,0)" xlink:href="#aa"/><use transform="matrix(0.037777777777777764,0,0,0.037777777777777764,89.79777777777774,0)" xlink:href="#Q"/><use transform="matrix(0.037777777777777764,0,0,0.037777777777777764,102.33999999999997,0)" xlink:href="#P"/><use transform="matrix(0.037777777777777764,0,0,0.037777777777777764,125.00666666666663,0)" xlink:href="#Z"/><use transform="matrix(0.037777777777777764,0,0,0.037777777777777764,138.71999999999997,0)" xlink:href="#T"/><use transform="matrix(0.037777777777777764,0,0,0.037777777777777764,159.19555555555553,0)" xlink:href="#U"/><use transform="matrix(0.037777777777777764,0,0,0.037777777777777764,173.8533333333333,0)" xlink:href="#V"/></g><path fill="#3a414a" d="M31-436v-263h656l2 133-366 434h186v-128h177V0H25v-130l364-436H201v130H31" id="ar"/><g id="n"><use transform="matrix(0.04888888888888884,0,0,0.04888888888888884,0,0)" xlink:href="#ao"/><use transform="matrix(0.04888888888888884,0,0,0.04888888888888884,37.93777777777774,0)" xlink:href="#M"/><use transform="matrix(0.04888888888888884,0,0,0.04888888888888884,65.99999999999994,0)" xlink:href="#ap"/><use transform="matrix(0.04888888888888884,0,0,0.04888888888888884,95.9688888888888,0)" xlink:href="#T"/><use transform="matrix(0.04888888888888884,0,0,0.04888888888888884,122.46666666666655,0)" xlink:href="#L"/><use transform="matrix(0.04888888888888884,0,0,0.04888888888888884,142.70666666666654,0)" xlink:href="#R"/><use transform="matrix(0.04888888888888884,0,0,0.04888888888888884,174.3377777777776,0)" xlink:href="#M"/><use transform="matrix(0.04888888888888884,0,0,0.04888888888888884,202.3999999999998,0)" xlink:href="#L"/><use transform="matrix(0.04888888888888884,0,0,0.04888888888888884,222.6399999999998,0)" xlink:href="#ak"/><use transform="matrix(0.04888888888888884,0,0,0.04888888888888884,258.8177777777775,0)" xlink:href="#ar"/><use transform="matrix(0.04888888888888884,0,0,0.04888888888888884,293.72444444444415,0)" xlink:href="#K"/><use transform="matrix(0.04888888888888884,0,0,0.04888888888888884,325.013333333333,0)" xlink:href="#L"/><use transform="matrix(0.04888888888888884,0,0,0.04888888888888884,345.253333333333,0)" xlink:href="#M"/><use transform="matrix(0.04888888888888884,0,0,0.04888888888888884,373.3155555555552,0)" xlink:href="#N"/><use transform="matrix(0.04888888888888884,0,0,0.04888888888888884,404.50666666666626,0)" xlink:href="#M"/><use transform="matrix(0.04888888888888884,0,0,0.04888888888888884,432.56888888888847,0)" xlink:href="#O"/><use transform="matrix(0.04888888888888884,0,0,0.04888888888888884,457.40444444444404,0)" xlink:href="#P"/><use transform="matrix(0.04888888888888884,0,0,0.04888888888888884,486.7377777777773,0)" xlink:href="#Q"/></g><g id="o"><use transform="matrix(0.04888888888888884,0,0,0.04888888888888884,0,0)" xlink:href="#am"/><use transform="matrix(0.04888888888888884,0,0,0.04888888888888884,40.235555555555514,0)" xlink:href="#W"/><use transform="matrix(0.04888888888888884,0,0,0.04888888888888884,71.23111111111103,0)" xlink:href="#W"/><use transform="matrix(0.04888888888888884,0,0,0.04888888888888884,102.22666666666657,0)" xlink:href="#L"/><use transform="matrix(0.04888888888888884,0,0,0.04888888888888884,122.46666666666655,0)" xlink:href="#T"/><use transform="matrix(0.04888888888888884,0,0,0.04888888888888884,148.9644444444443,0)" xlink:href="#O"/><use transform="matrix(0.04888888888888884,0,0,0.04888888888888884,173.79999999999984,0)" xlink:href="#O"/><use transform="matrix(0.04888888888888884,0,0,0.04888888888888884,198.63555555555538,0)" xlink:href="#T"/><use transform="matrix(0.04888888888888884,0,0,0.04888888888888884,225.13333333333313,0)" xlink:href="#O"/></g><g id="p"><use transform="matrix(0.037777777777777764,0,0,0.037777777777777764,0,0)" xlink:href="#ab"/><use transform="matrix(0.037777777777777764,0,0,0.037777777777777764,24.17777777777777,0)" xlink:href="#T"/><use transform="matrix(0.037777777777777764,0,0,0.037777777777777764,44.65333333333333,0)" xlink:href="#Z"/><use transform="matrix(0.037777777777777764,0,0,0.037777777777777764,58.366666666666646,0)" xlink:href="#am"/><use transform="matrix(0.037777777777777764,0,0,0.037777777777777764,89.45777777777775,0)" xlink:href="#W"/><use transform="matrix(0.037777777777777764,0,0,0.037777777777777764,113.40888888888885,0)" xlink:href="#W"/><use transform="matrix(0.037777777777777764,0,0,0.037777777777777764,137.35999999999996,0)" xlink:href="#L"/><use transform="matrix(0.037777777777777764,0,0,0.037777777777777764,152.99999999999994,0)" xlink:href="#T"/><use transform="matrix(0.037777777777777764,0,0,0.037777777777777764,173.4755555555555,0)" xlink:href="#O"/><use transform="matrix(0.037777777777777764,0,0,0.037777777777777764,192.6666666666666,0)" xlink:href="#O"/><use transform="matrix(0.037777777777777764,0,0,0.037777777777777764,211.8577777777777,0)" xlink:href="#U"/><use transform="matrix(0.037777777777777764,0,0,0.037777777777777764,226.51555555555547,0)" xlink:href="#V"/></g><g id="q"><use transform="matrix(0.037777777777777764,0,0,0.037777777777777764,0,0)" xlink:href="#P"/><use transform="matrix(0.037777777777777764,0,0,0.037777777777777764,22.666666666666657,0)" xlink:href="#W"/><use transform="matrix(0.037777777777777764,0,0,0.037777777777777764,46.61777777777776,0)" xlink:href="#W"/><use transform="matrix(0.037777777777777764,0,0,0.037777777777777764,70.56888888888886,0)" xlink:href="#am"/><use transform="matrix(0.037777777777777764,0,0,0.037777777777777764,101.65999999999997,0)" xlink:href="#W"/><use transform="matrix(0.037777777777777764,0,0,0.037777777777777764,125.61111111111107,0)" xlink:href="#W"/><use transform="matrix(0.037777777777777764,0,0,0.037777777777777764,149.56222222222218,0)" xlink:href="#L"/><use transform="matrix(0.037777777777777764,0,0,0.037777777777777764,165.20222222222216,0)" xlink:href="#T"/><use transform="matrix(0.037777777777777764,0,0,0.037777777777777764,185.67777777777772,0)" xlink:href="#O"/><use transform="matrix(0.037777777777777764,0,0,0.037777777777777764,204.86888888888882,0)" xlink:href="#O"/><use transform="matrix(0.037777777777777764,0,0,0.037777777777777764,224.05999999999992,0)" xlink:href="#U"/><use transform="matrix(0.037777777777777764,0,0,0.037777777777777764,238.71777777777768,0)" xlink:href="#V"/></g><g id="r"><use transform="matrix(0.037777777777777764,0,0,0.037777777777777764,0,0)" xlink:href="#X"/><use transform="matrix(0.037777777777777764,0,0,0.037777777777777764,20.05999999999999,0)" xlink:href="#ag"/><use transform="matrix(0.037777777777777764,0,0,0.037777777777777764,45.031111111111095,0)" xlink:href="#P"/><use transform="matrix(0.037777777777777764,0,0,0.037777777777777764,67.69777777777776,0)" xlink:href="#R"/><use transform="matrix(0.037777777777777764,0,0,0.037777777777777764,92.13999999999997,0)" xlink:href="#ab"/><use transform="matrix(0.037777777777777764,0,0,0.037777777777777764,116.31777777777774,0)" xlink:href="#T"/><use transform="matrix(0.037777777777777764,0,0,0.037777777777777764,136.7933333333333,0)" xlink:href="#am"/><use transform="matrix(0.037777777777777764,0,0,0.037777777777777764,167.8844444444444,0)" xlink:href="#W"/><use transform="matrix(0.037777777777777764,0,0,0.037777777777777764,191.83555555555552,0)" xlink:href="#W"/><use transform="matrix(0.037777777777777764,0,0,0.037777777777777764,215.78666666666663,0)" xlink:href="#L"/><use transform="matrix(0.037777777777777764,0,0,0.037777777777777764,231.42666666666662,0)" xlink:href="#T"/><use transform="matrix(0.037777777777777764,0,0,0.037777777777777764,251.90222222222218,0)" xlink:href="#O"/><use transform="matrix(0.037777777777777764,0,0,0.037777777777777764,271.0933333333333,0)" xlink:href="#O"/><use transform="matrix(0.037777777777777764,0,0,0.037777777777777764,290.28444444444443,0)" xlink:href="#U"/><use transform="matrix(0.037777777777777764,0,0,0.037777777777777764,304.9422222222222,0)" xlink:href="#V"/></g><path fill="#3a414a" d="M24 0v-54h51V0H24" id="as"/><g id="s"><use transform="matrix(0.14814814814814803,0,0,0.14814814814814803,0,0)" xlink:href="#as"/><use transform="matrix(0.14814814814814803,0,0,0.14814814814814803,14.814814814814802,0)" xlink:href="#as"/><use transform="matrix(0.14814814814814803,0,0,0.14814814814814803,29.629629629629605,0)" xlink:href="#as"/></g><path fill="#3a414a" d="M302 12C135 12 15-107 15-353c0-212 116-359 282-359 196 0 287 145 287 366 0 222-101 358-282 358zm0-155c46 0 81-81 81-203 0-119-38-205-87-205-37 0-83 76-83 198 0 129 49 210 89 210" id="at"/><path fill="#3a414a" d="M71-457L25-568c57-28 102-44 175-131h178v566h93V0H71v-133h100v-371" id="au"/><g id="t"><use transform="matrix(0.04888888888888884,0,0,0.04888888888888884,0,0)" xlink:href="#ad"/><use transform="matrix(0.04888888888888884,0,0,0.04888888888888884,34.271111111111075,0)" xlink:href="#Y"/><use transform="matrix(0.04888888888888884,0,0,0.04888888888888884,50.404444444444394,0)" xlink:href="#S"/><use transform="matrix(0.04888888888888884,0,0,0.04888888888888884,94.79555555555547,0)" xlink:href="#T"/><use transform="matrix(0.04888888888888884,0,0,0.04888888888888884,121.29333333333322,0)" xlink:href="#Q"/><use transform="matrix(0.04888888888888884,0,0,0.04888888888888884,137.52444444444433,0)" xlink:href="#M"/><use transform="matrix(0.04888888888888884,0,0,0.04888888888888884,165.58666666666653,0)" xlink:href="#X"/><use transform="matrix(0.04888888888888884,0,0,0.04888888888888884,191.5466666666665,0)" xlink:href="#ae"/><use transform="matrix(0.04888888888888884,0,0,0.04888888888888884,223.51999999999978,0)" xlink:href="#K"/><use transform="matrix(0.04888888888888884,0,0,0.04888888888888884,254.8088888888887,0)" xlink:href="#L"/><use transform="matrix(0.04888888888888884,0,0,0.04888888888888884,275.04888888888865,0)" xlink:href="#M"/><use transform="matrix(0.04888888888888884,0,0,0.04888888888888884,303.11111111111086,0)" xlink:href="#N"/><use transform="matrix(0.04888888888888884,0,0,0.04888888888888884,334.3022222222219,0)" xlink:href="#M"/><use transform="matrix(0.04888888888888884,0,0,0.04888888888888884,362.36444444444413,0)" xlink:href="#O"/><use transform="matrix(0.04888888888888884,0,0,0.04888888888888884,387.19999999999965,0)" xlink:href="#P"/><use transform="matrix(0.04888888888888884,0,0,0.04888888888888884,416.53333333333296,0)" xlink:href="#Q"/><use transform="matrix(0.04888888888888884,0,0,0.04888888888888884,432.76444444444405,0)" xlink:href="#al"/><use transform="matrix(0.04888888888888884,0,0,0.04888888888888884,463.6133333333329,0)" xlink:href="#at"/><use transform="matrix(0.04888888888888884,0,0,0.04888888888888884,492.8977777777773,0)" xlink:href="#au"/></g><path fill="#3a414a" d="M382-373h-46v-127h254v124h-48L352 86c-29 62-70 144-215 141-52-1-91-24-121-50L91 59c17 15 37 30 58 34 48 7 66-53 78-95L32-372H-9v-128h308v127h-47l65 156" id="av"/><g id="u"><use transform="matrix(0.037777777777777764,0,0,0.037777777777777764,0,0)" xlink:href="#W"/><use transform="matrix(0.037777777777777764,0,0,0.037777777777777764,23.951111111111103,0)" xlink:href="#T"/><use transform="matrix(0.037777777777777764,0,0,0.037777777777777764,44.42666666666665,0)" xlink:href="#N"/><use transform="matrix(0.037777777777777764,0,0,0.037777777777777764,68.52888888888886,0)" xlink:href="#Q"/><use transform="matrix(0.037777777777777764,0,0,0.037777777777777764,81.07111111111108,0)" xlink:href="#M"/><use transform="matrix(0.037777777777777764,0,0,0.037777777777777764,102.75555555555552,0)" xlink:href="#av"/><use transform="matrix(0.037777777777777764,0,0,0.037777777777777764,124.66666666666663,0)" xlink:href="#U"/><use transform="matrix(0.037777777777777764,0,0,0.037777777777777764,139.3244444444444,0)" xlink:href="#V"/></g><path fill="#3a414a" d="M411-743l-60 115c-11-5-28-10-55-10-47 0-28 91-32 138h91v130h-91v239h60V0H26v-131h40v-239H25v-130h41v-85c0-57 18-183 198-183 52 0 121 12 147 25" id="aw"/><g id="v"><use transform="matrix(0.037777777777777764,0,0,0.037777777777777764,0,0)" xlink:href="#P"/><use transform="matrix(0.037777777777777764,0,0,0.037777777777777764,22.666666666666657,0)" xlink:href="#aw"/><use transform="matrix(0.037777777777777764,0,0,0.037777777777777764,37.24888888888887,0)" xlink:href="#Z"/><use transform="matrix(0.037777777777777764,0,0,0.037777777777777764,50.962222222222195,0)" xlink:href="#T"/><use transform="matrix(0.037777777777777764,0,0,0.037777777777777764,71.43777777777774,0)" xlink:href="#L"/><use transform="matrix(0.037777777777777764,0,0,0.037777777777777764,87.07777777777774,0)" xlink:href="#aj"/><use transform="matrix(0.037777777777777764,0,0,0.037777777777777764,114.27777777777774,0)" xlink:href="#T"/><use transform="matrix(0.037777777777777764,0,0,0.037777777777777764,134.75333333333327,0)" xlink:href="#N"/><use transform="matrix(0.037777777777777764,0,0,0.037777777777777764,158.8555555555555,0)" xlink:href="#Q"/><use transform="matrix(0.037777777777777764,0,0,0.037777777777777764,171.39777777777772,0)" xlink:href="#M"/><use transform="matrix(0.037777777777777764,0,0,0.037777777777777764,193.08222222222216,0)" xlink:href="#av"/><use transform="matrix(0.037777777777777764,0,0,0.037777777777777764,214.99333333333325,0)" xlink:href="#an"/><use transform="matrix(0.037777777777777764,0,0,0.037777777777777764,253.07333333333324,0)" xlink:href="#M"/><use transform="matrix(0.037777777777777764,0,0,0.037777777777777764,274.7577777777777,0)" xlink:href="#X"/><use transform="matrix(0.037777777777777764,0,0,0.037777777777777764,294.8177777777777,0)" xlink:href="#ae"/><use transform="matrix(0.037777777777777764,0,0,0.037777777777777764,319.5244444444443,0)" xlink:href="#U"/><use transform="matrix(0.037777777777777764,0,0,0.037777777777777764,334.1822222222221,0)" xlink:href="#V"/></g><path fill="#3a414a" d="M31 0v-130h42v-489H31v-131h242v289c22-26 82-47 131-47 152 0 233 128 230 262-3 154-90 257-231 257-76 0-104-21-132-45L256 0H31zm383-244c0-60-28-123-72-123-39 0-71 49-71 128 0 68 34 120 72 120 42 0 71-49 71-125" id="ax"/><g id="w"><use transform="matrix(0.037777777777777764,0,0,0.037777777777777764,0,0)" xlink:href="#ax"/><use transform="matrix(0.037777777777777764,0,0,0.037777777777777764,24.782222222222213,0)" xlink:href="#aa"/><use transform="matrix(0.037777777777777764,0,0,0.037777777777777764,48.61999999999998,0)" xlink:href="#Y"/><use transform="matrix(0.037777777777777764,0,0,0.037777777777777764,61.086666666666645,0)" xlink:href="#Q"/><use transform="matrix(0.037777777777777764,0,0,0.037777777777777764,73.62888888888887,0)" xlink:href="#W"/><use transform="matrix(0.037777777777777764,0,0,0.037777777777777764,97.57999999999997,0)" xlink:href="#U"/><use transform="matrix(0.037777777777777764,0,0,0.037777777777777764,112.23777777777774,0)" xlink:href="#V"/></g><g id="x"><use transform="matrix(0.037777777777777764,0,0,0.037777777777777764,0,0)" xlink:href="#ap"/><use transform="matrix(0.037777777777777764,0,0,0.037777777777777764,23.15777777777777,0)" xlink:href="#P"/><use transform="matrix(0.037777777777777764,0,0,0.037777777777777764,45.82444444444443,0)" xlink:href="#Q"/><use transform="matrix(0.037777777777777764,0,0,0.037777777777777764,58.366666666666646,0)" xlink:href="#Y"/><use transform="matrix(0.037777777777777764,0,0,0.037777777777777764,70.83333333333331,0)" xlink:href="#W"/><use transform="matrix(0.037777777777777764,0,0,0.037777777777777764,94.7844444444444,0)" xlink:href="#P"/><use transform="matrix(0.037777777777777764,0,0,0.037777777777777764,117.45111111111108,0)" xlink:href="#Z"/><use transform="matrix(0.037777777777777764,0,0,0.037777777777777764,131.1644444444444,0)" xlink:href="#T"/><use transform="matrix(0.037777777777777764,0,0,0.037777777777777764,151.63999999999996,0)" xlink:href="#U"/><use transform="matrix(0.037777777777777764,0,0,0.037777777777777764,166.29777777777772,0)" xlink:href="#V"/></g><path fill="#3a414a" d="M141-472L33-586c70-81 160-124 260-124 133 0 238 84 238 219 0 115-54 155-160 224-48 31-127 94-150 134h176v-80h168V0H25v-145c55-90 83-117 146-170 72-61 177-105 177-167 0-51-38-66-84-66-54 0-93 44-123 76" id="ay"/><g id="y"><use transform="matrix(0.04888888888888884,0,0,0.04888888888888884,0,0)" xlink:href="#ad"/><use transform="matrix(0.04888888888888884,0,0,0.04888888888888884,34.271111111111075,0)" xlink:href="#Y"/><use transform="matrix(0.04888888888888884,0,0,0.04888888888888884,50.404444444444394,0)" xlink:href="#S"/><use transform="matrix(0.04888888888888884,0,0,0.04888888888888884,94.79555555555547,0)" xlink:href="#T"/><use transform="matrix(0.04888888888888884,0,0,0.04888888888888884,121.29333333333322,0)" xlink:href="#Q"/><use transform="matrix(0.04888888888888884,0,0,0.04888888888888884,137.52444444444433,0)" xlink:href="#M"/><use transform="matrix(0.04888888888888884,0,0,0.04888888888888884,165.58666666666653,0)" xlink:href="#X"/><use transform="matrix(0.04888888888888884,0,0,0.04888888888888884,191.5466666666665,0)" xlink:href="#ae"/><use transform="matrix(0.04888888888888884,0,0,0.04888888888888884,223.51999999999978,0)" xlink:href="#K"/><use transform="matrix(0.04888888888888884,0,0,0.04888888888888884,254.8088888888887,0)" xlink:href="#L"/><use transform="matrix(0.04888888888888884,0,0,0.04888888888888884,275.04888888888865,0)" xlink:href="#M"/><use transform="matrix(0.04888888888888884,0,0,0.04888888888888884,303.11111111111086,0)" xlink:href="#N"/><use transform="matrix(0.04888888888888884,0,0,0.04888888888888884,334.3022222222219,0)" xlink:href="#M"/><use transform="matrix(0.04888888888888884,0,0,0.04888888888888884,362.36444444444413,0)" xlink:href="#O"/><use transform="matrix(0.04888888888888884,0,0,0.04888888888888884,387.19999999999965,0)" xlink:href="#P"/><use transform="matrix(0.04888888888888884,0,0,0.04888888888888884,416.53333333333296,0)" xlink:href="#Q"/><use transform="matrix(0.04888888888888884,0,0,0.04888888888888884,432.76444444444405,0)" xlink:href="#al"/><use transform="matrix(0.04888888888888884,0,0,0.04888888888888884,463.6133333333329,0)" xlink:href="#at"/><use transform="matrix(0.04888888888888884,0,0,0.04888888888888884,492.8977777777773,0)" xlink:href="#ay"/></g><g id="z"><use transform="matrix(0.04888888888888884,0,0,0.04888888888888884,0,0)" xlink:href="#ad"/><use transform="matrix(0.04888888888888884,0,0,0.04888888888888884,34.271111111111075,0)" xlink:href="#Y"/><use transform="matrix(0.04888888888888884,0,0,0.04888888888888884,50.404444444444394,0)" xlink:href="#S"/><use transform="matrix(0.04888888888888884,0,0,0.04888888888888884,94.79555555555547,0)" xlink:href="#T"/><use transform="matrix(0.04888888888888884,0,0,0.04888888888888884,121.29333333333322,0)" xlink:href="#Q"/><use transform="matrix(0.04888888888888884,0,0,0.04888888888888884,137.52444444444433,0)" xlink:href="#M"/><use transform="matrix(0.04888888888888884,0,0,0.04888888888888884,165.58666666666653,0)" xlink:href="#X"/><use transform="matrix(0.04888888888888884,0,0,0.04888888888888884,191.5466666666665,0)" xlink:href="#ae"/><use transform="matrix(0.04888888888888884,0,0,0.04888888888888884,223.51999999999978,0)" xlink:href="#K"/><use transform="matrix(0.04888888888888884,0,0,0.04888888888888884,254.8088888888887,0)" xlink:href="#M"/><use transform="matrix(0.04888888888888884,0,0,0.04888888888888884,282.87111111111085,0)" xlink:href="#O"/><use transform="matrix(0.04888888888888884,0,0,0.04888888888888884,307.70666666666637,0)" xlink:href="#Z"/><use transform="matrix(0.04888888888888884,0,0,0.04888888888888884,325.45333333333303,0)" xlink:href="#K"/><use transform="matrix(0.04888888888888884,0,0,0.04888888888888884,356.74222222222187,0)" xlink:href="#L"/><use transform="matrix(0.04888888888888884,0,0,0.04888888888888884,376.9822222222218,0)" xlink:href="#M"/><use transform="matrix(0.04888888888888884,0,0,0.04888888888888884,405.0444444444441,0)" xlink:href="#N"/><use transform="matrix(0.04888888888888884,0,0,0.04888888888888884,436.23555555555504,0)" xlink:href="#M"/><use transform="matrix(0.04888888888888884,0,0,0.04888888888888884,464.29777777777736,0)" xlink:href="#O"/><use transform="matrix(0.04888888888888884,0,0,0.04888888888888884,489.13333333333276,0)" xlink:href="#P"/><use transform="matrix(0.04888888888888884,0,0,0.04888888888888884,518.4666666666661,0)" xlink:href="#Q"/><use transform="matrix(0.04888888888888884,0,0,0.04888888888888884,534.6977777777772,0)" xlink:href="#ac"/><use transform="matrix(0.04888888888888884,0,0,0.04888888888888884,568.2355555555549,0)" xlink:href="#ag"/><use transform="matrix(0.04888888888888884,0,0,0.04888888888888884,600.5511111111105,0)" xlink:href="#T"/><use transform="matrix(0.04888888888888884,0,0,0.04888888888888884,627.0488888888882,0)" xlink:href="#X"/><use transform="matrix(0.04888888888888884,0,0,0.04888888888888884,653.0088888888881,0)" xlink:href="#ae"/></g><path fill="#3a414a" d="M15-699h318v129h-54v216c0 161 36 195 100 195 61 0 101-24 101-196v-212h-54v-132h296v129h-54v243c0 237-99 344-287 344C179 17 71-95 71-322v-247H15v-130" id="az"/><g id="A"><use transform="matrix(0.037777777777777764,0,0,0.037777777777777764,0,0)" xlink:href="#O"/><use transform="matrix(0.037777777777777764,0,0,0.037777777777777764,19.191111111111105,0)" xlink:href="#T"/><use transform="matrix(0.037777777777777764,0,0,0.037777777777777764,39.666666666666664,0)" xlink:href="#Z"/><use transform="matrix(0.037777777777777764,0,0,0.037777777777777764,53.37999999999998,0)" xlink:href="#az"/><use transform="matrix(0.037777777777777764,0,0,0.037777777777777764,81.2222222222222,0)" xlink:href="#N"/><use transform="matrix(0.037777777777777764,0,0,0.037777777777777764,105.32444444444441,0)" xlink:href="#U"/><use transform="matrix(0.037777777777777764,0,0,0.037777777777777764,119.98222222222218,0)" xlink:href="#V"/></g><path fill="#3a414a" d="M25-699h332v132h-62v434h62V0H25v-133h63v-434H25v-132" id="aA"/><g id="B"><use transform="matrix(0.04888888888888884,0,0,0.04888888888888884,0,0)" xlink:href="#ad"/><use transform="matrix(0.04888888888888884,0,0,0.04888888888888884,34.271111111111075,0)" xlink:href="#Y"/><use transform="matrix(0.04888888888888884,0,0,0.04888888888888884,50.404444444444394,0)" xlink:href="#S"/><use transform="matrix(0.04888888888888884,0,0,0.04888888888888884,94.79555555555547,0)" xlink:href="#T"/><use transform="matrix(0.04888888888888884,0,0,0.04888888888888884,121.29333333333322,0)" xlink:href="#Q"/><use transform="matrix(0.04888888888888884,0,0,0.04888888888888884,137.52444444444433,0)" xlink:href="#M"/><use transform="matrix(0.04888888888888884,0,0,0.04888888888888884,165.58666666666653,0)" xlink:href="#X"/><use transform="matrix(0.04888888888888884,0,0,0.04888888888888884,191.5466666666665,0)" xlink:href="#ae"/><use transform="matrix(0.04888888888888884,0,0,0.04888888888888884,223.51999999999978,0)" xlink:href="#K"/><use transform="matrix(0.04888888888888884,0,0,0.04888888888888884,254.8088888888887,0)" xlink:href="#L"/><use transform="matrix(0.04888888888888884,0,0,0.04888888888888884,275.04888888888865,0)" xlink:href="#M"/><use transform="matrix(0.04888888888888884,0,0,0.04888888888888884,303.11111111111086,0)" xlink:href="#N"/><use transform="matrix(0.04888888888888884,0,0,0.04888888888888884,334.3022222222219,0)" xlink:href="#M"/><use transform="matrix(0.04888888888888884,0,0,0.04888888888888884,362.36444444444413,0)" xlink:href="#O"/><use transform="matrix(0.04888888888888884,0,0,0.04888888888888884,387.19999999999965,0)" xlink:href="#P"/><use transform="matrix(0.04888888888888884,0,0,0.04888888888888884,416.53333333333296,0)" xlink:href="#Q"/><use transform="matrix(0.04888888888888884,0,0,0.04888888888888884,432.76444444444405,0)" xlink:href="#aA"/><use transform="matrix(0.04888888888888884,0,0,0.04888888888888884,451.4399999999996,0)" xlink:href="#R"/><use transform="matrix(0.04888888888888884,0,0,0.04888888888888884,483.07111111111067,0)" xlink:href="#Z"/><use transform="matrix(0.04888888888888884,0,0,0.04888888888888884,500.8177777777773,0)" xlink:href="#T"/><use transform="matrix(0.04888888888888884,0,0,0.04888888888888884,527.3155555555551,0)" xlink:href="#ab"/><use transform="matrix(0.04888888888888884,0,0,0.04888888888888884,558.604444444444,0)" xlink:href="#L"/><use transform="matrix(0.04888888888888884,0,0,0.04888888888888884,578.844444444444,0)" xlink:href="#P"/><use transform="matrix(0.04888888888888884,0,0,0.04888888888888884,608.1777777777772,0)" xlink:href="#Z"/><use transform="matrix(0.04888888888888884,0,0,0.04888888888888884,625.9244444444439,0)" xlink:href="#Y"/><use transform="matrix(0.04888888888888884,0,0,0.04888888888888884,642.0577777777772,0)" xlink:href="#M"/><use transform="matrix(0.04888888888888884,0,0,0.04888888888888884,670.1199999999994,0)" xlink:href="#R"/><use transform="matrix(0.04888888888888884,0,0,0.04888888888888884,701.7511111111105,0)" xlink:href="#ad"/><use transform="matrix(0.04888888888888884,0,0,0.04888888888888884,736.0222222222216,0)" xlink:href="#T"/><use transform="matrix(0.04888888888888884,0,0,0.04888888888888884,762.5199999999993,0)" xlink:href="#O"/><use transform="matrix(0.04888888888888884,0,0,0.04888888888888884,787.3555555555548,0)" xlink:href="#Z"/></g><path fill="#3a414a" d="M420-224h5c18-115 88-242 127-345h-53v-130h284v130h-49L494 0H310L45-569h-55v-130h368v130h-54c36 105 97 230 116 345" id="aB"/><g id="C"><use transform="matrix(0.037777777777777764,0,0,0.037777777777777764,0,0)" xlink:href="#Z"/><use transform="matrix(0.037777777777777764,0,0,0.037777777777777764,13.713333333333328,0)" xlink:href="#T"/><use transform="matrix(0.037777777777777764,0,0,0.037777777777777764,34.188888888888876,0)" xlink:href="#O"/><use transform="matrix(0.037777777777777764,0,0,0.037777777777777764,53.37999999999998,0)" xlink:href="#Z"/><use transform="matrix(0.037777777777777764,0,0,0.037777777777777764,67.0933333333333,0)" xlink:href="#al"/><use transform="matrix(0.037777777777777764,0,0,0.037777777777777764,90.93111111111108,0)" xlink:href="#P"/><use transform="matrix(0.037777777777777764,0,0,0.037777777777777764,113.59777777777774,0)" xlink:href="#W"/><use transform="matrix(0.037777777777777764,0,0,0.037777777777777764,137.54888888888883,0)" xlink:href="#W"/><use transform="matrix(0.037777777777777764,0,0,0.037777777777777764,161.49999999999994,0)" xlink:href="#ad"/><use transform="matrix(0.037777777777777764,0,0,0.037777777777777764,187.98222222222216,0)" xlink:href="#M"/><use transform="matrix(0.037777777777777764,0,0,0.037777777777777764,209.6666666666666,0)" xlink:href="#ae"/><use transform="matrix(0.037777777777777764,0,0,0.037777777777777764,234.37333333333325,0)" xlink:href="#T"/><use transform="matrix(0.037777777777777764,0,0,0.037777777777777764,254.8488888888888,0)" xlink:href="#R"/><use transform="matrix(0.037777777777777764,0,0,0.037777777777777764,279.29111111111104,0)" xlink:href="#ad"/><use transform="matrix(0.037777777777777764,0,0,0.037777777777777764,305.77333333333326,0)" xlink:href="#M"/><use transform="matrix(0.037777777777777764,0,0,0.037777777777777764,327.45777777777766,0)" xlink:href="#aB"/><use transform="matrix(0.037777777777777764,0,0,0.037777777777777764,356.65999999999985,0)" xlink:href="#P"/><use transform="matrix(0.037777777777777764,0,0,0.037777777777777764,379.3266666666665,0)" xlink:href="#aa"/><use transform="matrix(0.037777777777777764,0,0,0.037777777777777764,403.16444444444426,0)" xlink:href="#Q"/><use transform="matrix(0.037777777777777764,0,0,0.037777777777777764,415.7066666666664,0)" xlink:href="#Z"/><use transform="matrix(0.037777777777777764,0,0,0.037777777777777764,429.4199999999998,0)" xlink:href="#U"/><use transform="matrix(0.037777777777777764,0,0,0.037777777777777764,444.07777777777756,0)" xlink:href="#V"/></g><g id="D"><use transform="matrix(0.037777777777777764,0,0,0.037777777777777764,0,0)" xlink:href="#Z"/><use transform="matrix(0.037777777777777764,0,0,0.037777777777777764,13.713333333333328,0)" xlink:href="#T"/><use transform="matrix(0.037777777777777764,0,0,0.037777777777777764,34.188888888888876,0)" xlink:href="#O"/><use transform="matrix(0.037777777777777764,0,0,0.037777777777777764,53.37999999999998,0)" xlink:href="#Z"/><use transform="matrix(0.037777777777777764,0,0,0.037777777777777764,67.0933333333333,0)" xlink:href="#al"/><use transform="matrix(0.037777777777777764,0,0,0.037777777777777764,90.93111111111108,0)" xlink:href="#W"/><use transform="matrix(0.037777777777777764,0,0,0.037777777777777764,114.88222222222218,0)" xlink:href="#T"/><use transform="matrix(0.037777777777777764,0,0,0.037777777777777764,135.35777777777773,0)" xlink:href="#N"/><use transform="matrix(0.037777777777777764,0,0,0.037777777777777764,159.45999999999995,0)" xlink:href="#M"/><use transform="matrix(0.037777777777777764,0,0,0.037777777777777764,181.1444444444444,0)" xlink:href="#O"/><use transform="matrix(0.037777777777777764,0,0,0.037777777777777764,200.3355555555555,0)" xlink:href="#Y"/><use transform="matrix(0.037777777777777764,0,0,0.037777777777777764,212.80222222222216,0)" xlink:href="#Z"/><use transform="matrix(0.037777777777777764,0,0,0.037777777777777764,226.51555555555552,0)" xlink:href="#ad"/><use transform="matrix(0.037777777777777764,0,0,0.037777777777777764,252.9977777777777,0)" xlink:href="#M"/><use transform="matrix(0.037777777777777764,0,0,0.037777777777777764,274.68222222222215,0)" xlink:href="#aB"/><use transform="matrix(0.037777777777777764,0,0,0.037777777777777764,303.88444444444434,0)" xlink:href="#P"/><use transform="matrix(0.037777777777777764,0,0,0.037777777777777764,326.55111111111097,0)" xlink:href="#aa"/><use transform="matrix(0.037777777777777764,0,0,0.037777777777777764,350.38888888888886,0)" xlink:href="#Q"/><use transform="matrix(0.037777777777777764,0,0,0.037777777777777764,362.931111111111,0)" xlink:href="#Z"/><use transform="matrix(0.037777777777777764,0,0,0.037777777777777764,376.64444444444433,0)" xlink:href="#U"/><use transform="matrix(0.037777777777777764,0,0,0.037777777777777764,391.3022222222221,0)" xlink:href="#V"/></g><path fill="#3a414a" d="M25-699h598v221H446v-89H295v174h190v133H295v127h102V0H25v-133h62v-434H25v-132" id="aC"/><g id="E"><use transform="matrix(0.08222222222222217,0,0,0.08222222222222217,0,0)" xlink:href="#aC"/><use transform="matrix(0.08222222222222217,0,0,0.08222222222222217,52.45777777777774,0)" xlink:href="#M"/><use transform="matrix(0.08222222222222217,0,0,0.08222222222222217,99.65333333333326,0)" xlink:href="#L"/><use transform="matrix(0.08222222222222217,0,0,0.08222222222222217,133.69333333333324,0)" xlink:href="#ab"/><use transform="matrix(0.08222222222222217,0,0,0.08222222222222217,186.31555555555545,0)" xlink:href="#T"/></g><g id="F"><use transform="matrix(0.08222222222222217,0,0,0.08222222222222217,0,0)" xlink:href="#K"/><use transform="matrix(0.08222222222222217,0,0,0.08222222222222217,52.62222222222219,0)" xlink:href="#L"/><use transform="matrix(0.08222222222222217,0,0,0.08222222222222217,86.66222222222217,0)" xlink:href="#M"/><use transform="matrix(0.08222222222222217,0,0,0.08222222222222217,133.8577777777777,0)" xlink:href="#N"/><use transform="matrix(0.08222222222222217,0,0,0.08222222222222217,186.31555555555545,0)" xlink:href="#M"/><use transform="matrix(0.08222222222222217,0,0,0.08222222222222217,233.51111111111095,0)" xlink:href="#O"/><use transform="matrix(0.08222222222222217,0,0,0.08222222222222217,275.27999999999986,0)" xlink:href="#P"/><use transform="matrix(0.08222222222222217,0,0,0.08222222222222217,324.6133333333332,0)" xlink:href="#Q"/></g><g id="G"><use transform="matrix(0.08222222222222217,0,0,0.08222222222222217,0,0)" xlink:href="#af"/><use transform="matrix(0.08222222222222217,0,0,0.08222222222222217,58.37777777777774,0)" xlink:href="#Y"/><use transform="matrix(0.08222222222222217,0,0,0.08222222222222217,85.51111111111105,0)" xlink:href="#S"/><use transform="matrix(0.08222222222222217,0,0,0.08222222222222217,160.16888888888877,0)" xlink:href="#aa"/><use transform="matrix(0.08222222222222217,0,0,0.08222222222222217,212.05111111111097,0)" xlink:href="#Q"/><use transform="matrix(0.08222222222222217,0,0,0.08222222222222217,239.34888888888872,0)" xlink:href="#P"/><use transform="matrix(0.08222222222222217,0,0,0.08222222222222217,288.68222222222204,0)" xlink:href="#Z"/><use transform="matrix(0.08222222222222217,0,0,0.08222222222222217,318.5288888888887,0)" xlink:href="#M"/><use transform="matrix(0.08222222222222217,0,0,0.08222222222222217,365.7244444444442,0)" xlink:href="#L"/></g><g id="H"><use transform="matrix(0.08222222222222217,0,0,0.08222222222222217,0,0)" xlink:href="#ad"/><use transform="matrix(0.08222222222222217,0,0,0.08222222222222217,57.63777777777774,0)" xlink:href="#Y"/><use transform="matrix(0.08222222222222217,0,0,0.08222222222222217,84.77111111111105,0)" xlink:href="#S"/><use transform="matrix(0.08222222222222217,0,0,0.08222222222222217,159.42888888888876,0)" xlink:href="#T"/><use transform="matrix(0.08222222222222217,0,0,0.08222222222222217,203.99333333333317,0)" xlink:href="#Q"/><use transform="matrix(0.08222222222222217,0,0,0.08222222222222217,231.29111111111092,0)" xlink:href="#M"/><use transform="matrix(0.08222222222222217,0,0,0.08222222222222217,278.48666666666645,0)" xlink:href="#X"/><use transform="matrix(0.08222222222222217,0,0,0.08222222222222217,322.1466666666664,0)" xlink:href="#ae"/></g><g id="I"><use transform="matrix(0.08222222222222217,0,0,0.08222222222222217,0,0)" xlink:href="#ao"/><use transform="matrix(0.08222222222222217,0,0,0.08222222222222217,63.8044444444444,0)" xlink:href="#M"/><use transform="matrix(0.08222222222222217,0,0,0.08222222222222217,110.99999999999991,0)" xlink:href="#ap"/><use transform="matrix(0.08222222222222217,0,0,0.08222222222222217,161.40222222222212,0)" xlink:href="#T"/><use transform="matrix(0.08222222222222217,0,0,0.08222222222222217,205.96666666666653,0)" xlink:href="#L"/><use transform="matrix(0.08222222222222217,0,0,0.08222222222222217,240.00666666666646,0)" xlink:href="#R"/><use transform="matrix(0.08222222222222217,0,0,0.08222222222222217,293.2044444444442,0)" xlink:href="#P"/><use transform="matrix(0.08222222222222217,0,0,0.08222222222222217,342.53777777777753,0)" xlink:href="#R"/><use transform="matrix(0.08222222222222217,0,0,0.08222222222222217,395.7355555555553,0)" xlink:href="#X"/><use transform="matrix(0.08222222222222217,0,0,0.08222222222222217,439.3955555555553,0)" xlink:href="#T"/></g><g id="J"><use transform="matrix(0.08222222222222217,0,0,0.08222222222222217,0,0)" xlink:href="#K"/><use transform="matrix(0.08222222222222217,0,0,0.08222222222222217,52.62222222222219,0)" xlink:href="#L"/><use transform="matrix(0.08222222222222217,0,0,0.08222222222222217,86.66222222222217,0)" xlink:href="#M"/><use transform="matrix(0.08222222222222217,0,0,0.08222222222222217,133.8577777777777,0)" xlink:href="#Z"/><use transform="matrix(0.08222222222222217,0,0,0.08222222222222217,163.70444444444433,0)" xlink:href="#M"/><use transform="matrix(0.08222222222222217,0,0,0.08222222222222217,210.89999999999986,0)" xlink:href="#X"/><use transform="matrix(0.08222222222222217,0,0,0.08222222222222217,254.55999999999983,0)" xlink:href="#M"/><use transform="matrix(0.08222222222222217,0,0,0.08222222222222217,301.75555555555536,0)" xlink:href="#Q"/></g></defs></g></svg>